<svg width="36" height="36" viewBox="0 0 36 36" fill="none" xmlns="http://www.w3.org/2000/svg">
<g id="vuesax/linear/clipboard">
<g id="clipboard">
<path id="Vector" d="M27.945 10.7252C28.005 11.6402 27.93 12.6752 27.75 13.8302L26.655 20.8652C25.725 26.7302 23.01 28.7102 17.145 27.7952L10.11 26.6852C8.08499 26.3702 6.52499 25.8302 5.38499 25.0202C3.20999 23.5052 2.57999 21.0152 3.17999 17.1752L4.28999 10.1402C5.21999 4.27521 7.93499 2.29521 13.8 3.21021L20.835 4.32021C25.545 5.05521 27.75 6.97521 27.945 10.7252Z" stroke="#7C4BAC" stroke-width="1.5" stroke-linecap="round" stroke-linejoin="round"/>
<path id="Vector_2" d="M30.75 20.2051L28.5 26.9701C26.625 32.6101 23.625 34.1101 17.985 32.2351L11.22 29.9851C7.81501 28.8601 5.92501 27.3001 5.38501 25.0201C6.52501 25.8301 8.08501 26.3701 10.11 26.6851L17.145 27.7951C23.01 28.7101 25.725 26.7301 26.655 20.8651L27.75 13.8301C27.93 12.6751 28.005 11.6401 27.945 10.7251C31.53 12.6301 32.31 15.5101 30.75 20.2051Z" stroke="#7C4BAC" stroke-width="1.5" stroke-linecap="round" stroke-linejoin="round"/>
<path id="Vector_3" d="M12.36 13.47C13.8015 13.47 14.97 12.3015 14.97 10.86C14.97 9.41854 13.8015 8.25 12.36 8.25C10.9185 8.25 9.75 9.41854 9.75 10.86C9.75 12.3015 10.9185 13.47 12.36 13.47Z" stroke="#7C4BAC" stroke-width="1.5" stroke-linecap="round" stroke-linejoin="round"/>
</g>
</g>
</svg>
