<svg width="32" height="32" viewBox="0 0 32 32" fill="none" xmlns="http://www.w3.org/2000/svg">
<g id="vuesax/linear/hierarchy">
<g id="hierarchy">
<path id="Vector" d="M6.66663 12V21.3333" stroke="white" stroke-width="1.5" stroke-linecap="round" stroke-linejoin="round"/>
<path id="Vector_2" d="M6.99996 11.3334C9.39319 11.3334 11.3333 9.39332 11.3333 7.00008C11.3333 4.60685 9.39319 2.66675 6.99996 2.66675C4.60673 2.66675 2.66663 4.60685 2.66663 7.00008C2.66663 9.39332 4.60673 11.3334 6.99996 11.3334Z" stroke="white" stroke-width="1.5" stroke-linecap="round" stroke-linejoin="round"/>
<path id="Vector_3" d="M6.66663 29.3333C8.87577 29.3333 10.6666 27.5424 10.6666 25.3333C10.6666 23.1241 8.87577 21.3333 6.66663 21.3333C4.45749 21.3333 2.66663 23.1241 2.66663 25.3333C2.66663 27.5424 4.45749 29.3333 6.66663 29.3333Z" stroke="white" stroke-width="1.5" stroke-linecap="round" stroke-linejoin="round"/>
<path id="Vector_4" d="M25.3334 29.3333C27.5425 29.3333 29.3334 27.5424 29.3334 25.3333C29.3334 23.1241 27.5425 21.3333 25.3334 21.3333C23.1242 21.3333 21.3334 23.1241 21.3334 25.3333C21.3334 27.5424 23.1242 29.3333 25.3334 29.3333Z" stroke="white" stroke-width="1.5" stroke-linecap="round" stroke-linejoin="round"/>
<path id="Vector_5" d="M6.83997 12C7.43997 14.3333 9.5733 16.0667 12.0933 16.0533L16.6666 16.04C20.16 16.0267 23.1333 18.2667 24.2266 21.3867" stroke="white" stroke-width="1.5" stroke-linecap="round" stroke-linejoin="round"/>
</g>
</g>
</svg>
