<svg width="32" height="32" viewBox="0 0 32 32" fill="none" xmlns="http://www.w3.org/2000/svg">
<path d="M6.66663 20V10.6666" stroke="white" stroke-width="1.5" stroke-linecap="round" stroke-linejoin="round"/>
<path d="M6.99996 29.3333C9.39319 29.3333 11.3333 27.3932 11.3333 25C11.3333 22.6067 9.39319 20.6666 6.99996 20.6666C4.60673 20.6666 2.66663 22.6067 2.66663 25C2.66663 27.3932 4.60673 29.3333 6.99996 29.3333Z" stroke="white" stroke-width="1.5" stroke-linecap="round" stroke-linejoin="round"/>
<path d="M6.66663 10.6666C8.87577 10.6666 10.6666 8.87577 10.6666 6.66663C10.6666 4.45749 8.87577 2.66663 6.66663 2.66663C4.45749 2.66663 2.66663 4.45749 2.66663 6.66663C2.66663 8.87577 4.45749 10.6666 6.66663 10.6666Z" stroke="white" stroke-width="1.5" stroke-linecap="round" stroke-linejoin="round"/>
<path d="M25.3334 10.6666C27.5425 10.6666 29.3334 8.87577 29.3334 6.66663C29.3334 4.45749 27.5425 2.66663 25.3334 2.66663C23.1242 2.66663 21.3334 4.45749 21.3334 6.66663C21.3334 8.87577 23.1242 10.6666 25.3334 10.6666Z" stroke="white" stroke-width="1.5" stroke-linecap="round" stroke-linejoin="round"/>
<path d="M6.83997 20C7.43997 17.6666 9.5733 15.9333 12.0933 15.9466L16.6666 15.96C20.16 15.9733 23.1333 13.7333 24.2266 10.6133" stroke="white" stroke-width="1.5" stroke-linecap="round" stroke-linejoin="round"/>
</svg>
