<svg width="32" height="32" viewBox="0 0 32 32" fill="none" xmlns="http://www.w3.org/2000/svg">
<g id="vuesax/linear/hierarchy-3">
<g id="hierarchy-3">
<path id="Vector" d="M6.66663 10.6667C8.87577 10.6667 10.6666 8.87589 10.6666 6.66675C10.6666 4.45761 8.87577 2.66675 6.66663 2.66675C4.45749 2.66675 2.66663 4.45761 2.66663 6.66675C2.66663 8.87589 4.45749 10.6667 6.66663 10.6667Z" stroke="white" stroke-width="1.5" stroke-linecap="round" stroke-linejoin="round"/>
<path id="Vector_2" d="M25.3334 20C27.5425 20 29.3334 18.2091 29.3334 16C29.3334 13.7909 27.5425 12 25.3334 12C23.1242 12 21.3334 13.7909 21.3334 16C21.3334 18.2091 23.1242 20 25.3334 20Z" stroke="white" stroke-width="1.5" stroke-linecap="round" stroke-linejoin="round"/>
<path id="Vector_3" d="M6.66663 29.3333C8.87577 29.3333 10.6666 27.5424 10.6666 25.3333C10.6666 23.1241 8.87577 21.3333 6.66663 21.3333C4.45749 21.3333 2.66663 23.1241 2.66663 25.3333C2.66663 27.5424 4.45749 29.3333 6.66663 29.3333Z" stroke="white" stroke-width="1.5" stroke-linecap="round" stroke-linejoin="round"/>
<path id="Vector_4" d="M21.3333 16.0001H12C9.06663 16.0001 6.66663 14.6667 6.66663 10.6667V21.3334" stroke="white" stroke-width="1.5" stroke-linecap="round" stroke-linejoin="round"/>
</g>
</g>
</svg>
