<svg width="64" height="64" viewBox="0 0 64 64" fill="none" xmlns="http://www.w3.org/2000/svg">
<g id="15 contact" clip-path="url(#clip0_797_1684)">
<g id="_x31_5_contact">
<g id="Group">
<path id="Vector" d="M63.25 17.8494V46.1507C63.25 55.5944 55.5944 63.25 46.1506 63.25H17.8494C8.40562 63.25 0.75 55.5944 0.75 46.1506V17.8494C0.75 8.40562 8.40562 0.75 17.8494 0.75H46.1507C55.5944 0.75 63.25 8.40562 63.25 17.8494Z" fill="#F2EDF7"/>
<g id="Group_2">
<path id="Vector_2" d="M37.4048 32.0016C37.4048 34.6369 35.2694 36.7723 32.634 36.7723C29.9985 36.7723 27.8633 34.6369 27.8633 32.0016C27.8633 29.3661 29.9987 27.2271 32.634 27.2271C35.2694 27.2271 37.4048 29.3661 37.4048 32.0016Z" fill="#02C55C"/>
<path id="Vector_3" d="M22.5869 11.332C24.6487 12.5433 25.2347 15.6269 25.8575 18.9862C26.4382 22.3634 26.8375 25.2265 25.2448 26.9768" stroke="#7C4BAC" stroke-width="1.5" stroke-miterlimit="10" stroke-linecap="round" stroke-linejoin="round"/>
<path id="Vector_4" d="M37.019 38.753C38.7734 37.1623 41.6362 37.5614 45.0135 38.1422C48.3729 38.7651 51.4565 39.3511 52.6677 41.4128" stroke="#7C4BAC" stroke-width="1.5" stroke-miterlimit="10" stroke-linecap="round" stroke-linejoin="round"/>
<path id="Vector_5" d="M52.7019 40.1453C53.6336 43.0356 49.5466 53.9052 42.4166 52.7471C26.6156 49.9591 14.0405 37.3841 11.2525 21.5831C10.0945 14.4531 20.964 10.3662 23.8543 11.2978C26.8385 11.8411 27.5507 15.1168 28.2052 18.5687C28.7952 22.0455 29.0965 25.0756 26.4442 26.5721C25.5975 27.0203 22.3929 28.2605 21.2099 27.9873C24.2735 34.464 29.5356 39.726 36.0121 42.7896C35.7344 41.6045 36.9755 38.3997 37.4237 37.5532C38.921 34.9013 41.9539 35.2042 45.4309 35.7941C48.8827 36.449 52.1586 37.1611 52.7019 40.1453Z" stroke="#7C4BAC" stroke-width="1.5" stroke-miterlimit="10" stroke-linecap="round" stroke-linejoin="round"/>
<path id="Vector_6" d="M36.7314 13.2715C44.4493 13.2715 50.7281 19.5507 50.7281 27.2685" stroke="#7C4BAC" stroke-width="1.5" stroke-miterlimit="10" stroke-linecap="round" stroke-linejoin="round"/>
<path id="Vector_7" d="M36.7314 17.4878C42.1242 17.4878 46.5117 21.8754 46.5117 27.2685" stroke="#7C4BAC" stroke-width="1.5" stroke-miterlimit="10" stroke-linecap="round" stroke-linejoin="round"/>
<path id="Vector_8" d="M36.7314 21.7041C39.7994 21.7041 42.2954 24.2001 42.2954 27.2685" stroke="#7C4BAC" stroke-width="1.5" stroke-miterlimit="10" stroke-linecap="round" stroke-linejoin="round"/>
<path id="Vector_9" d="M36.731 25.9204C37.473 25.9204 38.079 26.5203 38.079 27.2684" stroke="#7C4BAC" stroke-width="1.5" stroke-miterlimit="10" stroke-linecap="round" stroke-linejoin="round"/>
</g>
</g>
</g>
</g>
<defs>
<clipPath id="clip0_797_1684">
<rect width="64" height="64" fill="white"/>
</clipPath>
</defs>
</svg>
