<svg width="63" height="63" viewBox="0 0 63 63" fill="none" xmlns="http://www.w3.org/2000/svg">
<g id="icon_modulardataworkflow 1" clip-path="url(#clip0_1484_636)">
<g id="_x30_1_modularity">
<g id="g13722">
<path id="path5626" d="M63 17.2362V45.764C63 55.2831 55.2831 63 45.7638 63H17.2362C7.71687 63 0 55.2831 0 45.7638V17.2362C0 7.71687 7.71687 0 17.2362 0H45.764C55.2831 0 63 7.71687 63 17.2362Z" fill="#F2EDF7"/>
<path id="rect234-3-6-5-6-8" d="M37.2264 46.6852C37.2264 46.7166 37.229 46.7473 37.2334 46.7774H37.2298V51.4639C37.2298 52.4894 37.7902 53.3792 38.6225 53.8454L40.3416 52.1265C41.25 51.218 42.7129 51.218 43.6213 52.1265L45.0833 53.5883V53.5904L45.6854 54.1923H45.8769V54.199L48.6928 54.1991L49.2949 53.5972V53.5952L50.7568 52.1333C51.6653 51.2248 53.1281 51.2248 54.0366 52.1333L55.7556 53.8522C56.588 53.3861 57.1483 52.4962 57.1483 51.4707V46.7843H57.1448C57.1494 46.7542 57.1518 46.7234 57.1518 46.692V42.6548C57.1518 42.633 57.1508 42.6115 57.1482 42.5902V39.5763C57.1482 39.4443 57.1383 39.3148 57.1203 39.1879C57.2296 38.483 57.012 37.7381 56.4667 37.1929L54.0933 34.8194C53.6391 34.3652 53.0462 34.1382 52.4534 34.1382C51.8606 34.1382 51.2677 34.3652 50.8134 34.8194L48.7846 36.8481H48.5012V36.8413H45.5933L43.5644 34.8126C43.1102 34.3584 42.5173 34.1313 41.9245 34.1313C41.3317 34.1313 40.7388 34.3584 40.2845 34.8126L37.9111 37.186C37.3658 37.7313 37.1482 38.4761 37.2575 39.181C37.2396 39.3079 37.2297 39.4374 37.2297 39.5694V42.5834C37.2271 42.6046 37.2261 42.6261 37.2261 42.6479L37.2264 46.6852Z" fill="#03C55C"/>
<path id="rect234-3-6-5-6-3-3-8" d="M15.3852 35.5749C15.3852 35.6257 15.3893 35.6754 15.3965 35.7241H15.3907V43.3025C15.3907 44.9608 16.2971 46.3998 17.6435 47.1536L20.4241 44.3739C21.8936 42.9049 24.2598 42.9049 25.7293 44.3739L28.094 46.7379V46.7412L29.0679 47.7146H29.3776V47.7254L33.9325 47.7256L34.9064 46.7523V46.749L37.2712 44.385C38.7407 42.916 41.1069 42.916 42.5764 44.385L45.357 47.1647C46.7033 46.4109 47.6097 44.9719 47.6097 43.3136V35.7351H47.6039C47.6113 35.6865 47.6152 35.6368 47.6152 35.586V29.0574C47.6152 29.0222 47.6136 28.9874 47.6094 28.9531V24.0793C47.6094 23.8659 47.5934 23.6564 47.5644 23.4512C47.7411 22.3113 47.3891 21.1068 46.5072 20.2252L42.6681 16.3871C41.9333 15.6526 40.9743 15.2855 40.0154 15.2855C39.0565 15.2855 38.0974 15.6526 37.3627 16.3871L34.081 19.6677H33.6225V19.6566H28.9189L25.6372 16.376C24.9025 15.6415 23.9434 15.2744 22.9845 15.2744C22.0256 15.2744 21.0666 15.6415 20.3318 16.376L16.4927 20.2141C15.6107 21.0958 15.2588 22.3002 15.4355 23.4401C15.4065 23.6453 15.3904 23.8548 15.3904 24.0682V28.942C15.3863 28.9763 15.3846 29.0111 15.3846 29.0464L15.3852 35.5749Z" stroke="#7C4BAC" stroke-width="1.5" stroke-linejoin="round"/>
</g>
</g>
</g>
<defs>
<clipPath id="clip0_1484_636">
<rect width="63" height="63" fill="white"/>
</clipPath>
</defs>
</svg>
