<svg width="59" height="48" viewBox="0 0 59 48" fill="none" xmlns="http://www.w3.org/2000/svg">
<g id="Icon-DataPipelineProcess" clip-path="url(#clip0_991_1432)">
<path id="Vector" d="M41.5446 33.1049C50.6863 33.1049 58.0971 25.6941 58.0971 16.5524C58.0971 7.41078 50.6863 0 41.5446 0C32.403 0 24.9922 7.41078 24.9922 16.5524C24.9922 25.6941 32.403 33.1049 41.5446 33.1049Z" fill="#02C55C"/>
<path id="Vector_2" d="M45.2378 27.4108V21.6136L40.1284 20.1558C39.6814 18.6841 39.0281 17.3019 38.2304 16.0297L40.9192 11.1884L36.8206 7.08986L31.7318 9.91623C30.5696 9.29044 29.3249 8.80906 28.0183 8.45835L26.3954 2.77124H20.5983L18.9753 8.45835C17.6756 8.80906 16.4241 9.29044 15.2619 9.91623L10.1731 7.08986L6.07448 11.1884L8.76331 16.0297C7.9656 17.3088 7.31231 18.6841 6.86531 20.1558L1.75586 21.6136V27.4108L6.45958 28.7586C6.82405 30.5397 7.47047 32.2177 8.34383 33.7581L6.07448 37.8429L10.1731 41.9414L14.0103 39.8096C15.647 40.8755 17.4693 41.6732 19.4223 42.1477L20.5983 46.2669H26.3954L27.5713 42.1477C29.5243 41.6732 31.3467 40.8824 32.9834 39.8096L36.8206 41.9414L40.9192 37.8429L38.6498 33.7581C39.5163 32.2177 40.1627 30.5397 40.5341 28.7586L45.2378 27.4108Z" stroke="#7C4BAC" stroke-width="1.5" stroke-linecap="round" stroke-linejoin="round"/>
<path id="Vector_3" d="M23.2661 34.5353C28.6629 34.5353 33.038 30.1603 33.038 24.7634C33.038 19.3665 28.6629 14.9915 23.2661 14.9915C17.8692 14.9915 13.4941 19.3665 13.4941 24.7634C13.4941 30.1603 17.8692 34.5353 23.2661 34.5353Z" stroke="#7C4BAC" stroke-width="1.5" stroke-linecap="round" stroke-linejoin="round"/>
<path id="Vector_4" d="M30.2117 31.6424L30.1484 31.7056L33.0125 34.5697L33.0757 34.5064L30.2117 31.6424Z" stroke="#7C4BAC" stroke-width="1.5" stroke-linecap="round" stroke-linejoin="round"/>
</g>
<defs>
<clipPath id="clip0_991_1432">
<rect width="58.0991" height="48" fill="white"/>
</clipPath>
</defs>
</svg>
