<svg width="64" height="64" viewBox="0 0 64 64" fill="none" xmlns="http://www.w3.org/2000/svg">
<g id="_x30_7_integration">
<g id="g4626">
<path id="path4594" d="M64 17.5098V46.4904C64 56.1606 56.1606 64 46.4902 64H17.5098C7.83936 64 0 56.1606 0 46.4902V17.5098C0 7.83936 7.83936 0 17.5098 0H46.4904C56.1606 0 64 7.83936 64 17.5098Z" fill="#F2EDF7"/>
<g id="g4624">
<path id="circle4596" d="M35.8883 42.1193C39.6412 42.1193 42.6835 39.077 42.6835 35.3241C42.6835 31.5712 39.6412 28.5288 35.8883 28.5288C32.1354 28.5288 29.093 31.5712 29.093 35.3241C29.093 39.077 32.1354 42.1193 35.8883 42.1193Z" fill="#03C55C"/>
<path id="path4598" d="M31.4341 41.5186C30.7323 41.5186 30.1605 40.9473 30.1605 40.2455V38.8484C29.5673 38.6912 28.9964 38.4549 28.4546 38.1432L27.4701 39.1272C27.2352 39.3677 26.9142 39.502 26.5718 39.502C26.2303 39.502 25.9093 39.3677 25.6707 39.1239L24.8734 38.3265C24.6329 38.0908 24.4981 37.7706 24.4981 37.4282C24.499 37.0857 24.6329 36.7657 24.8771 36.5266L25.8568 35.5459C25.5451 35.004 25.3094 34.4328 25.1522 33.8395H23.755C23.0532 33.8395 22.4814 33.2682 22.4814 32.5664V31.4345C22.4814 30.7322 23.0532 30.1609 23.755 30.1609H25.1531C25.3113 29.5713 25.5499 28.9921 25.8577 28.4554L24.8733 27.471C24.6327 27.2352 24.499 26.9151 24.498 26.5727C24.498 26.2298 24.6327 25.9096 24.877 25.6705L25.6734 24.8737C25.9092 24.6327 26.2293 24.4984 26.5717 24.4984C26.9151 24.4984 27.2351 24.6332 27.4738 24.8775L28.4535 25.8563C28.986 25.5479 29.5578 25.3107 30.1604 25.1479V23.755C30.1604 23.0532 30.7322 22.4819 31.434 22.4819H32.5654C33.2672 22.4819 33.839 23.0532 33.839 23.755V25.1484C34.4436 25.3118 35.0162 25.5489 35.5468 25.8564L36.5293 24.8739C36.7651 24.6328 37.0852 24.4986 37.4276 24.4986C37.771 24.4986 38.091 24.6334 38.3298 24.8776L39.1271 25.6735C39.3676 25.9098 39.5024 26.2298 39.5024 26.5728C39.5015 26.9153 39.3676 27.2353 39.1234 27.4744L38.1438 28.4535C38.4507 28.9837 38.6884 29.5555 38.8521 30.1609H40.2455C40.9474 30.1609 41.5182 30.7322 41.5182 31.4345V32.5664C41.5182 33.2682 40.9474 33.8395 40.2455 33.8395H38.8521C38.6893 34.444 38.4525 35.0158 38.1447 35.5473L39.1272 36.5298C39.3677 36.7656 39.5015 37.0857 39.5025 37.4281C39.5025 37.7706 39.3677 38.0906 39.1235 38.3297L38.3262 39.1271C38.0913 39.3676 37.7703 39.5018 37.4279 39.5018C37.0864 39.5018 36.7654 39.3676 36.5268 39.1237L35.5451 38.1426C35.0089 38.4501 34.4296 38.6892 33.8391 38.8478V40.2454C33.8391 40.9472 33.2674 41.5185 32.5655 41.5185H31.4341V41.5186ZM32.0031 29.0931C30.3982 29.0931 29.0928 30.3958 29.0928 31.9973C29.0928 33.6018 30.3982 34.9071 32.0031 34.9071C33.6043 34.9071 34.9069 33.6017 34.9069 31.9973C34.9068 30.3957 33.6043 29.0931 32.0031 29.0931Z" stroke="#7C4BAC" stroke-width="1.5" stroke-miterlimit="10" stroke-linecap="round" stroke-linejoin="round"/>
<path id="path4600" d="M15.9405 21.8808C15.527 21.8808 15.1903 21.5443 15.1903 21.1309V20.3078C14.8408 20.2152 14.5046 20.076 14.1853 19.8925L13.6054 20.472C13.467 20.6137 13.2779 20.6928 13.0762 20.6928C12.875 20.6928 12.6859 20.6137 12.5454 20.4701L12.0758 20.0005C11.9341 19.8616 11.8547 19.6731 11.8547 19.4713C11.8552 19.2696 11.9341 19.0811 12.0779 18.9403L12.6551 18.3626C12.4715 18.0434 12.3327 17.7069 12.24 17.3574H11.417C11.0035 17.3574 10.6667 17.0209 10.6667 16.6075V15.9407C10.6667 15.527 11.0035 15.1905 11.417 15.1905H12.2405C12.3337 14.8432 12.4742 14.502 12.6556 14.1858L12.0756 13.6059C11.9339 13.467 11.8551 13.2784 11.8546 13.0767C11.8546 12.8747 11.9339 12.6862 12.0778 12.5453L12.5469 12.0759C12.6858 11.9339 12.8744 11.8548 13.0761 11.8548C13.2785 11.8548 13.4669 11.9342 13.6075 12.0781L14.1847 12.6547C14.4983 12.4731 14.8352 12.3333 15.1901 12.2374V11.4169C15.1901 11.0035 15.5269 10.667 15.9403 10.667H16.6068C17.0203 10.667 17.3571 11.0035 17.3571 11.4169V12.2378C17.7131 12.3341 18.0506 12.4737 18.3631 12.6548L18.9419 12.076C19.0808 11.9341 19.2694 11.855 19.4711 11.855C19.6735 11.855 19.8619 11.9343 20.0026 12.0782L20.4722 12.5471C20.6139 12.6862 20.6932 12.8747 20.6932 13.0768C20.6927 13.2786 20.6139 13.4671 20.47 13.6079L19.8929 14.1848C20.0737 14.4971 20.2136 14.8339 20.3101 15.1905H21.131C21.5444 15.1905 21.8807 15.527 21.8807 15.9407V16.6075C21.8807 17.0209 21.5444 17.3574 21.131 17.3574H20.3101C20.2143 17.7135 20.0747 18.0503 19.8934 18.3635L20.4722 18.9423C20.6139 19.0812 20.6927 19.2697 20.6932 19.4715C20.6932 19.6732 20.6139 19.8617 20.47 20.0025L20.0004 20.4722C19.862 20.6139 19.673 20.693 19.4712 20.693C19.27 20.693 19.081 20.6139 18.9404 20.4703L18.3621 19.8923C18.0462 20.0735 17.7051 20.2143 17.3572 20.3077V21.131C17.3572 21.5444 17.0204 21.8809 16.607 21.8809H15.9405V21.8808ZM16.2756 14.5614C15.3302 14.5614 14.5611 15.3288 14.5611 16.2722C14.5611 17.2174 15.3302 17.9863 16.2756 17.9863C17.2188 17.9863 17.986 17.2173 17.986 16.2722C17.9862 15.3286 17.2188 14.5614 16.2756 14.5614Z" stroke="#7C4BAC" stroke-width="1.5" stroke-miterlimit="10" stroke-linecap="round" stroke-linejoin="round"/>
<path id="path4602" d="M15.9405 53.333C15.527 53.333 15.1903 52.9965 15.1903 52.583V51.76C14.8408 51.6673 14.5046 51.5282 14.1853 51.3446L13.6054 51.9242C13.467 52.0659 13.2779 52.145 13.0762 52.145C12.875 52.145 12.6859 52.0659 12.5454 51.9223L12.0758 51.4526C11.9341 51.3138 11.8547 51.1252 11.8547 50.9235C11.8552 50.7218 11.9341 50.5332 12.0779 50.3924L12.6551 49.8148C12.4715 49.4955 12.3327 49.159 12.24 48.8096H11.417C11.0035 48.8096 10.6667 48.4731 10.6667 48.0596V47.3929C10.6667 46.9792 11.0035 46.6427 11.417 46.6427H12.2405C12.3337 46.2954 12.4742 45.9541 12.6556 45.638L12.0756 45.058C11.9339 44.9191 11.8551 44.7306 11.8546 44.5289C11.8546 44.3269 11.9339 44.1383 12.0778 43.9974L12.5469 43.528C12.6858 43.3861 12.8744 43.307 13.0761 43.307C13.2785 43.307 13.4669 43.3863 13.6075 43.5302L14.1847 44.1069C14.4983 43.9252 14.8352 43.7854 15.1901 43.6896V42.8691C15.1901 42.4557 15.5269 42.1191 15.9403 42.1191H16.6068C17.0203 42.1191 17.3571 42.4557 17.3571 42.8691V43.69C17.7131 43.7861 18.0506 43.9259 18.3631 44.107L18.9419 43.5282C19.0808 43.3862 19.2694 43.3071 19.4711 43.3071C19.6735 43.3071 19.8619 43.3865 20.0026 43.5303L20.4722 43.9992C20.6139 44.1383 20.6932 44.3269 20.6932 44.529C20.6927 44.7307 20.6139 44.9193 20.47 45.0601L19.8929 45.637C20.0737 45.9493 20.2136 46.2861 20.3101 46.6427H21.131C21.5444 46.6427 21.8807 46.9792 21.8807 47.3929V48.0596C21.8807 48.4731 21.5444 48.8096 21.131 48.8096H20.3101C20.2143 49.1657 20.0747 49.5024 19.8934 49.8157L20.4722 50.3945C20.6139 50.5333 20.6927 50.7219 20.6932 50.9236C20.6932 51.1253 20.6139 51.3139 20.47 51.4547L20.0004 51.9243C19.862 52.066 19.673 52.1451 19.4712 52.1451C19.27 52.1451 19.081 52.066 18.9404 51.9224L18.3621 51.3444C18.0462 51.5255 17.7051 51.6663 17.3572 51.7597V52.583C17.3572 52.9965 17.0204 53.333 16.607 53.333H15.9405ZM16.2756 46.0134C15.3302 46.0134 14.5611 46.7808 14.5611 47.7243C14.5611 48.6694 15.3302 49.4383 16.2756 49.4383C17.2188 49.4383 17.986 48.6693 17.986 47.7243C17.9862 46.7808 17.2188 46.0134 16.2756 46.0134Z" stroke="#7C4BAC" stroke-width="1.5" stroke-miterlimit="10" stroke-linecap="round" stroke-linejoin="round"/>
<path id="path4604" d="M47.3931 21.8808C46.9797 21.8808 46.6429 21.5443 46.6429 21.1309V20.3078C46.2935 20.2152 45.9572 20.076 45.638 19.8925L45.058 20.472C44.9196 20.6137 44.7306 20.6928 44.5289 20.6928C44.3276 20.6928 44.1386 20.6137 43.998 20.4701L43.5284 20.0005C43.3867 19.8616 43.3073 19.6731 43.3073 19.4713C43.3079 19.2696 43.3867 19.0811 43.5306 18.9403L44.1077 18.3626C43.9242 18.0434 43.7853 17.7069 43.6926 17.3574H42.8696C42.4562 17.3574 42.1194 17.0209 42.1194 16.6075V15.9407C42.1194 15.527 42.4562 15.1905 42.8696 15.1905H43.6931C43.7863 14.8432 43.9269 14.502 44.1082 14.1858L43.5283 13.6059C43.3866 13.467 43.3077 13.2784 43.3072 13.0767C43.3072 12.8747 43.3866 12.6862 43.5305 12.5453L43.9996 12.0759C44.1385 11.9339 44.327 11.8548 44.5287 11.8548C44.7311 11.8548 44.9195 11.9342 45.0602 12.0781L45.6373 12.6547C45.9509 12.4731 46.2878 12.3333 46.6428 12.2374V11.4169C46.6428 11.0035 46.9795 10.667 47.393 10.667H48.0595C48.4729 10.667 48.8097 11.0035 48.8097 11.4169V12.2378C49.1658 12.3341 49.5032 12.4737 49.8158 12.6548L50.3946 12.076C50.5335 11.9341 50.722 11.855 50.9237 11.855C51.1261 11.855 51.3145 11.9343 51.4552 12.0782L51.9248 12.5471C52.0665 12.6862 52.1459 12.8747 52.1459 13.0768C52.1454 13.2786 52.0665 13.4671 51.9226 13.6079L51.3455 14.1848C51.5264 14.4971 51.6663 14.8339 51.7628 15.1905H52.5836C52.9971 15.1905 53.3333 15.527 53.3333 15.9407V16.6075C53.3333 17.0209 52.9971 17.3574 52.5836 17.3574H51.7628C51.6669 17.7135 51.5274 18.0503 51.346 18.3635L51.9248 18.9423C52.0665 19.0812 52.1454 19.2697 52.1459 19.4715C52.1459 19.6732 52.0665 19.8617 51.9226 20.0025L51.453 20.4722C51.3146 20.6139 51.1256 20.693 50.9239 20.693C50.7226 20.693 50.5336 20.6139 50.393 20.4703L49.8147 19.8923C49.4988 20.0735 49.1577 20.2143 48.8098 20.3077V21.131C48.8098 21.5444 48.473 21.8809 48.0596 21.8809H47.3931V21.8808ZM47.7282 14.5614C46.7828 14.5614 46.0138 15.3288 46.0138 16.2722C46.0138 17.2174 46.7828 17.9863 47.7282 17.9863C48.6714 17.9863 49.4387 17.2173 49.4387 16.2722C49.4387 15.3286 48.6714 14.5614 47.7282 14.5614Z" stroke="#7C4BAC" stroke-width="1.5" stroke-miterlimit="10" stroke-linecap="round" stroke-linejoin="round"/>
<path id="path4606" d="M47.3931 53.333C46.9797 53.333 46.6429 52.9965 46.6429 52.583V51.76C46.2935 51.6673 45.9572 51.5282 45.638 51.3446L45.058 51.9242C44.9196 52.0659 44.7306 52.145 44.5289 52.145C44.3276 52.145 44.1386 52.0659 43.998 51.9223L43.5284 51.4526C43.3867 51.3138 43.3073 51.1252 43.3073 50.9235C43.3079 50.7218 43.3867 50.5332 43.5306 50.3924L44.1077 49.8148C43.9242 49.4955 43.7853 49.159 43.6926 48.8096H42.8696C42.4562 48.8096 42.1194 48.4731 42.1194 48.0596V47.3929C42.1194 46.9792 42.4562 46.6427 42.8696 46.6427H43.6931C43.7863 46.2954 43.9269 45.9541 44.1082 45.638L43.5283 45.058C43.3866 44.9191 43.3077 44.7306 43.3072 44.5289C43.3072 44.3269 43.3866 44.1383 43.5305 43.9974L43.9996 43.528C44.1385 43.3861 44.327 43.307 44.5287 43.307C44.7311 43.307 44.9195 43.3863 45.0602 43.5302L45.6373 44.1069C45.9509 43.9252 46.2878 43.7854 46.6428 43.6896V42.8691C46.6428 42.4557 46.9795 42.1191 47.393 42.1191H48.0595C48.4729 42.1191 48.8097 42.4557 48.8097 42.8691V43.69C49.1658 43.7861 49.5032 43.9259 49.8158 44.107L50.3946 43.5282C50.5335 43.3862 50.722 43.3071 50.9237 43.3071C51.1261 43.3071 51.3145 43.3865 51.4552 43.5303L51.9248 43.9992C52.0665 44.1383 52.1459 44.3269 52.1459 44.529C52.1454 44.7307 52.0665 44.9193 51.9226 45.0601L51.3455 45.637C51.5264 45.9493 51.6663 46.2861 51.7628 46.6427H52.5836C52.9971 46.6427 53.3333 46.9792 53.3333 47.3929V48.0596C53.3333 48.4731 52.9971 48.8096 52.5836 48.8096H51.7628C51.6669 49.1657 51.5274 49.5024 51.346 49.8157L51.9248 50.3945C52.0665 50.5333 52.1454 50.7219 52.1459 50.9236C52.1459 51.1253 52.0665 51.3139 51.9226 51.4547L51.453 51.9243C51.3146 52.066 51.1256 52.1451 50.9239 52.1451C50.7226 52.1451 50.5336 52.066 50.393 51.9224L49.8147 51.3444C49.4988 51.5255 49.1577 51.6663 48.8098 51.7597V52.583C48.8098 52.9965 48.473 53.333 48.0596 53.333H47.3931ZM47.7282 46.0134C46.7828 46.0134 46.0138 46.7808 46.0138 47.7243C46.0138 48.6694 46.7828 49.4383 47.7282 49.4383C48.6714 49.4383 49.4387 48.6693 49.4387 47.7243C49.4387 46.7808 48.6714 46.0134 47.7282 46.0134Z" stroke="#7C4BAC" stroke-width="1.5" stroke-miterlimit="10" stroke-linecap="round" stroke-linejoin="round"/>
<path id="line4608" d="M21.6501 21.4131L23.8887 23.6517" stroke="#7C4BAC" stroke-width="1.5" stroke-miterlimit="10" stroke-linecap="round" stroke-linejoin="round"/>
<path id="polyline4610" d="M23.889 22.3286V23.6515H22.5662" stroke="#7C4BAC" stroke-width="1.5" stroke-miterlimit="10" stroke-linecap="round" stroke-linejoin="round"/>
<path id="line4612" d="M42.3497 21.4131L40.1111 23.6517" stroke="#7C4BAC" stroke-width="1.5" stroke-miterlimit="10" stroke-linecap="round" stroke-linejoin="round"/>
<path id="polyline4614" d="M40.1111 22.3286V23.6515H41.434" stroke="#7C4BAC" stroke-width="1.5" stroke-miterlimit="10" stroke-linecap="round" stroke-linejoin="round"/>
<path id="line4616" d="M42.3497 42.5872L40.1111 40.3486" stroke="#7C4BAC" stroke-width="1.5" stroke-miterlimit="10" stroke-linecap="round" stroke-linejoin="round"/>
<path id="polyline4618" d="M40.1111 41.6715V40.3486H41.434" stroke="#7C4BAC" stroke-width="1.5" stroke-miterlimit="10" stroke-linecap="round" stroke-linejoin="round"/>
<path id="line4620" d="M21.6501 42.5872L23.8887 40.3486" stroke="#7C4BAC" stroke-width="1.5" stroke-miterlimit="10" stroke-linecap="round" stroke-linejoin="round"/>
<path id="polyline4622" d="M23.889 41.6715V40.3486H22.5662" stroke="#7C4BAC" stroke-width="1.5" stroke-miterlimit="10" stroke-linecap="round" stroke-linejoin="round"/>
</g>
</g>
</g>
</svg>
