<?xml version="1.0" encoding="UTF-8" standalone="no"?>
<!-- Generator: Adobe Illustrator 23.0.5, SVG Export Plug-In . SVG Version: 6.00 Build 0)  -->

<svg
   version="1.1"
   x="0px"
   y="0px"
   viewBox="0 0 106 106"
   xml:space="preserve"
   id="svg9593"
   sodipodi:docname="12 tacticts.svg"
   width="106"
   height="106"
   inkscape:version="1.2.2 (b0a84865, 2022-12-01)"
   xmlns:inkscape="http://www.inkscape.org/namespaces/inkscape"
   xmlns:sodipodi="http://sodipodi.sourceforge.net/DTD/sodipodi-0.dtd"
   xmlns="http://www.w3.org/2000/svg"
   xmlns:svg="http://www.w3.org/2000/svg"><defs
   id="defs9597" /><sodipodi:namedview
   id="namedview9595"
   pagecolor="#ffffff"
   bordercolor="#666666"
   borderopacity="1.0"
   inkscape:showpageshadow="2"
   inkscape:pageopacity="0.0"
   inkscape:pagecheckerboard="0"
   inkscape:deskcolor="#d1d1d1"
   showgrid="false"
   inkscape:zoom="0.4609375"
   inkscape:cx="-224.54237"
   inkscape:cy="61.830508"
   inkscape:window-width="1912"
   inkscape:window-height="901"
   inkscape:window-x="0"
   inkscape:window-y="25"
   inkscape:window-maximized="0"
   inkscape:current-layer="svg9593" />
<g
   id="_x31_2_tacticts"
   transform="matrix(0.212,0,0,0.212,-1.272,-1.272)"
   style="stroke-width:7.54716981;stroke-dasharray:none">
	<g
   id="g9589"
   style="stroke-width:7.54716981;stroke-dasharray:none">
		<path
   style="fill:#f2edf7;stroke-width:7.54716981;stroke-dasharray:none"
   d="M 506,142.795 V 369.206 C 506,444.755 444.755,506 369.205,506 H 142.795 C 67.245,506 6,444.755 6,369.205 V 142.795 C 6,67.245 67.245,6 142.795,6 H 369.206 C 444.755,6 506,67.245 506,142.795 Z"
   id="path9575" />
		<g
   id="g9587"
   style="stroke-width:7.54716981;stroke-dasharray:none">
			<path
   style="fill:#03c55c;stroke-width:7.54716981;stroke-dasharray:none"
   d="m 441.369,186.963 c 0,11.361 -9.222,20.583 -20.583,20.583 v 38.555 H 382.23 c 0,-11.389 -9.222,-20.583 -20.611,-20.583 -11.333,0 -20.583,9.194 -20.583,20.583 H 302.48 v -38.555 c -11.389,0 -20.583,-9.222 -20.583,-20.583 0,-11.389 9.194,-20.611 20.583,-20.611 v -38.555 h 38.555 c 0,-11.361 9.25,-20.583 20.583,-20.583 11.389,0 20.611,9.222 20.611,20.583 h 38.555 v 38.555 c 11.363,0 20.585,9.222 20.585,20.611 z"
   id="path9577" />
			
				<path
   style="fill:none;stroke:#7c4bac;stroke-width:7.54716981;stroke-linecap:round;stroke-linejoin:round;stroke-miterlimit:10;stroke-dasharray:none"
   d="m 422.667,169.083 c 0,11.361 -9.222,20.583 -20.583,20.583 v 38.555 h -38.555 c 0,-11.389 -9.222,-20.583 -20.611,-20.583 -11.333,0 -20.583,9.194 -20.583,20.583 h -38.556 v -38.555 c -11.389,0 -20.583,-9.222 -20.583,-20.583 0,-11.389 9.194,-20.611 20.583,-20.611 v -38.555 h 38.556 c 0,-11.361 9.25,-20.583 20.583,-20.583 11.389,0 20.611,9.222 20.611,20.583 h 38.555 v 38.555 c 11.36,0 20.583,9.222 20.583,20.611 z"
   id="path9579" />
			
				<path
   style="fill:none;stroke:#7c4bac;stroke-width:7.54716981;stroke-linecap:round;stroke-linejoin:round;stroke-miterlimit:10;stroke-dasharray:none"
   d="m 248.805,342.917 c 0,11.389 -9.194,20.611 -20.583,20.611 v 38.555 h -38.555 c 0,11.361 -9.25,20.583 -20.583,20.583 -11.389,0 -20.611,-9.222 -20.611,-20.583 h -38.555 v -38.555 c -11.361,0 -20.583,-9.222 -20.583,-20.611 0,-11.361 9.222,-20.583 20.583,-20.583 v -38.556 h 38.555 c 0,11.389 9.222,20.583 20.611,20.583 11.333,0 20.583,-9.194 20.583,-20.583 h 38.555 v 38.556 c 11.389,0 20.583,9.222 20.583,20.583 z"
   id="path9581" />
			
				<path
   style="fill:none;stroke:#7c4bac;stroke-width:7.54716981;stroke-linecap:round;stroke-linejoin:round;stroke-miterlimit:10;stroke-dasharray:none"
   d="m 367.111,342.917 c 0,11.389 -9.222,20.611 -20.583,20.611 v 38.555 h -38.555 c 0,11.361 -9.222,20.583 -20.611,20.583 -11.333,0 -20.583,-9.222 -20.583,-20.583 h -38.555 v -38.555 c 11.389,0 20.583,-9.222 20.583,-20.611 0,-11.361 -9.194,-20.583 -20.583,-20.583 v -38.556 h 38.555 c 0,-11.389 9.25,-20.583 20.583,-20.583 11.389,0 20.611,9.194 20.611,20.583 h 38.555 v 38.556 c 11.36,0 20.583,9.222 20.583,20.583 z"
   id="path9583" />
			
				<path
   style="fill:none;stroke:#7c4bac;stroke-width:7.54716981;stroke-linecap:round;stroke-linejoin:round;stroke-miterlimit:10;stroke-dasharray:none"
   d="m 207.639,224.639 c 0,11.361 9.194,20.583 20.583,20.583 v 38.555 h -38.555 c 0,11.389 -9.25,20.583 -20.583,20.583 -11.389,0 -20.611,-9.194 -20.611,-20.583 h -38.555 v -38.555 c -11.361,0 -20.583,-9.222 -20.583,-20.583 0,-11.389 9.222,-20.611 20.583,-20.611 v -38.555 h 38.555 c 0,-11.361 9.222,-20.583 20.611,-20.583 11.333,0 20.583,9.222 20.583,20.583 h 38.555 v 38.555 c -11.389,0 -20.583,9.222 -20.583,20.611 z"
   id="path9585" />
		</g>
	</g>
</g>
<g
   id="Layer_1"
   transform="translate(-203,-203)">
</g>
</svg>
