<svg width="53" height="51" viewBox="0 0 53 51" fill="none" xmlns="http://www.w3.org/2000/svg">
<g id="icon_critical environment 1" clip-path="url(#clip0_1484_687)">
<g id="_x31_4_critical_environment">
<g id="g164">
<path id="path132" d="M106.167 29.292V77.2912C106.167 93.3076 93.1835 106.292 77.1669 106.292H29.168C13.1514 106.292 0.16748 93.3076 0.16748 77.291V29.292C0.16748 13.2754 13.1514 0.291504 29.168 0.291504H77.1672C93.1835 0.291504 106.167 13.2754 106.167 29.292Z" fill="#F2EDF7"/>
<g id="g162">
<path id="path134" d="M63.9734 53.2973C63.9734 61.4186 57.3932 67.9988 49.2719 67.9988C41.1506 67.9988 34.5703 61.4186 34.5703 53.2973C34.5703 45.176 41.1506 38.5845 49.2719 38.5845C57.3932 38.5845 63.9734 45.176 63.9734 53.2973Z" fill="#03C55C"/>
<path id="path136" d="M60.4403 53.2914C60.4191 53.1572 60.4121 53.0158 60.4121 52.8744C60.4121 50.9522 61.9455 49.3764 63.8535 49.3198C63.606 44.7972 62.9137 40.5642 61.8888 36.84C59.4227 27.9006 54.9988 21.8516 49.932 21.569C49.8048 21.562 49.6846 21.562 49.5574 21.562C49.4302 21.562 49.31 21.562 49.1828 21.569C44.8156 21.8164 40.9218 26.3532 38.3566 33.335C39.89 33.7308 41.0136 35.1228 41.0136 36.7764C41.0136 37.0026 40.9924 37.2216 40.95 37.4336C40.6462 39.0802 39.1974 40.331 37.452 40.331C37.0986 40.331 36.7594 40.2816 36.4344 40.1826C35.6076 44.1752 35.1484 48.6202 35.1484 53.2912V53.2982C35.1484 59.312 35.9044 64.937 37.226 69.7282C39.6852 78.6322 44.0736 84.667 49.112 85.0064H49.119C49.2674 85.0134 49.4088 85.0206 49.5572 85.0206C49.7056 85.0206 49.847 85.0136 49.9954 85.0064H50.0024C55.041 84.6672 59.4364 78.6394 61.8956 69.7354C62.9838 65.7852 63.6906 61.2696 63.9026 56.4288C62.1078 56.4008 60.638 55.0368 60.4403 53.2914ZM49.5574 72.1664C47.6212 72.1664 46.0452 70.6188 46.0028 68.6966C45.9958 68.6684 45.9958 68.633 45.9958 68.6048C45.9958 66.6402 47.5928 65.0432 49.5574 65.0432C51.529 65.0432 53.119 66.6402 53.119 68.6048C53.119 68.633 53.119 68.6684 53.112 68.6966C53.0696 70.6188 51.5008 72.1664 49.5574 72.1664Z" stroke="#7C4BAC" stroke-width="1.5" stroke-miterlimit="10" stroke-linecap="round" stroke-linejoin="round"/>
<path id="path138" d="M73.8177 32.8474C70.6165 34.5716 66.5391 35.9496 61.8891 36.84C58.0943 37.5678 53.9321 37.9706 49.5576 37.9706H49.5507C46.5684 37.9706 43.6852 37.7868 40.9504 37.4336C40.9928 37.2216 41.014 37.0026 41.014 36.7764C41.014 35.1228 39.8904 33.7306 38.3571 33.335C38.0672 33.2572 37.7635 33.2148 37.4524 33.2148C35.714 33.2148 34.2655 34.4656 33.9544 36.1122C30.6542 35.2642 27.7216 34.1548 25.2979 32.8474C31.0361 26.0422 39.6009 21.675 49.1833 21.569C49.3105 21.562 49.4307 21.562 49.5579 21.562C49.6851 21.562 49.8053 21.562 49.9325 21.569C59.5147 21.675 68.0795 26.0422 73.8177 32.8474Z" stroke="#7C4BAC" stroke-width="1.5" stroke-miterlimit="10" stroke-linecap="round" stroke-linejoin="round"/>
<path id="polyline144" d="M49.5576 65.0432V53.2914V37.9708V21.562" stroke="#7C4BAC" stroke-width="1.5" stroke-miterlimit="10" stroke-linecap="round" stroke-linejoin="round"/>
<path id="path150" d="M80.1066 61.8774C80.8768 59.1568 81.2868 56.2736 81.2868 53.2984C81.2868 45.5038 78.4742 38.3666 73.8174 32.8474C68.0016 25.9504 59.2884 21.562 49.5576 21.562C39.8268 21.562 31.1136 25.9504 25.2978 32.8474C20.6481 38.3664 17.8354 45.5038 17.8354 53.2984C17.8354 61.0858 20.6338 68.2162 25.2978 73.7282C31.1066 80.6324 39.8198 85.0136 49.5576 85.0136C55.96 85.0136 61.9242 83.1198 66.9134 79.855" stroke="#7C4BAC" stroke-width="1.5" stroke-miterlimit="10" stroke-linecap="round" stroke-linejoin="round"/>
<path id="circle152" d="M37.4498 40.3343C39.4166 40.3343 41.011 38.7399 41.011 36.7731C41.011 34.8063 39.4166 33.2119 37.4498 33.2119C35.4831 33.2119 33.8887 34.8063 33.8887 36.7731C33.8887 38.7399 35.4831 40.3343 37.4498 40.3343Z" stroke="#7C4BAC" stroke-width="1.5" stroke-miterlimit="10" stroke-linecap="round" stroke-linejoin="round"/>
</g>
</g>
</g>
</g>
<defs>
<clipPath id="clip0_1484_687">
<rect width="106" height="106" fill="white" transform="translate(0.16748 0.291504)"/>
</clipPath>
</defs>
</svg>
