<?xml version="1.0" encoding="UTF-8" standalone="no"?>
<!-- Generator: Adobe Illustrator 23.0.5, SVG Export Plug-In . SVG Version: 6.00 Build 0)  -->

<svg
   version="1.1"
   id="Layer_1"
   x="0px"
   y="0px"
   viewBox="0 0 106 106"
   xml:space="preserve"
   sodipodi:docname="icon_itvsbio.svg"
   inkscape:version="1.2.2 (b0a84865, 2022-12-01)"
   width="106"
   height="106"
   xmlns:inkscape="http://www.inkscape.org/namespaces/inkscape"
   xmlns:sodipodi="http://sodipodi.sourceforge.net/DTD/sodipodi-0.dtd"
   xmlns="http://www.w3.org/2000/svg"
   xmlns:svg="http://www.w3.org/2000/svg"><defs
   id="defs79204">
	

		
		
		
	</defs><sodipodi:namedview
   id="namedview79202"
   pagecolor="#ffffff"
   bordercolor="#666666"
   borderopacity="1.0"
   inkscape:showpageshadow="2"
   inkscape:pageopacity="0.0"
   inkscape:pagecheckerboard="0"
   inkscape:deskcolor="#d1d1d1"
   showgrid="false"
   inkscape:zoom="4.0668476"
   inkscape:cx="34.055862"
   inkscape:cy="77.086735"
   inkscape:window-width="2193"
   inkscape:window-height="983"
   inkscape:window-x="109"
   inkscape:window-y="480"
   inkscape:window-maximized="0"
   inkscape:current-layer="Layer_1" />
<path
   style="fill:#f2edf7;stroke-width:1.5;stroke-dasharray:none"
   d="M 106,29.00054 V 76.99967 C 106,93.01606 93.01606,106 76.99946,106 H 29.00054 C 12.98394,106 0,93.01606 0,76.99946 V 29.00054 C 0,12.98394 12.98394,0 29.00054,0 H 76.99967 C 93.01606,0 106,12.98394 106,29.00054 Z"
   id="path79156" /><g
   id="g20707"
   transform="translate(-205.15632,-199.40664)"><g
     id="g20694"
     transform="translate(-96.143264,-13.769879)"
     style="stroke:#7c4bac;stroke-opacity:1"><path
       style="fill:none;stroke:#7c4bac;stroke-width:1.5;stroke-linecap:round;stroke-linejoin:round;stroke-miterlimit:10;stroke-dasharray:none;stroke-opacity:1"
       d="m 340.63348,284.5455 v 3.98412 c 0,1.58429 1.28719,2.86865 2.87498,2.86865 h 35.16395 c 1.58778,0 2.87498,-1.28436 2.87498,-2.86865 v -3.98412 z"
       id="path12251" /><polygon
       style="fill:none;stroke:#7c4bac;stroke-width:12.2342;stroke-linecap:round;stroke-linejoin:round;stroke-miterlimit:10;stroke-dasharray:none;stroke-opacity:1"
       points="279.319,352.588 232.681,352.588 200.909,401.47 311.091,401.47 "
       id="polygon12253"
       transform="matrix(0.12274184,0,0,0.1224715,329.66858,248.21642)" /><line
       style="fill:none;stroke:#7c4bac;stroke-width:1.5;stroke-linecap:round;stroke-linejoin:round;stroke-miterlimit:10;stroke-dasharray:none;stroke-opacity:1"
       x1="351.38409"
       y1="297.38504"
       x2="370.79694"
       y2="297.38504"
       id="line12255" /><line
       style="fill:none;stroke:#7c4bac;stroke-width:1.5;stroke-linecap:round;stroke-linejoin:round;stroke-miterlimit:10;stroke-dasharray:none;stroke-opacity:1"
       x1="360.13617"
       y1="287.97189"
       x2="362.0448"
       y2="287.97189"
       id="line12257" /><path
       style="fill:none;stroke:#7c4bac;stroke-width:1.5;stroke-linecap:round;stroke-linejoin:round;stroke-miterlimit:10;stroke-dasharray:none;stroke-opacity:1"
       d="m 346.44702,265.92787 c 0,0.55921 -0.45242,1.01052 -1.01789,1.01052 -0.56044,0 -1.01287,-0.45144 -1.01287,-1.01052 0,-0.55908 0.45243,-1.01565 1.01287,-1.01565 0.56547,0 1.01789,0.45657 1.01789,1.01565 z"
       id="path12259" /><path
       style="fill:none;stroke:#7c4bac;stroke-width:1.5;stroke-linecap:round;stroke-linejoin:round;stroke-miterlimit:10;stroke-dasharray:none;stroke-opacity:1"
       d="m 350.37452,265.92787 c 0,0.55921 -0.45243,1.01052 -1.0179,1.01052 -0.56044,0 -1.01287,-0.45144 -1.01287,-1.01052 0,-0.55908 0.45243,-1.01565 1.01287,-1.01565 0.56547,0 1.0179,0.45657 1.0179,1.01565 z"
       id="path12261" /><path
       style="fill:none;stroke:#7c4bac;stroke-width:1.5;stroke-linecap:round;stroke-linejoin:round;stroke-miterlimit:10;stroke-dasharray:none;stroke-opacity:1"
       d="m 354.30189,265.92787 c 0,0.55921 -0.45243,1.01052 -1.0179,1.01052 -0.56044,0 -1.01287,-0.45144 -1.01287,-1.01052 0,-0.55908 0.45243,-1.01565 1.01287,-1.01565 0.56547,0 1.0179,0.45657 1.0179,1.01565 z"
       id="path12263" /><path
       style="fill:none;stroke:#7c4bac;stroke-width:1.5;stroke-linecap:round;stroke-linejoin:round;stroke-miterlimit:10;stroke-dasharray:none;stroke-opacity:1"
       d="m 381.54751,264.62318 v 19.92195 h -40.91403 v -19.92195 c 0,-1.58809 1.28879,-2.86987 2.87621,-2.86987 h 35.16136 c 1.58767,-1.2e-4 2.87646,1.28178 2.87646,2.86987 z"
       id="path12265" /></g><path
     style="fill:#03c55c;stroke:none;stroke-width:1.5;stroke-dasharray:none;stroke-opacity:1"
     d="m 281.58564,259.44226 c 0,5.3123 -4.30487,9.61696 -9.61717,9.61696 -5.31229,0 -9.60911,-4.30488 -9.60911,-9.61696 0,-5.31208 4.29703,-9.61696 9.60911,-9.61696 5.3123,0 9.61717,4.30488 9.61717,9.61696 z"
     id="path79158" /><path
     class="cls-4"
     d="m 234.07965,255.69181 c -0.49254,2.21186 -0.94189,6.4597 -0.6689,8.69271 -0.5871,2.00199 -2.54651,0.18787 -2.08809,-1.22372 -0.57386,-5.03974 1.13672,-10.12984 4.16876,-14.1129 1.06915,-1.46196 2.86112,-3.68445 4.09179,-5.00873 0.75634,0.75207 2.08731,1.54255 -0.0551,3.14987 -2.22341,2.51365 -4.30993,5.28616 -5.44447,8.49237 m 11.00734,-7.10091 c -1.61175,0.81827 -2.36651,-1.65062 -3.52813,-2.40711 -3.85675,-4.00737 -8.41193,-7.85435 -10.08112,-13.39299 -1.1049,-3.63374 -0.51182,-7.60675 0.95705,-11.04327 1.2081,-1.35997 2.37879,0.77835 1.37566,1.79758 -1.44729,3.82601 -1.30664,8.32055 0.90498,11.82586 2.74953,4.56634 7.03627,7.85789 10.45879,11.86518 0.34239,0.37865 0.29845,1.02621 -0.0872,1.35475 z m 0.53583,-11.07289 c -1.62763,-0.004 -3.25925,0.0648 -4.88434,0.0167 -1.52473,-0.47091 -0.40639,-2.35469 0.85463,-1.93563 1.77199,10e-4 3.54766,-0.07 5.31737,-0.0231 0.42601,-0.96589 1.75337,-2.83767 1.2072,-3.47431 -2.91026,0.008 -5.82514,0.0938 -8.73246,0.0541 -1.47224,-0.4236 -0.49408,-2.3431 0.75774,-1.93722 l 8.63253,-0.0826 c 0.0136,-1.07529 0.27124,-2.69002 -0.31255,-3.42912 -3.91765,0.0211 -7.83809,0.10331 -11.754,0.0863 -1.54208,-0.47091 -0.39817,-2.37406 0.85092,-1.94819 l 10.64657,-0.0987 c -0.33741,-1.11479 -1.77476,-3.70987 0.42589,-3.5306 1.23373,1.05004 1.3311,3.012 1.80447,4.51529 0.97842,4.22085 -0.23702,8.69038 -2.71593,12.15681 -1.39658,2.03115 -3.71427,4.50647 -5.40861,6.28458 -0.86724,-0.79234 -1.38171,-1.83296 -1.38171,-1.83296 1.08454,-1.15026 3.48657,-3.11548 4.45555,-4.34175 z"
     id="path53972"
     style="mix-blend-mode:multiply;fill:none;fill-rule:evenodd;stroke:#7c4bac;stroke-width:1.5;stroke-dasharray:none;stroke-opacity:1"
     sodipodi:nodetypes="ccccccccccccccccccccccccccccccccccc" /></g>
</svg>
