<svg width="64" height="64" viewBox="0 0 64 64" fill="none" xmlns="http://www.w3.org/2000/svg">
<g id="16 industry" clip-path="url(#clip0_797_1697)">
<g id="_x31_6_industry">
<g id="Group">
<path id="Vector" d="M63.25 17.8494V46.1507C63.25 55.5944 55.5944 63.25 46.1506 63.25H17.8494C8.40562 63.25 0.75 55.5944 0.75 46.1506V17.8494C0.75 8.40562 8.40562 0.75 17.8494 0.75H46.1507C55.5944 0.75 63.25 8.40562 63.25 17.8494Z" fill="#F2EDF7"/>
<g id="Group_2">
<path id="Vector_2" d="M40.7875 31.5752H27.0068V45.3558H40.7875V31.5752Z" fill="#02C55C"/>
<path id="Vector_3" d="M25.4648 14.7718V13.2826C25.4648 12.1139 26.4122 11.1665 27.581 11.1665H32.1362C33.305 11.1665 34.2523 12.1139 34.2523 13.2826V35.1309" stroke="#7C4BAC" stroke-miterlimit="10" stroke-linecap="round" stroke-linejoin="round"/>
<path id="Vector_4" d="M21.4985 42.2529V49.7464" stroke="#7C4BAC" stroke-miterlimit="10" stroke-linecap="round" stroke-linejoin="round"/>
<path id="Vector_5" d="M25.4648 42.2529V49.7464" stroke="#7C4BAC" stroke-miterlimit="10" stroke-linecap="round" stroke-linejoin="round"/>
<path id="Vector_6" d="M29.4316 42.2529V49.7464" stroke="#7C4BAC" stroke-miterlimit="10" stroke-linecap="round" stroke-linejoin="round"/>
<path id="Vector_7" d="M34.2521 39.1665H16.6772V52.8335H34.2521V39.1665Z" stroke="#7C4BAC" stroke-miterlimit="10" stroke-linecap="round" stroke-linejoin="round"/>
<path id="Vector_8" d="M47.3224 43.2876H34.2524V52.8332H47.3224V43.2876Z" stroke="#7C4BAC" stroke-miterlimit="10" stroke-linecap="round" stroke-linejoin="round"/>
<path id="Vector_9" d="M44.5499 46H37.0249V52.8335H44.5499V46Z" stroke="#7C4BAC" stroke-miterlimit="10" stroke-linecap="round" stroke-linejoin="round"/>
<path id="Vector_10" d="M40.7876 52.8335V46" stroke="#7C4BAC" stroke-miterlimit="10" stroke-linecap="round" stroke-linejoin="round"/>
<path id="Vector_11" d="M45.5233 46H36.0513" stroke="#7C4BAC" stroke-miterlimit="10" stroke-linecap="round" stroke-linejoin="round"/>
<path id="Vector_12" d="M43.435 22.5557H38.1396V43.2877H43.435V22.5557Z" stroke="#7C4BAC" stroke-miterlimit="10" stroke-linecap="round" stroke-linejoin="round"/>
<path id="Vector_13" d="M37.21 22.5557H44.3648" stroke="#7C4BAC" stroke-miterlimit="10" stroke-linecap="round" stroke-linejoin="round"/>
<path id="Vector_14" d="M36.5141 38.137V36.16C36.5141 35.5916 36.0534 35.1309 35.485 35.1309H15.4451C14.8768 35.1309 14.416 35.5916 14.416 36.16V38.137C14.416 38.7054 14.8768 39.1661 15.4451 39.1661H35.485C36.0534 39.1661 36.5141 38.7054 36.5141 38.137Z" stroke="#7C4BAC" stroke-miterlimit="10" stroke-linecap="round" stroke-linejoin="round"/>
<path id="Vector_15" d="M30.0413 19.3485V35.1311H20.8882V19.3485C20.8882 16.8208 22.9372 14.772 25.4647 14.772C27.9923 14.7718 30.0413 16.8208 30.0413 19.3485Z" stroke="#7C4BAC" stroke-miterlimit="10" stroke-linecap="round" stroke-linejoin="round"/>
<path id="Vector_16" d="M14.0591 52.8335H49.9408" stroke="#7C4BAC" stroke-miterlimit="10" stroke-linecap="round" stroke-linejoin="round"/>
<g id="Group_3">
<path id="Vector_17" d="M36.8428 17.3236C38.2271 15.9392 40.1271 15.5889 41.0805 16.5422C42.0339 17.4956 41.681 19.3931 40.2966 20.7774" stroke="#7C4BAC" stroke-miterlimit="10" stroke-linecap="round" stroke-linejoin="round"/>
<path id="Vector_18" d="M45.3121 15.7623C43.9278 17.1465 42.0339 17.4958 41.0806 16.5424C40.1272 15.589 40.4738 13.6927 41.8582 12.3084C43.2426 10.924 45.1426 10.5738 46.0959 11.527C47.0492 12.4804 46.6964 14.3779 45.3121 15.7623Z" stroke="#7C4BAC" stroke-miterlimit="10" stroke-linecap="round" stroke-linejoin="round"/>
<path id="Vector_19" d="M50.3272 10.7468C48.9429 12.1311 47.0491 12.4803 46.0957 11.527C45.1423 10.5736 45.489 8.67722 46.8733 7.29297" stroke="#7C4BAC" stroke-miterlimit="10" stroke-linecap="round" stroke-linejoin="round"/>
<g id="Group_4">
<path id="Vector_20" d="M46.126 14.6981L42.9219 11.4941" stroke="#7C4BAC" stroke-miterlimit="10" stroke-linecap="round" stroke-linejoin="round"/>
<path id="Vector_21" d="M44.2525 16.5718L41.0483 13.3677" stroke="#7C4BAC" stroke-miterlimit="10" stroke-linecap="round" stroke-linejoin="round"/>
</g>
<path id="Vector_22" d="M45.978 8.51123L49.1094 11.6425" stroke="#7C4BAC" stroke-miterlimit="10" stroke-linecap="round" stroke-linejoin="round"/>
<path id="Vector_23" d="M38.1191 16.3706L41.2505 19.502" stroke="#7C4BAC" stroke-miterlimit="10" stroke-linecap="round" stroke-linejoin="round"/>
</g>
</g>
</g>
</g>
</g>
<defs>
<clipPath id="clip0_797_1697">
<rect width="64" height="64" fill="white"/>
</clipPath>
</defs>
</svg>
