<svg width="97" height="96" viewBox="0 0 97 96" fill="none" xmlns="http://www.w3.org/2000/svg">
<g id="vuesax/linear/clipboard-text">
<g id="clipboard-text">
<path id="Vector" d="M32.5 48.8H60.5" stroke="white" stroke-width="4" stroke-miterlimit="10" stroke-linecap="round" stroke-linejoin="round"/>
<path id="Vector_2" d="M32.5 64.8H50.02" stroke="white" stroke-width="4" stroke-miterlimit="10" stroke-linecap="round" stroke-linejoin="round"/>
<path id="Vector_3" d="M40.5 24H56.5C64.5 24 64.5 20 64.5 16C64.5 8 60.5 8 56.5 8H40.5C36.5 8 32.5 8 32.5 16C32.5 24 36.5 24 40.5 24Z" stroke="white" stroke-width="4" stroke-miterlimit="10" stroke-linecap="round" stroke-linejoin="round"/>
<path id="Vector_4" d="M64.5 16.08C77.82 16.8 84.5 21.72 84.5 40V64C84.5 80 80.5 88 60.5 88H36.5C16.5 88 12.5 80 12.5 64V40C12.5 21.76 19.18 16.8 32.5 16.08" stroke="white" stroke-width="4" stroke-miterlimit="10" stroke-linecap="round" stroke-linejoin="round"/>
</g>
</g>
</svg>
