<?xml version="1.0" encoding="UTF-8" standalone="no"?>
<!-- Generator: Adobe Illustrator 23.0.5, SVG Export Plug-In . SVG Version: 6.00 Build 0)  -->

<svg
   version="1.1"
   x="0px"
   y="0px"
   viewBox="0 0 106 106"
   xml:space="preserve"
   id="svg14008"
   sodipodi:docname="19 knowledge.svg"
   width="106"
   height="106"
   inkscape:version="1.2.2 (b0a84865, 2022-12-01)"
   xmlns:inkscape="http://www.inkscape.org/namespaces/inkscape"
   xmlns:sodipodi="http://sodipodi.sourceforge.net/DTD/sodipodi-0.dtd"
   xmlns="http://www.w3.org/2000/svg"
   xmlns:svg="http://www.w3.org/2000/svg"><defs
   id="defs14012" /><sodipodi:namedview
   id="namedview14010"
   pagecolor="#ffffff"
   bordercolor="#666666"
   borderopacity="1.0"
   inkscape:showpageshadow="2"
   inkscape:pageopacity="0.0"
   inkscape:pagecheckerboard="0"
   inkscape:deskcolor="#d1d1d1"
   showgrid="false"
   inkscape:zoom="0.4609375"
   inkscape:cx="52.067797"
   inkscape:cy="56.40678"
   inkscape:window-width="1919"
   inkscape:window-height="1106"
   inkscape:window-x="0"
   inkscape:window-y="25"
   inkscape:window-maximized="0"
   inkscape:current-layer="svg14008" />
<g
   id="_x31_9_knowledge"
   transform="matrix(0.212,0,0,0.212,-1.272,-1.272)"
   style="stroke-width:7.07547;stroke-dasharray:none">
	<g
   id="g14004"
   style="stroke-width:7.07547;stroke-dasharray:none">
		<path
   style="fill:#f2edf7;stroke-width:7.07547;stroke-dasharray:none"
   d="M 506,142.795 V 369.206 C 506,444.755 444.755,506 369.205,506 H 142.795 C 67.245,506 6,444.755 6,369.205 V 142.795 C 6,67.245 67.245,6 142.795,6 H 369.206 C 444.755,6 506,67.245 506,142.795 Z"
   id="path13984" />
		<g
   id="g14002"
   style="stroke-width:7.07547;stroke-dasharray:none">
			<path
   style="fill:#03c55c;stroke-width:7.07547;stroke-dasharray:none"
   d="m 310.259,274.02 c 0,8.79 -7.136,15.926 -15.926,15.926 v 29.832 h -29.832 c 0,-8.812 -7.136,-15.926 -15.947,-15.926 -8.769,0 -15.926,7.114 -15.926,15.926 h -29.832 v -29.832 c -8.812,0 -15.926,-7.136 -15.926,-15.926 0,-8.812 7.114,-15.947 15.926,-15.947 v -29.832 h 29.832 c 0,-8.79 7.157,-15.926 15.926,-15.926 8.812,0 15.947,7.136 15.947,15.926 h 29.832 v 29.832 c 8.79,0 15.926,7.136 15.926,15.947 z"
   id="path13986" />
			
				<path
   style="fill:none;stroke:#7c4bac;stroke-width:7.07547;stroke-linecap:round;stroke-linejoin:round;stroke-miterlimit:10;stroke-dasharray:none"
   d="m 320.048,196.808 c 11.933,17.333 18.9,38.367 18.9,61 v 8.567 c 0,32.467 -14.6,63.2 -39.8,83.667 l -24.333,19.833 v 48.467 h -87.5 v -48.467 l -22.367,7.367 c -20.567,6.8 -41.767,-8.533 -41.767,-30.233 v -15.467 h -12.767 c -6.067,0 -9.867,-6.533 -6.867,-11.8 l 19.633,-34.367 v -25.4 c 0,-59.033 46.5,-108.767 105.5,-110.067 25.467,-0.533 48.967,7.767 67.667,22"
   id="path13988" />
			
				<path
   style="fill:none;stroke:#7c4bac;stroke-width:7.07547;stroke-linecap:round;stroke-linejoin:round;stroke-miterlimit:10;stroke-dasharray:none"
   d="m 295.54,259.302 c 0,8.79 -7.136,15.926 -15.926,15.926 v 29.832 h -29.832 c 0,-8.812 -7.136,-15.926 -15.947,-15.926 -8.769,0 -15.926,7.114 -15.926,15.926 h -29.832 v -29.832 c -8.812,0 -15.926,-7.136 -15.926,-15.926 0,-8.812 7.114,-15.947 15.926,-15.947 v -29.832 h 29.832 c 0,-8.79 7.157,-15.926 15.926,-15.926 8.812,0 15.947,7.136 15.947,15.926 h 29.832 v 29.832 c 8.79,-10e-4 15.926,7.135 15.926,15.947 z"
   id="path13990" />
			
				<path
   style="fill:none;stroke:#7c4bac;stroke-width:7.07547;stroke-linecap:round;stroke-linejoin:round;stroke-miterlimit:10;stroke-dasharray:none"
   d="m 371.952,151.038 c 0,8.79 7.114,15.926 15.926,15.926 v 29.832 h -29.832 c 0,8.812 -7.157,15.926 -15.926,15.926 -8.812,0 -15.947,-7.114 -15.947,-15.926 h -29.832 v -29.832 c -8.79,0 -15.926,-7.136 -15.926,-15.926 0,-8.812 7.136,-15.947 15.926,-15.947 v -29.832 h 29.832 c 0,-8.79 7.135,-15.926 15.947,-15.926 8.769,0 15.926,7.136 15.926,15.926 h 29.832 v 29.832 c -8.812,0 -15.926,7.135 -15.926,15.947 z"
   id="path13992" />
			
				<path
   style="fill:none;stroke:#7c4bac;stroke-width:7.07547;stroke-linecap:round;stroke-linejoin:round;stroke-miterlimit:10;stroke-dasharray:none"
   d="m 233.834,260.074 v -8 c 5.638,0 10.185,-4.547 10.185,-10.162 0,-5.615 -4.547,-10.162 -10.185,-10.162 -5.615,0 -10.162,4.547 -10.162,10.162"
   id="path13994" />
			
				<path
   style="fill:none;stroke:#7c4bac;stroke-width:7.07547;stroke-linecap:round;stroke-linejoin:round;stroke-miterlimit:10;stroke-dasharray:none"
   d="m 234.045,270.907 c 0,0 -0.898,-0.899 0,0"
   id="path13996" />
			
				<polyline
   style="fill:none;stroke:#7c4bac;stroke-width:7.07547;stroke-linecap:round;stroke-linejoin:round;stroke-miterlimit:10;stroke-dasharray:none"
   points="     321.787,154.377 330.241,162.831 353.848,139.224    "
   id="polyline13998" />
			
				<path
   style="fill:none;stroke:#7c4bac;stroke-width:7.07547;stroke-linecap:round;stroke-linejoin:round;stroke-miterlimit:10;stroke-dasharray:none"
   d="m 393.483,406.638 c -4.731,4.731 -12.393,4.731 -17.113,0.012 l -16.017,16.017 -16.017,-16.017 c -4.72,4.72 -12.382,4.72 -17.113,-0.011 -4.708,-4.708 -4.72,-12.382 0,-17.102 l -16.017,-16.017 16.017,-16.017 c 4.731,4.731 12.382,4.72 17.113,-0.011 4.72,-4.72 4.731,-12.37 0,-17.101 l 16.017,-16.017 16.017,16.017 c 4.731,-4.731 12.393,-4.708 17.101,0 4.731,4.731 4.743,12.382 0.011,17.113 l 16.018,16.016 -16.017,16.017 c 4.72,4.72 4.72,12.382 0,17.101 z"
   id="path14000" />
		</g>
	</g>
</g>
<g
   id="Layer_1"
   transform="translate(-203,-203)">
</g>
</svg>
