<svg width="96" height="96" viewBox="0 0 96 96" fill="none" xmlns="http://www.w3.org/2000/svg">
<g id="vuesax/linear/story">
<g id="story">
<g id="Group">
<path id="Vector" d="M65.6801 31.8C75.4401 41.56 75.4401 57.3998 65.6801 67.1598C55.9201 76.9198 40.08 76.9198 30.32 67.1598C20.56 57.3998 20.56 41.56 30.32 31.8C40.08 22.04 55.9201 22.04 65.6801 31.8Z" stroke="white" stroke-width="4" stroke-linecap="round" stroke-linejoin="round"/>
<path id="Vector_2" d="M33 86.5601C25 83.3601 18 77.56 13.36 69.52C8.79996 61.64 7.27996 52.88 8.35996 44.52" stroke="white" stroke-width="4" stroke-linecap="round" stroke-linejoin="round"/>
<path id="Vector_3" d="M23.4004 17.9199C30.2004 12.5999 38.7204 9.43994 48.0004 9.43994C57.0804 9.43994 65.4404 12.5199 72.1604 17.6399" stroke="white" stroke-width="4" stroke-linecap="round" stroke-linejoin="round"/>
<path id="Vector_4" d="M63 86.5601C71 83.3601 78 77.56 82.64 69.52C87.2 61.64 88.72 52.88 87.64 44.52" stroke="white" stroke-width="4" stroke-linecap="round" stroke-linejoin="round"/>
</g>
</g>
</g>
</svg>
