<?xml version="1.0" encoding="UTF-8" standalone="no"?>
<!-- Generator: Adobe Illustrator 23.0.5, SVG Export Plug-In . SVG Version: 6.00 Build 0)  -->

<svg
   version="1.1"
   x="0px"
   y="0px"
   viewBox="0 0 106 106"
   xml:space="preserve"
   id="svg28136"
   sodipodi:docname="20 priority support.svg"
   width="106"
   height="106"
   inkscape:version="1.2.2 (b0a84865, 2022-12-01)"
   xmlns:inkscape="http://www.inkscape.org/namespaces/inkscape"
   xmlns:sodipodi="http://sodipodi.sourceforge.net/DTD/sodipodi-0.dtd"
   xmlns="http://www.w3.org/2000/svg"
   xmlns:svg="http://www.w3.org/2000/svg"><defs
   id="defs28140" /><sodipodi:namedview
   id="namedview28138"
   pagecolor="#ffffff"
   bordercolor="#666666"
   borderopacity="1.0"
   inkscape:showpageshadow="2"
   inkscape:pageopacity="0.0"
   inkscape:pagecheckerboard="0"
   inkscape:deskcolor="#d1d1d1"
   showgrid="false"
   inkscape:zoom="3.2358648"
   inkscape:cx="100.28231"
   inkscape:cy="37.084367"
   inkscape:window-width="2096"
   inkscape:window-height="1114"
   inkscape:window-x="0"
   inkscape:window-y="25"
   inkscape:window-maximized="0"
   inkscape:current-layer="svg28136" />
<g
   id="_x32_0_priority_support"
   style="stroke-width:7.54717;stroke-dasharray:none"
   transform="matrix(0.212,0,0,0.212,-1.272,-1.272)">
	<g
   id="g28132"
   style="stroke-width:7.54717;stroke-dasharray:none">
		<path
   style="fill:#f2edf7;stroke-width:7.54717;stroke-dasharray:none"
   d="M 506,142.795 V 369.206 C 506,444.755 444.755,506 369.205,506 H 142.795 C 67.245,506 6,444.755 6,369.205 V 142.795 C 6,67.245 67.245,6 142.795,6 H 369.206 C 444.755,6 506,67.245 506,142.795 Z"
   id="path28114" />
		<g
   id="g28130"
   style="stroke-width:7.54717;stroke-dasharray:none">
			<path
   style="fill:#03c55c;stroke-width:7.54717;stroke-dasharray:none"
   d="m 358.568,207.537 c 0,37.973 -30.761,68.734 -68.704,68.734 -37.973,0 -68.734,-30.761 -68.734,-68.734 0,-37.943 30.761,-68.704 68.734,-68.704 20.193,0 38.326,8.713 50.895,22.578 l 9.508,13.364 v 0.029 c 5.298,9.714 8.301,20.9 8.301,32.733 z"
   id="path28116" />
			
				<path
   style="fill:none;stroke:#7c4bac;stroke-width:7.54717;stroke-linecap:round;stroke-linejoin:round;stroke-miterlimit:10;stroke-dasharray:none"
   d="m 183.373,405.898 -8.738,-42.29 -34.702,-21.808 c -13.838,-8.697 -24.066,-22.104 -28.797,-37.748 L 89.873,233.737 c -2.154,-7.14 2.352,-14.573 9.679,-15.965 l 0.443,-0.084 c 9.113,-1.731 18.13,3.431 21.25,12.167 l 20.831,56.225"
   id="path28118" />
			
				<path
   style="fill:none;stroke:#7c4bac;stroke-width:7.54717;stroke-linecap:round;stroke-linejoin:round;stroke-miterlimit:10;stroke-dasharray:none"
   d="m 183.373,316.114 -38.192,-24.803 c -4.504,-2.925 -4.015,-9.668 0.864,-11.913 v 0 c 10.53,-4.845 22.798,-4.02 32.585,2.19 l 40.809,25.897 c 14.105,8.951 22.651,24.496 22.651,41.202 v 57.211"
   id="path28120" />
			
				<path
   style="fill:none;stroke:#7c4bac;stroke-width:7.54717;stroke-linecap:round;stroke-linejoin:round;stroke-miterlimit:10;stroke-dasharray:none"
   d="m 328.627,405.898 8.738,-42.29 34.702,-21.809 c 13.838,-8.697 24.066,-22.104 28.797,-37.748 l 21.263,-70.315 c 2.154,-7.14 -2.352,-14.573 -9.679,-15.965 l -0.443,-0.084 c -9.113,-1.731 -18.13,3.431 -21.25,12.167 l -20.831,56.225"
   id="path28122" />
			
				<path
   style="fill:none;stroke:#7c4bac;stroke-width:7.54717;stroke-linecap:round;stroke-linejoin:round;stroke-miterlimit:10;stroke-dasharray:none"
   d="m 328.627,316.114 38.192,-24.803 c 4.504,-2.925 4.015,-9.668 -0.864,-11.913 v 0 c -10.53,-4.845 -22.798,-4.02 -32.585,2.19 l -40.809,25.897 c -14.105,8.951 -22.652,24.496 -22.652,41.202 v 57.211"
   id="path28124" />
			
				<path
   style="fill:none;stroke:#7c4bac;stroke-width:7.54717;stroke-linecap:round;stroke-linejoin:round;stroke-miterlimit:10;stroke-dasharray:none"
   d="m 324.413,146.802 v 0.033 c 6,11 9.4,23.667 9.4,37.067 0,43 -34.833,77.833 -77.8,77.833 -43,0 -77.833,-34.833 -77.833,-77.833 0,-42.967 34.833,-77.8 77.833,-77.8 22.867,0 43.4,9.867 57.633,25.567"
   id="path28126" />
			
				<path
   style="fill:none;stroke:#7c4bac;stroke-width:7.54717;stroke-linecap:round;stroke-linejoin:round;stroke-miterlimit:10;stroke-dasharray:none"
   d="m 247.581,210.695 -26.952,-26.954 c -3.572,-3.573 -3.572,-9.364 0,-12.937 v 0 c 3.572,-3.572 9.364,-3.572 12.937,0 l 20.484,20.481 67.843,-67.843 c 3.572,-3.572 9.365,-3.572 12.937,0 v 0 c 3.572,3.572 3.573,9.364 0,12.937 l -74.312,74.317 c -3.572,3.571 -9.365,3.571 -12.937,-0.001 z"
   id="path28128" />
		</g>
	</g>
</g>
<g
   id="Layer_1"
   transform="translate(-203,-203)">
</g>
</svg>
