<?xml version="1.0" encoding="UTF-8" standalone="no"?>
<!-- Generator: Adobe Illustrator 23.0.5, SVG Export Plug-In . SVG Version: 6.00 Build 0)  -->

<svg
   version="1.1"
   x="0px"
   y="0px"
   viewBox="0 0 106 106"
   xml:space="preserve"
   id="svg22161"
   sodipodi:docname="08 focus.svg"
   width="106"
   height="106"
   inkscape:version="1.2.2 (b0a84865, 2022-12-01)"
   xmlns:inkscape="http://www.inkscape.org/namespaces/inkscape"
   xmlns:sodipodi="http://sodipodi.sourceforge.net/DTD/sodipodi-0.dtd"
   xmlns="http://www.w3.org/2000/svg"
   xmlns:svg="http://www.w3.org/2000/svg"><defs
   id="defs22165" /><sodipodi:namedview
   id="namedview22163"
   pagecolor="#ffffff"
   bordercolor="#666666"
   borderopacity="1.0"
   inkscape:showpageshadow="2"
   inkscape:pageopacity="0.0"
   inkscape:pagecheckerboard="0"
   inkscape:deskcolor="#d1d1d1"
   showgrid="false"
   inkscape:zoom="0.4609375"
   inkscape:cx="-231.05085"
   inkscape:cy="68.338983"
   inkscape:window-width="1930"
   inkscape:window-height="941"
   inkscape:window-x="0"
   inkscape:window-y="25"
   inkscape:window-maximized="0"
   inkscape:current-layer="svg22161" />
<g
   id="_x30_8_focus"
   transform="matrix(0.212,0,0,0.212,-1.272,-1.272)"
   style="stroke-width:7.0754717;stroke-dasharray:none">
	<g
   id="g22157"
   style="stroke-width:7.0754717;stroke-dasharray:none">
		<path
   style="fill:#f2edf7;stroke-width:7.0754717;stroke-dasharray:none"
   d="M 506,142.795 V 369.206 C 506,444.755 444.755,506 369.205,506 H 142.795 C 67.245,506 6,444.755 6,369.205 V 142.795 C 6,67.245 67.245,6 142.795,6 H 369.206 C 444.755,6 506,67.245 506,142.795 Z"
   id="path22137" />
		<g
   id="g22155"
   style="stroke-width:7.0754717;stroke-dasharray:none">
			<circle
   style="fill:#03c55c;stroke-width:7.0754717;stroke-dasharray:none"
   cx="284.302"
   cy="321.72699"
   r="79.206001"
   id="circle22139" />
			
				<path
   style="fill:none;stroke:#7c4bac;stroke-width:7.0754717;stroke-linecap:round;stroke-linejoin:round;stroke-miterlimit:10;stroke-dasharray:none"
   d="m 385.25,274.456 c 0,81.845 -66.365,148.211 -148.258,148.211 -81.845,0 -148.211,-66.365 -148.211,-148.211 0,-81.893 66.365,-148.258 148.211,-148.258 81.893,0 148.258,66.365 148.258,148.258 z"
   id="path22141" />
			
				<path
   style="fill:none;stroke:#7c4bac;stroke-width:7.0754717;stroke-linecap:round;stroke-linejoin:round;stroke-miterlimit:10;stroke-dasharray:none"
   d="m 336.713,274.441 c 0,55.067 -44.633,99.7 -99.7,99.7 -55.067,0 -99.7,-44.633 -99.7,-99.7 0,-55.067 44.633,-99.733 99.7,-99.733 20.833,0 40.2,6.4 56.2,17.367 -2.533,2.167 -5.167,4.6 -7.9,7.333 -10.367,10.367 -20.233,22.933 -27.067,34.2 -7.9,12.967 -11.767,24.2 -7.633,28.333 4.067,4.067 15.1,0.333 27.933,-7.4 11.367,-6.833 24.1,-16.833 34.6,-27.333 2.633,-2.633 5,-5.2 7.1,-7.633 10.4,15.733 16.467,34.6 16.467,54.866 z"
   id="path22143" />
			
				<path
   style="fill:none;stroke:#7c4bac;stroke-width:7.0754717;stroke-linecap:round;stroke-linejoin:round;stroke-miterlimit:10;stroke-dasharray:none"
   d="m 278.547,254.542 c 2.9,6 4.5,12.767 4.5,19.9 0,25.4 -20.6,46.033 -46.033,46.033 -25.433,0 -46.033,-20.633 -46.033,-46.033 0,-25.433 20.6,-46.033 46.033,-46.033 7.667,0 14.9,1.867 21.233,5.2"
   id="path22145" />
			
				<path
   style="fill:none;stroke:#7c4bac;stroke-width:7.0754717;stroke-linecap:round;stroke-linejoin:round;stroke-miterlimit:10;stroke-dasharray:none"
   d="m 293.213,192.075 c 18.3,-15.767 31.6,-17.867 38.367,-11.1 6.767,6.733 4.633,20.167 -11.333,38.6"
   id="path22147" />
			
				<line
   style="fill:none;stroke:#7c4bac;stroke-width:7.0754717;stroke-linecap:round;stroke-linejoin:round;stroke-miterlimit:10;stroke-dasharray:none"
   x1="331.59201"
   y1="180.96001"
   x2="364.314"
   y2="148.23801"
   id="line22149" />
			
				<polygon
   style="fill:none;stroke:#7c4bac;stroke-width:7.0754717;stroke-linecap:round;stroke-linejoin:round;stroke-miterlimit:10;stroke-dasharray:none"
   points="397.178,148.238 364.314,148.238 364.314,115.374 390.355,89.333 390.383,122.169 423.219,122.197 "
   id="polygon22151" />
			
				<line
   style="fill:none;stroke:#7c4bac;stroke-width:7.0754717;stroke-linecap:round;stroke-linejoin:round;stroke-miterlimit:10;stroke-dasharray:none"
   x1="250.60699"
   y1="261.94501"
   x2="235.325"
   y2="277.22699"
   id="line22153" />
		</g>
	</g>
</g>
<g
   id="Layer_1"
   transform="translate(-203,-203)">
</g>
</svg>
