<svg width="37" height="48" viewBox="0 0 37 48" fill="none" xmlns="http://www.w3.org/2000/svg">
<g id="Icon-BioinformaticsDataWorkflowDevelopment">
<path id="Vector" d="M18.1947 17.23C18.9417 17.2189 19.6776 17.0585 20.2365 16.7597L34.0423 9.26744C35.1545 8.6643 35.1213 7.71256 33.9648 7.14262L20.3084 0.414015C19.7274 0.131812 18.9804 -0.00652269 18.2389 0.00454409C17.4975 -0.00652269 16.7449 0.126279 16.1639 0.414015L2.51305 7.14262C1.35657 7.71256 1.32337 8.65877 2.43558 9.26744L16.2414 16.7597C16.7947 17.064 17.5362 17.2189 18.2832 17.23" fill="#02C55C"/>
<path id="Vector_2" d="M18.1947 26.1719C18.9417 26.1608 19.6776 26.0004 20.2365 25.7015L34.0423 18.2093C35.1545 17.6062 35.1213 16.6545 33.9648 16.0845L20.314 9.35591C19.733 9.07371 18.986 8.93537 18.2445 8.94644C17.503 8.93537 16.7505 9.06817 16.1695 9.35591L2.51305 16.0845C1.35657 16.6545 1.32337 17.6007 2.43558 18.2093L16.2414 25.7015C16.7947 26.0059 17.5362 26.1608 18.2832 26.1719" stroke="#7C4BAC" stroke-width="1.5" stroke-linecap="round" stroke-linejoin="round"/>
<path id="Vector_3" d="M34.8332 27.854L20.2305 35.8C19.6717 36.1043 18.9357 36.2592 18.1887 36.2703H18.2773C17.5358 36.2592 16.7943 36.0988 16.2354 35.8L1.63281 27.854" stroke="#7C4BAC" stroke-width="1.5" stroke-linecap="round" stroke-linejoin="round"/>
<path id="Vector_4" d="M34.8384 37.958L20.2302 45.8984C19.6713 46.2028 18.9354 46.3577 18.1884 46.3688H18.2769C17.5355 46.3577 16.794 46.1972 16.2351 45.8984L1.62695 37.958" stroke="#7C4BAC" stroke-width="1.5" stroke-linecap="round" stroke-linejoin="round"/>
</g>
</svg>
