<svg width="96" height="96" viewBox="0 0 96 96" fill="none" xmlns="http://www.w3.org/2000/svg">
<g id="vuesax/linear/box">
<g id="box">
<g id="Group">
<g id="Group_2">
<path id="Vector" d="M12.6797 29.76L47.9996 50.2L83.0796 29.8799" stroke="white" stroke-width="4" stroke-linecap="round" stroke-linejoin="round"/>
<path id="Vector_2" d="M48 86.4399V50.1599" stroke="white" stroke-width="4" stroke-linecap="round" stroke-linejoin="round"/>
</g>
<path id="Vector_3" d="M39.7205 9.92L18.3605 21.8001C13.5205 24.4801 9.56055 31.2 9.56055 36.72V59.3201C9.56055 64.8401 13.5205 71.5601 18.3605 74.2401L39.7205 86.1202C44.2805 88.6402 51.7604 88.6402 56.3204 86.1202L77.6805 74.2401C82.5205 71.5601 86.4805 64.8401 86.4805 59.3201V36.72C86.4805 31.2 82.5205 24.4801 77.6805 21.8001L56.3204 9.92C51.7204 7.36 44.2805 7.36 39.7205 9.92Z" stroke="white" stroke-width="4" stroke-linecap="round" stroke-linejoin="round"/>
</g>
<path id="Vector_4" d="M67.999 52.96V38.3201L30.0391 16.3999" stroke="white" stroke-width="4" stroke-linecap="round" stroke-linejoin="round"/>
</g>
</g>
</svg>
