<svg width="25" height="24" viewBox="0 0 25 24" fill="none" xmlns="http://www.w3.org/2000/svg">
<g id="vuesax/bold/sms">
<g id="sms">
<path id="Vector" d="M17.666 3.5H7.66602C4.66602 3.5 2.66602 5 2.66602 8.5V15.5C2.66602 19 4.66602 20.5 7.66602 20.5H17.666C20.666 20.5 22.666 19 22.666 15.5V8.5C22.666 5 20.666 3.5 17.666 3.5ZM18.136 9.59L15.006 12.09C14.346 12.62 13.506 12.88 12.666 12.88C11.826 12.88 10.976 12.62 10.326 12.09L7.19602 9.59C6.87602 9.33 6.82602 8.85 7.07602 8.53C7.33602 8.21 7.80602 8.15 8.12602 8.41L11.256 10.91C12.016 11.52 13.306 11.52 14.066 10.91L17.196 8.41C17.516 8.15 17.996 8.2 18.246 8.53C18.506 8.85 18.456 9.33 18.136 9.59Z" fill="#0F0E0E"/>
</g>
</g>
</svg>
