<svg width="96" height="96" viewBox="0 0 96 96" fill="none" xmlns="http://www.w3.org/2000/svg">
<g id="vuesax/linear/keyboard-open">
<g id="keyboard-open">
<g id="Group">
<path id="Vector" d="M29.0409 8H66.9209C69.5209 8 71.8409 8.08011 73.9209 8.36011C85.0009 9.60011 88.0009 14.8 88.0009 29.04V54.3201C88.0009 68.5601 85.0009 73.76 73.9209 75C71.8409 75.28 69.5609 75.3601 66.9209 75.3601H29.0409C26.4409 75.3601 24.1209 75.28 22.0409 75C10.9609 73.76 7.96094 68.5601 7.96094 54.3201V29.04C7.96094 14.8 10.9609 9.60011 22.0409 8.36011C24.1209 8.08011 26.4409 8 29.0409 8Z" stroke="white" stroke-width="4" stroke-linecap="round" stroke-linejoin="round"/>
<path id="Vector_2" d="M54.3203 33.28H69.0403" stroke="white" stroke-width="4" stroke-linecap="round" stroke-linejoin="round"/>
<path id="Vector_3" d="M26.9609 56.4399H27.0409H69.0809" stroke="white" stroke-width="4" stroke-linecap="round" stroke-linejoin="round"/>
</g>
<path id="Vector_4" d="M28 88H68" stroke="white" stroke-width="4" stroke-linecap="round" stroke-linejoin="round"/>
<path id="Vector_5" d="M28.7788 33.2H28.8147" stroke="white" stroke-width="4" stroke-linecap="round" stroke-linejoin="round"/>
<path id="Vector_6" d="M41.978 33.2H42.014" stroke="white" stroke-width="4" stroke-linecap="round" stroke-linejoin="round"/>
</g>
</g>
</svg>
