<svg width="25" height="24" viewBox="0 0 25 24" fill="none" xmlns="http://www.w3.org/2000/svg">
<g id="Icon">
<path id="Vector" d="M23.0664 5.54963C22.3008 5.88963 21.4784 6.11843 20.6152 6.22163C21.4968 5.69363 22.1728 4.85763 22.4912 3.86083C21.6672 4.34963 20.7536 4.70483 19.7808 4.89683C19.0024 4.06723 17.8936 3.54883 16.6664 3.54883C14.3096 3.54883 12.3992 5.46003 12.3992 7.81603C12.3992 8.15043 12.4376 8.47683 12.5096 8.78803C8.96323 8.61043 5.81923 6.91123 3.71363 4.32883C3.34723 4.95923 3.13683 5.69203 3.13683 6.47523C3.13683 7.95523 3.88962 9.26163 5.03443 10.0264C4.33523 10.004 3.67682 9.81203 3.10162 9.49283C3.10162 9.51123 3.10162 9.52803 3.10162 9.54643C3.10162 11.6144 4.57203 13.3392 6.52483 13.7304C6.16722 13.828 5.78962 13.88 5.40002 13.88C5.12562 13.88 4.85763 13.8528 4.59763 13.804C5.14083 15.4992 6.71683 16.7336 8.58403 16.768C7.12403 17.9128 5.28403 18.5952 3.28403 18.5952C2.94003 18.5952 2.60003 18.5752 2.26562 18.5352C4.15443 19.7456 6.39683 20.452 8.80723 20.452C16.6568 20.452 20.948 13.9496 20.948 8.31043C20.948 8.12563 20.944 7.94163 20.936 7.75843C21.7704 7.15603 22.4944 6.40483 23.0664 5.54963Z" fill="#0F0E0E"/>
</g>
</svg>
