<svg width="65" height="65" viewBox="0 0 65 65" fill="none" xmlns="http://www.w3.org/2000/svg">
<g id="icon_efficiency 1" clip-path="url(#clip0_1484_643)">
<g id="_x30_6_efficiency">
<g id="g172">
<path id="path132" d="M65 17.7833V47.2168C65 57.0381 57.0381 65 47.2166 65H17.7833C7.96185 65 0 57.0381 0 47.2166V17.7833C0 7.96185 7.96185 0 17.7833 0H47.2168C57.0381 0 65 7.96185 65 17.7833Z" fill="#F2EDF7"/>
<g id="g170">
<path id="path134" d="M44.0759 40.98C44.0759 45.7229 40.229 49.5698 35.484 49.5698C30.739 49.5698 26.8943 45.7229 26.8943 40.98C26.8943 36.235 30.7389 32.3882 35.484 32.3882C40.2292 32.3882 44.0759 36.235 44.0759 40.98Z" fill="#03C55C"/>
<path id="path136" d="M49.6578 37.0111C49.6578 46.4838 41.9748 54.1668 32.4978 54.1668C23.0208 54.1668 15.342 46.4838 15.342 37.0111C15.342 27.5341 23.0208 19.8511 32.4978 19.8511C41.9748 19.8511 49.6578 27.5341 49.6578 37.0111Z" stroke="#7C4BAC" stroke-width="1.5" stroke-miterlimit="10" stroke-linecap="round" stroke-linejoin="round"/>
<path id="path138" d="M46.1202 37.0107C46.1202 44.5303 40.0213 50.6293 32.4982 50.6293C24.9751 50.6293 18.8798 44.5303 18.8798 37.0107C18.8798 29.4876 24.9752 23.3887 32.4983 23.3887C40.0214 23.3887 46.1202 29.4876 46.1202 37.0107Z" stroke="#7C4BAC" stroke-width="1.5" stroke-miterlimit="10" stroke-linecap="round" stroke-linejoin="round"/>
<path id="path140" d="M33.2848 37.7076C32.8856 38.1798 32.1788 38.2391 31.7063 37.8396C31.2339 37.4401 31.1749 36.7335 31.5741 36.2612C31.9736 35.7888 36.3622 32.3325 36.3622 32.3325C36.3622 32.3325 33.6843 37.2352 33.2848 37.7076Z" stroke="#7C4BAC" stroke-width="1.5" stroke-miterlimit="10" stroke-linecap="round" stroke-linejoin="round"/>
<path id="path142" d="M37.0088 15.3429C37.0088 17.8322 34.9898 19.8512 32.4994 19.8512C30.0089 19.8512 27.9911 17.8322 27.9911 15.3429C27.9911 12.8525 30.0089 10.8335 32.4994 10.8335C34.9898 10.8335 37.0088 12.8525 37.0088 15.3429Z" stroke="#7C4BAC" stroke-width="1.5" stroke-miterlimit="10" stroke-linecap="round" stroke-linejoin="round"/>
<path id="line144" d="M32.4978 19.8511V17.1489" stroke="#7C4BAC" stroke-width="1.5" stroke-miterlimit="10" stroke-linecap="round" stroke-linejoin="round"/>
<path id="line146" d="M47.3735 23.8789L45.5212 25.7313" stroke="#7C4BAC" stroke-width="1.5" stroke-miterlimit="10" stroke-linecap="round" stroke-linejoin="round"/>
<path id="line148" d="M46.3275 22.833L48.4195 24.9251" stroke="#7C4BAC" stroke-width="1.5" stroke-miterlimit="10" stroke-linecap="round" stroke-linejoin="round"/>
<path id="line150" d="M17.6311 23.8789L19.4835 25.7313" stroke="#7C4BAC" stroke-width="1.5" stroke-miterlimit="10" stroke-linecap="round" stroke-linejoin="round"/>
<path id="line152" d="M18.677 22.833L16.5851 24.9251" stroke="#7C4BAC" stroke-width="1.5" stroke-miterlimit="10" stroke-linecap="round" stroke-linejoin="round"/>
<path id="line154" d="M32.5 26.6396V27.2636" stroke="#7C4BAC" stroke-width="1.5" stroke-miterlimit="10" stroke-linecap="round" stroke-linejoin="round"/>
<path id="line156" d="M32.5 46.7544V47.3785" stroke="#7C4BAC" stroke-width="1.5" stroke-miterlimit="10" stroke-linecap="round" stroke-linejoin="round"/>
<path id="line158" d="M39.8322 29.6768L39.391 30.1181" stroke="#7C4BAC" stroke-width="1.5" stroke-miterlimit="10" stroke-linecap="round" stroke-linejoin="round"/>
<path id="line160" d="M25.6089 43.8999L25.1677 44.3411" stroke="#7C4BAC" stroke-width="1.5" stroke-miterlimit="10" stroke-linecap="round" stroke-linejoin="round"/>
<path id="line162" d="M42.8694 37.0088H42.2452" stroke="#7C4BAC" stroke-width="1.5" stroke-miterlimit="10" stroke-linecap="round" stroke-linejoin="round"/>
<path id="line164" d="M22.7546 37.0088L22.1305 37.009" stroke="#7C4BAC" stroke-width="1.5" stroke-miterlimit="10" stroke-linecap="round" stroke-linejoin="round"/>
<path id="line166" d="M39.8322 44.3411L39.391 43.8999" stroke="#7C4BAC" stroke-width="1.5" stroke-miterlimit="10" stroke-linecap="round" stroke-linejoin="round"/>
<path id="line168" d="M25.6089 30.1181L25.1677 29.6768" stroke="#7C4BAC" stroke-width="1.5" stroke-miterlimit="10" stroke-linecap="round" stroke-linejoin="round"/>
</g>
</g>
</g>
</g>
<defs>
<clipPath id="clip0_1484_643">
<rect width="65" height="65" fill="white"/>
</clipPath>
</defs>
</svg>
