<svg width="96" height="96" viewBox="0 0 96 96" fill="none" xmlns="http://www.w3.org/2000/svg">
<g id="96_50 modular 1" clip-path="url(#clip0_1306_723)">
<g id="g13060">
<g id="g9152">
<g id="_x32_6_Centramisation">
<g id="g7019">
<path id="path6977" d="M96 26.2646V69.7355C96 84.241 84.241 96 69.7354 96H26.2646C11.759 96 0 84.241 0 69.7354V26.2646C0 11.759 11.759 0 26.2646 0H69.7355C84.241 0 96 11.759 96 26.2646Z" fill="#F2EDF7"/>
</g>
</g>
</g>
<g id="g10025">
<path id="rect234-3-6-5-6-8" d="M43.0835 41.103C43.0298 41.103 42.9772 41.107 42.9257 41.114V41.1084H34.9074C33.1528 41.1084 31.6303 41.991 30.8327 43.3019L33.7738 46.0093C35.3281 47.4402 35.3281 49.7441 33.7738 51.175L31.2726 53.4775H31.2691L30.2392 54.4258V54.7273H30.2278L30.2275 59.1624L31.2574 60.1107H31.2609L33.7621 62.4132C35.3164 63.8441 35.3164 66.148 33.7621 67.5788L30.8211 70.2863C31.6186 71.5972 33.1411 72.4798 34.8957 72.4798H42.914V72.4741C42.9655 72.4814 43.0181 72.4852 43.0718 72.4852H49.9793C50.0167 72.4852 50.0535 72.4838 50.0898 72.4796H55.2465C55.4723 72.4796 55.6939 72.4639 55.911 72.4357C57.1171 72.6078 58.3915 72.2651 59.3243 71.4063L63.3852 67.6682C64.1624 66.9528 64.5508 66.019 64.5508 65.0853C64.5508 64.1516 64.1624 63.2178 63.3852 62.5024L59.9142 59.307V58.8606H59.9259V54.2807L63.397 51.0854C64.1741 50.3699 64.5625 49.4361 64.5625 48.5025C64.5625 47.5688 64.1741 46.635 63.397 45.9195L59.3361 42.1814C58.4033 41.3227 57.1289 40.98 55.9229 41.152C55.7058 41.1238 55.4841 41.1082 55.2583 41.1082H50.1016C50.0653 41.1042 50.0285 41.1025 49.9911 41.1025L43.0835 41.103Z" fill="#03C55C"/>
<g id="g9157">
<path id="rect234-3-6-5-6-3-3-8-0" d="M63.9765 24.15C63.9259 24.15 63.8764 24.1541 63.828 24.1613V24.1555H56.2791C54.6273 24.1555 53.1939 25.0606 52.4431 26.4051L55.2119 29.1817C56.6752 30.6492 56.6752 33.012 55.2119 34.4795L52.8571 36.8409H52.8539L51.8843 37.8134V38.1227H51.8735L51.8733 42.6711L52.8428 43.6437H52.8461L55.2008 46.0051C56.6641 47.4725 56.6641 49.8354 55.2008 51.3028L52.432 54.0795C53.1829 55.4239 54.6162 56.3291 56.2681 56.3291H63.8169V56.3233C63.8654 56.3307 63.9149 56.3346 63.9655 56.3346H70.4685C70.5037 56.3346 70.5383 56.3329 70.5725 56.3288H75.4272C75.6398 56.3288 75.8485 56.3128 76.0529 56.2838C77.1883 56.4603 78.3881 56.1088 79.2663 55.2281L83.0894 51.3944C83.821 50.6607 84.1867 49.703 84.1867 48.7454C84.1867 47.7879 83.821 46.8302 83.0894 46.0965L79.8216 42.8194V42.3616H79.8327V37.6646L83.1004 34.3876C83.8321 33.6538 84.1978 32.6961 84.1978 31.7386C84.1978 30.781 83.8321 29.8233 83.1004 29.0896L79.2774 25.2559C78.3992 24.3752 77.1994 24.0237 76.064 24.2002C75.8596 24.1712 75.6509 24.1552 75.4383 24.1552H70.5835C70.5494 24.1511 70.5147 24.1494 70.4796 24.1494L63.9765 24.15Z" stroke="#7C4BAC" stroke-linejoin="round"/>
<path id="rect234-3-6-5-6-3-3-8-9" d="M23.9047 24.15C23.8541 24.15 23.8046 24.1541 23.7562 24.1613V24.1555H16.2073C14.5555 24.1555 13.1221 25.0606 12.3713 26.4051L15.1401 29.1817C16.6034 30.6492 16.6034 33.012 15.1401 34.4795L12.7854 36.8409H12.7821L11.8125 37.8134V38.1227H11.8017L11.8015 42.6711L12.771 43.6437H12.7743L15.129 46.0051C16.5924 47.4725 16.5924 49.8354 15.129 51.3028L12.3602 54.0795C13.1111 55.4239 14.5444 56.3291 16.1963 56.3291H23.7451V56.3233C23.7936 56.3307 23.8431 56.3346 23.8937 56.3346H30.3967C30.4319 56.3346 30.4665 56.3329 30.5007 56.3288H35.3554C35.5681 56.3288 35.7767 56.3128 35.9811 56.2838C37.1165 56.4603 38.3163 56.1088 39.1945 55.2281L43.0176 51.3944C43.7493 50.6607 44.115 49.703 44.115 48.7454C44.115 47.7879 43.7493 46.8302 43.0176 46.0965L39.7499 42.8194V42.3616H39.7609V37.6646L43.0286 34.3876C43.7603 33.6538 44.126 32.6961 44.126 31.7386C44.126 30.781 43.7603 29.8233 43.0286 29.0896L39.2056 25.2559C38.3274 24.3752 37.1276 24.0237 35.9922 24.2002C35.7878 24.1712 35.5791 24.1552 35.3665 24.1552H30.5118C30.4776 24.1511 30.443 24.1494 30.4078 24.1494L23.9047 24.15Z" stroke="#7C4BAC" stroke-linejoin="round"/>
</g>
</g>
</g>
</g>
<defs>
<clipPath id="clip0_1306_723">
<rect width="96" height="96" fill="white"/>
</clipPath>
</defs>
</svg>
