<svg width="64" height="64" viewBox="0 0 64 64" fill="none" xmlns="http://www.w3.org/2000/svg">
<g id="18 open source" clip-path="url(#clip0_797_1765)">
<g id="_x31_8_open_source">
<g id="Group">
<path id="Vector" d="M63.25 17.8494V46.1507C63.25 55.5944 55.5944 63.25 46.1506 63.25H17.8494C8.40562 63.25 0.75 55.5944 0.75 46.1506V17.8494C0.75 8.40562 8.40562 0.75 17.8494 0.75H46.1507C55.5944 0.75 63.25 8.40562 63.25 17.8494Z" fill="#F2EDF7"/>
<path id="Vector_2" d="M46.4242 25.4476C50.3404 25.4476 53.515 22.273 53.515 18.3569C53.515 14.4408 50.3404 11.2661 46.4242 11.2661C42.5081 11.2661 39.3335 14.4408 39.3335 18.3569C39.3335 22.273 42.5081 25.4476 46.4242 25.4476Z" fill="#02C55C"/>
<path id="Vector_3" d="M11.1665 37.0791V41.1455C11.1665 42.7625 12.4774 44.0734 14.0944 44.0734H49.9053C51.5223 44.0734 52.8331 42.7625 52.8331 41.1455V37.0791H11.1665Z" stroke="#7C4BAC" stroke-miterlimit="10" stroke-linecap="round" stroke-linejoin="round"/>
<path id="Vector_4" d="M38.8865 50.184L34.915 44.0737H29.0853L25.1138 50.184H38.8865Z" stroke="#7C4BAC" stroke-miterlimit="10" stroke-linecap="round" stroke-linejoin="round"/>
<path id="Vector_5" d="M22.1152 50.1836H41.8852" stroke="#7C4BAC" stroke-miterlimit="10" stroke-linecap="round" stroke-linejoin="round"/>
<path id="Vector_6" d="M31.0283 40.5762H32.9721" stroke="#7C4BAC" stroke-miterlimit="10" stroke-linecap="round" stroke-linejoin="round"/>
<path id="Vector_7" d="M17.0872 18.0772C17.0872 18.6479 16.6264 19.1085 16.0505 19.1085C15.4798 19.1085 15.019 18.6478 15.019 18.0772C15.019 17.5065 15.4798 17.0405 16.0505 17.0405C16.6264 17.0405 17.0872 17.5065 17.0872 18.0772Z" stroke="#7C4BAC" stroke-miterlimit="10" stroke-linecap="round" stroke-linejoin="round"/>
<path id="Vector_8" d="M21.0867 18.0772C21.0867 18.6479 20.6259 19.1085 20.0501 19.1085C19.4793 19.1085 19.0186 18.6478 19.0186 18.0772C19.0186 17.5065 19.4793 17.0405 20.0501 17.0405C20.6259 17.0405 21.0867 17.5065 21.0867 18.0772Z" stroke="#7C4BAC" stroke-miterlimit="10" stroke-linecap="round" stroke-linejoin="round"/>
<path id="Vector_9" d="M25.0867 18.0772C25.0867 18.6479 24.6259 19.1085 24.0501 19.1085C23.4793 19.1085 23.0186 18.6478 23.0186 18.0772C23.0186 17.5065 23.4793 17.0405 24.0501 17.0405C24.6259 17.0405 25.0867 17.5065 25.0867 18.0772Z" stroke="#7C4BAC" stroke-miterlimit="10" stroke-linecap="round" stroke-linejoin="round"/>
<path id="Vector_10" d="M52.8333 16.7455V37.0788H11.1665V16.7455C11.1665 15.1247 12.479 13.8164 14.0956 13.8164H49.9039C51.5208 13.8163 52.8333 15.1247 52.8333 16.7455Z" stroke="#7C4BAC" stroke-miterlimit="10" stroke-linecap="round" stroke-linejoin="round"/>
<g id="Group_2">
<path id="Vector_11" d="M37.9735 27.2924C37.9735 29.7781 36.4559 31.9084 34.294 32.8082L32.5942 28.7243C33.1544 28.4898 33.5482 27.9383 33.5482 27.2924C33.5482 26.4382 32.8551 25.7449 32.0007 25.7449C31.1447 25.7449 30.4516 26.4382 30.4516 27.2924C30.4516 27.9366 30.8455 28.4898 31.4039 28.7243L29.7059 32.8082C27.5457 31.9102 26.0264 29.7798 26.0264 27.2924C26.0264 23.9946 28.7011 21.3198 31.999 21.3198C35.2987 21.3198 37.9735 23.9946 37.9735 27.2924Z" stroke="#7C4BAC" stroke-miterlimit="10" stroke-linecap="round" stroke-linejoin="round"/>
</g>
</g>
</g>
</g>
<defs>
<clipPath id="clip0_797_1765">
<rect width="64" height="64" fill="white"/>
</clipPath>
</defs>
</svg>
