<?xml version="1.0" encoding="UTF-8" standalone="no"?>
<!-- Generator: Adobe Illustrator 23.0.5, SVG Export Plug-In . SVG Version: 6.00 Build 0)  -->

<svg
   version="1.1"
   x="0px"
   y="0px"
   viewBox="0 0 106 106"
   xml:space="preserve"
   id="svg168"
   sodipodi:docname="14 critical environment.svg"
   width="106"
   height="106"
   inkscape:version="1.2.2 (b0a84865, 2022-12-01)"
   xmlns:inkscape="http://www.inkscape.org/namespaces/inkscape"
   xmlns:sodipodi="http://sodipodi.sourceforge.net/DTD/sodipodi-0.dtd"
   xmlns="http://www.w3.org/2000/svg"
   xmlns:svg="http://www.w3.org/2000/svg"><defs
   id="defs172" /><sodipodi:namedview
   id="namedview170"
   pagecolor="#ffffff"
   bordercolor="#666666"
   borderopacity="1.0"
   inkscape:showpageshadow="2"
   inkscape:pageopacity="0.0"
   inkscape:pagecheckerboard="0"
   inkscape:deskcolor="#d1d1d1"
   showgrid="false"
   inkscape:zoom="3.5039062"
   inkscape:cx="53.083612"
   inkscape:cy="74.630992"
   inkscape:window-width="2445"
   inkscape:window-height="1115"
   inkscape:window-x="0"
   inkscape:window-y="25"
   inkscape:window-maximized="0"
   inkscape:current-layer="svg168" />
<g
   id="_x31_4_critical_environment"
   transform="matrix(0.212,0,0,0.212,-1.272,-1.272)"
   style="stroke-width:7.07547;stroke-dasharray:none">
	<g
   id="g164"
   style="stroke-width:7.07547;stroke-dasharray:none">
		<path
   style="fill:#f2edf7;stroke-width:7.07547;stroke-dasharray:none"
   d="M 506,142.795 V 369.206 C 506,444.755 444.755,506 369.205,506 H 142.795 C 67.245,506 6,444.755 6,369.205 V 142.795 C 6,67.245 67.245,6 142.795,6 H 369.206 C 444.755,6 506,67.245 506,142.795 Z"
   id="path132" />
		<g
   id="g162"
   style="stroke-width:7.07547;stroke-dasharray:none">
			<path
   style="fill:#03c55c;stroke-width:7.07547;stroke-dasharray:none"
   d="m 306.972,256.027 c 0,38.308 -31.039,69.347 -69.347,69.347 -38.308,0 -69.347,-31.039 -69.347,-69.347 0,-38.308 31.039,-69.4 69.347,-69.4 38.308,0 69.347,31.092 69.347,69.4 z"
   id="path134" />
			
				<path
   style="fill:none;stroke:#7c4bac;stroke-width:7.07547;stroke-linecap:round;stroke-linejoin:round;stroke-miterlimit:10;stroke-dasharray:none"
   d="m 290.307,256 c -0.1,-0.633 -0.133,-1.3 -0.133,-1.967 0,-9.067 7.233,-16.5 16.233,-16.767 -1.167,-21.333 -4.433,-41.3 -9.267,-58.867 -11.633,-42.167 -32.5,-70.7 -56.4,-72.033 -0.6,-0.033 -1.167,-0.033 -1.767,-0.033 -0.6,0 -1.167,0 -1.767,0.033 -20.6,1.167 -38.967,22.567 -51.067,55.5 7.233,1.867 12.533,8.433 12.533,16.233 0,1.067 -0.1,2.1 -0.3,3.1 -1.433,7.767 -8.267,13.667 -16.5,13.667 -1.667,0 -3.267,-0.233 -4.8,-0.7 -3.9,18.833 -6.066,39.8 -6.066,61.833 v 0.033 c 0,28.367 3.566,54.9 9.8,77.5 11.6,42 32.3,70.466 56.066,72.067 h 0.033 c 0.7,0.033 1.367,0.067 2.067,0.067 0.7,0 1.367,-0.033 2.067,-0.067 h 0.033 c 23.767,-1.6 44.5,-30.033 56.1,-72.033 5.133,-18.633 8.467,-39.933 9.467,-62.767 -8.466,-0.132 -15.399,-6.566 -16.332,-14.799 z m -51.334,89.033 c -9.133,0 -16.567,-7.3 -16.767,-16.367 -0.033,-0.133 -0.033,-0.3 -0.033,-0.433 0,-9.267 7.533,-16.8 16.8,-16.8 9.3,0 16.8,7.533 16.8,16.8 0,0.133 0,0.3 -0.033,0.433 -0.2,9.067 -7.6,16.367 -16.767,16.367 z"
   id="path136" />
			
				<path
   style="fill:none;stroke:#7c4bac;stroke-width:7.07547;stroke-linecap:round;stroke-linejoin:round;stroke-miterlimit:10;stroke-dasharray:none"
   d="m 353.407,159.567 c -15.1,8.133 -34.333,14.633 -56.267,18.833 -17.9,3.433 -37.533,5.333 -58.167,5.333 h -0.033 c -14.067,0 -27.667,-0.867 -40.567,-2.533 0.2,-1 0.3,-2.033 0.3,-3.1 0,-7.8 -5.3,-14.367 -12.533,-16.233 -1.367,-0.367 -2.8,-0.567 -4.267,-0.567 -8.2,0 -15.033,5.9 -16.5,13.667 -15.567,-4 -29.4,-9.233 -40.833,-15.4 27.067,-32.1 67.467,-52.7 112.667,-53.2 0.6,-0.033 1.167,-0.033 1.767,-0.033 0.6,0 1.167,0 1.767,0.033 45.199,0.5 85.599,21.1 112.666,53.2 z"
   id="path138" />
			
				<path
   style="fill:none;stroke:#7c4bac;stroke-width:7.07547;stroke-linecap:round;stroke-linejoin:round;stroke-miterlimit:10;stroke-dasharray:none"
   d="m 312.673,337.033 c -5,-1.3 -10.167,-2.433 -15.5,-3.467 -12.967,-2.5 -26.9,-4.167 -41.433,-4.9 -0.2,9.067 -7.6,16.367 -16.767,16.367 -9.133,0 -16.567,-7.3 -16.767,-16.367 -14.533,0.7 -28.433,2.4 -41.4,4.867 -21.933,4.2 -41.167,10.7 -56.267,18.867 26.967,32.067 67.233,52.6 112.333,53.2 h 0.033 c 0.7,0.033 1.367,0.033 2.067,0.033 0.7,0 1.367,0 2.067,-0.033 h 0.033 c 29.433,-0.4 56.8,-9.267 79.767,-24.3"
   id="path140" />
			
				<line
   style="fill:none;stroke:#7c4bac;stroke-width:7.07547;stroke-linecap:round;stroke-linejoin:round;stroke-miterlimit:10;stroke-dasharray:none"
   x1="238.97301"
   y1="405.633"
   x2="238.97301"
   y2="345.03299"
   id="line142" />
			
				<polyline
   style="fill:none;stroke:#7c4bac;stroke-width:7.07547;stroke-linecap:round;stroke-linejoin:round;stroke-miterlimit:10;stroke-dasharray:none"
   points="     238.973,311.433 238.973,256 238.973,183.733 238.973,106.333    "
   id="polyline144" />
			
				<polyline
   style="fill:none;stroke:#7c4bac;stroke-width:7.07547;stroke-linecap:round;stroke-linejoin:round;stroke-miterlimit:10;stroke-dasharray:none"
   points="     89.34,256 171.007,256 238.973,256 290.307,256    "
   id="polyline146" />
			
				<line
   style="fill:none;stroke:#7c4bac;stroke-width:7.07547;stroke-linecap:round;stroke-linejoin:round;stroke-miterlimit:10;stroke-dasharray:none"
   x1="388.64001"
   y1="256"
   x2="323.64001"
   y2="256"
   id="line148" />
			
				<path
   style="fill:none;stroke:#7c4bac;stroke-width:7.07547;stroke-linecap:round;stroke-linejoin:round;stroke-miterlimit:10;stroke-dasharray:none"
   d="m 383.073,296.5 c 3.633,-12.833 5.567,-26.433 5.567,-40.467 0,-36.767 -13.267,-70.433 -35.233,-96.467 -27.433,-32.533 -68.533,-53.233 -114.433,-53.233 -45.9,0 -87,20.7 -114.433,53.233 -21.933,26.033 -35.2,59.7 -35.2,96.467 0,36.733 13.2,70.367 35.2,96.367 27.4,32.567 68.5,53.233 114.433,53.233 30.2,0 58.333,-8.933 81.867,-24.333"
   id="path150" />
			
				<circle
   style="fill:none;stroke:#7c4bac;stroke-width:7.07547;stroke-linecap:round;stroke-linejoin:round;stroke-miterlimit:10;stroke-dasharray:none"
   cx="181.86099"
   cy="178.084"
   r="16.798"
   id="circle152" />
			
				<circle
   style="fill:none;stroke:#7c4bac;stroke-width:7.07547;stroke-linecap:round;stroke-linejoin:round;stroke-miterlimit:10;stroke-dasharray:none"
   cx="238.98399"
   cy="328.23499"
   r="16.798"
   id="circle154" />
			
				<circle
   style="fill:none;stroke:#7c4bac;stroke-width:7.07547;stroke-linecap:round;stroke-linejoin:round;stroke-miterlimit:10;stroke-dasharray:none"
   cx="306.97198"
   cy="254.039"
   r="16.798"
   id="circle156" />
			
				<path
   style="fill:none;stroke:#7c4bac;stroke-width:7.07547;stroke-linecap:round;stroke-linejoin:round;stroke-miterlimit:10;stroke-dasharray:none"
   d="m 422.66,349.9 c 0,30.805 -24.96,55.764 -55.764,55.764 -30.805,0 -55.764,-24.959 -55.764,-55.764 0,-30.805 24.959,-55.807 55.764,-55.807 30.804,0 55.764,25.003 55.764,55.807 z"
   id="path158" />
			
				<polyline
   style="fill:none;stroke:#7c4bac;stroke-width:7.07547;stroke-linecap:round;stroke-linejoin:round;stroke-miterlimit:10;stroke-dasharray:none"
   points="     345.512,351.075 358.97,364.534 388.279,335.224    "
   id="polyline160" />
		</g>
	</g>
</g>
<g
   id="Layer_1"
   transform="translate(-203,-203)">
</g>
</svg>
