<?xml version="1.0" encoding="UTF-8" standalone="no"?>
<!-- Generator: Adobe Illustrator 23.0.5, SVG Export Plug-In . SVG Version: 6.00 Build 0)  -->

<svg
   version="1.1"
   x="0px"
   y="0px"
   viewBox="0 0 106 106"
   xml:space="preserve"
   id="svg29424"
   sodipodi:docname="21 security.svg"
   width="106"
   height="106"
   inkscape:version="1.2.2 (b0a84865, 2022-12-01)"
   xmlns:inkscape="http://www.inkscape.org/namespaces/inkscape"
   xmlns:sodipodi="http://sodipodi.sourceforge.net/DTD/sodipodi-0.dtd"
   xmlns="http://www.w3.org/2000/svg"
   xmlns:svg="http://www.w3.org/2000/svg"><defs
   id="defs29428" /><sodipodi:namedview
   id="namedview29426"
   pagecolor="#ffffff"
   bordercolor="#666666"
   borderopacity="1.0"
   inkscape:showpageshadow="2"
   inkscape:pageopacity="0.0"
   inkscape:pagecheckerboard="0"
   inkscape:deskcolor="#d1d1d1"
   showgrid="false"
   inkscape:zoom="3.1113281"
   inkscape:cx="52.871312"
   inkscape:cy="67.816698"
   inkscape:window-width="2244"
   inkscape:window-height="1256"
   inkscape:window-x="0"
   inkscape:window-y="25"
   inkscape:window-maximized="0"
   inkscape:current-layer="svg29424" />
<g
   id="_x32_1_security"
   transform="matrix(0.212,0,0,0.212,-1.272,-1.272)"
   style="stroke-width:7.07547;stroke-dasharray:none">
	<g
   id="g29420"
   style="stroke-width:7.07547;stroke-dasharray:none">
		<path
   style="fill:#f2edf7;stroke-width:7.07547;stroke-dasharray:none"
   d="M 506,142.795 V 369.206 C 506,444.755 444.755,506 369.205,506 H 142.795 C 67.245,506 6,444.755 6,369.205 V 142.795 C 6,67.245 67.245,6 142.795,6 H 369.206 C 444.755,6 506,67.245 506,142.795 Z"
   id="path29402" />
		<g
   id="g29418"
   style="stroke-width:7.07547;stroke-dasharray:none">
			<path
   style="fill:#03c55c;stroke-width:7.07547;stroke-dasharray:none"
   d="m 311.04,292.837 c 0,25.058 -20.306,45.363 -45.364,45.363 -25.058,0 -45.326,-20.306 -45.326,-45.363 0,-25.058 20.269,-45.363 45.326,-45.363 25.057,0 45.364,20.306 45.364,45.363 z"
   id="path29404" />
			
				<path
   style="fill:none;stroke:#7c4bac;stroke-width:7.07547;stroke-linecap:round;stroke-linejoin:round;stroke-miterlimit:10;stroke-dasharray:none"
   d="M 387.834,215.67 V 175.19 C 330.863,156.4 284.386,124.816 256,89.333 227.614,124.815 181.137,156.399 124.166,175.19 v 40.48 c 0,74.862 37.577,144.725 100.039,185.991 L 256,422.667 287.795,401.661 C 350.257,360.395 387.834,290.532 387.834,215.67 Z"
   id="path29406" />
			
				<path
   style="fill:none;stroke:#7c4bac;stroke-width:7.07547;stroke-linecap:round;stroke-linejoin:round;stroke-miterlimit:10;stroke-dasharray:none"
   d="m 238.904,379.411 c -55.146,-36.436 -88.071,-97.646 -88.071,-163.74 v -21.725 c 41.089,-15.954 77.248,-38.421 105.168,-65.234 27.92,26.813 64.079,49.281 105.168,65.234 v 21.725 c 0,66.094 -32.925,127.305 -88.071,163.74 L 256,390.707 Z"
   id="path29408" />
			
				<path
   style="fill:none;stroke:#7c4bac;stroke-width:7.07547;stroke-linecap:round;stroke-linejoin:round;stroke-miterlimit:10;stroke-dasharray:none"
   d="m 282.98,244.808 v -25.033 c 0,-7.467 -3,-14.2 -7.9,-19.067 -4.867,-4.867 -11.633,-7.9 -19.067,-7.9 -14.9,0 -27,12.067 -27,26.967 v 25"
   id="path29410" />
			
				<path
   style="fill:none;stroke:#7c4bac;stroke-width:7.07547;stroke-linecap:round;stroke-linejoin:round;stroke-miterlimit:10;stroke-dasharray:none"
   d="m 301.345,281.263 c 0,25.058 -20.306,45.363 -45.364,45.363 -25.058,0 -45.326,-20.306 -45.326,-45.363 0,-25.058 20.269,-45.363 45.326,-45.363 25.057,0 45.364,20.305 45.364,45.363 z"
   id="path29412" />
			
				<path
   style="fill:none;stroke:#7c4bac;stroke-width:7.07547;stroke-linecap:round;stroke-linejoin:round;stroke-miterlimit:10;stroke-dasharray:none"
   d="m 264.05,277.738 c 0,4.412 -3.637,8.05 -8.05,8.05 -4.472,0 -8.05,-3.637 -8.05,-8.05 0,-4.472 3.578,-8.05 8.05,-8.05 4.413,0.001 8.05,3.578 8.05,8.05 z"
   id="path29414" />
			
				<path
   style="fill:none;stroke:#7c4bac;stroke-width:7.07547;stroke-linecap:round;stroke-linejoin:round;stroke-miterlimit:10;stroke-dasharray:none"
   d="m 256,285.788 c 0,1.531 0,7.049 0,7.049"
   id="path29416" />
		</g>
	</g>
</g>
<g
   id="Layer_1"
   transform="translate(-203,-203)">
</g>
</svg>
