<svg width="96" height="96" viewBox="0 0 96 96" fill="none" xmlns="http://www.w3.org/2000/svg">
<g id="32_xx">
<g id="_x30_1_modularity">
<path id="path5626" d="M94.875 26.7741V69.2261C94.875 83.3916 83.3916 94.875 69.2259 94.875H26.7741C12.6084 94.875 1.125 83.3916 1.125 69.2259V26.7741C1.125 12.6084 12.6084 1.125 26.7741 1.125H69.2261C83.3916 1.125 94.875 12.6084 94.875 26.7741Z" fill="#F2EDF7"/>
<path id="circle14285" d="M49.5395 68.0078C56.7679 68.0078 62.6277 62.5612 62.6277 55.8424C62.6277 49.1236 56.7679 43.677 49.5395 43.677C42.311 43.677 36.4512 49.1236 36.4512 55.8424C36.4512 62.5612 42.311 68.0078 49.5395 68.0078Z" fill="#02C55C"/>
<path id="path14287" d="M67.5731 70.2111C66.5948 70.2111 65.6972 70.5259 64.9823 71.0455L55.7856 62.4972C57.1885 61.3281 58.2151 59.7793 58.6935 58.0257L65.0253 58.7901C65.0683 59.3147 65.2672 59.8343 65.6381 60.2789C66.654 61.503 68.5406 61.7278 69.8575 60.7885C71.1744 59.8443 71.4163 58.0907 70.4058 56.8666C69.3953 55.6426 67.5032 55.4178 66.1863 56.357C65.837 56.6068 65.5682 56.9116 65.3747 57.2513L58.9569 56.4769C58.973 56.2671 58.9838 56.0523 58.9838 55.8374C58.9838 54.4335 58.6344 53.1046 58.0163 51.9255L62.1712 48.0636C64.5308 49.7522 67.9279 49.5924 70.0886 47.5839C72.4375 45.4007 72.4375 41.8634 70.0886 39.6802C67.7397 37.4969 63.9342 37.4969 61.5853 39.6802C59.4514 41.6636 59.2579 44.7612 60.994 46.9494L57.0971 50.5516C55.5222 48.5632 53.1626 47.1992 50.2762 46.9444V31.3667C53.1626 31.012 55.533 28.6638 55.533 25.8261C55.533 22.7385 52.8508 20.2355 49.529 20.2355C46.2072 20.2355 43.4982 22.7385 43.4982 25.8261C43.4982 28.6289 45.7073 30.947 48.5938 31.3517V46.9295C46.1857 47.1043 43.7884 48.2035 42.1813 49.8721L36.1021 44.2116C36.4246 43.707 36.6181 43.1225 36.6181 42.4979C36.6181 40.6444 35.0056 39.1456 33.0114 39.1456C31.0173 39.1456 29.4048 40.6494 29.4048 42.4979C29.4048 44.3465 31.0227 45.8503 33.0168 45.8503C33.721 45.8503 34.3821 45.6605 34.9357 45.3307L41.1815 51.1361C40.2678 52.5051 39.741 54.1188 39.741 55.8474C39.741 56.2971 39.7786 56.7417 39.8485 57.1714L31.5118 59.6045C30.2594 57.0915 27.1687 55.7725 24.2555 56.6268C21.0842 57.5511 19.3265 60.6886 20.3209 63.6363C21.3153 66.584 24.6908 68.2177 27.8621 67.2934C30.7378 66.4541 32.4578 63.7912 32.0009 61.1033L40.2463 58.6952C41.1815 61.2832 43.3584 63.3465 46.1212 64.2658L44.8205 68.4125C44.2561 68.3726 43.6756 68.4775 43.1434 68.7473C41.6868 69.4917 41.1547 71.1904 41.9555 72.5443C42.7564 73.8982 44.584 74.3928 46.0406 73.6484C47.4972 72.904 48.0294 71.2053 47.2285 69.8514C47.0189 69.4917 46.734 69.1969 46.4007 68.9671L47.7499 64.6605C48.2766 64.7454 48.8141 64.7904 49.3678 64.7904C51.2275 64.7904 52.9637 64.3008 54.4365 63.4514L63.8966 72.2445C63.5633 72.8041 63.3752 73.4486 63.3752 74.128C63.3752 76.2913 65.2618 78.04 67.5839 78.04C69.9059 78.04 71.7925 76.2863 71.7925 74.128C71.7925 71.9697 69.9059 70.2161 67.5839 70.2161L67.5731 70.2111Z" stroke="#7C4BAC" stroke-width="1.5" stroke-miterlimit="10"/>
</g>
</g>
</svg>
