<?xml version="1.0" encoding="UTF-8" standalone="no"?>
<!-- Generator: Adobe Illustrator 23.0.5, SVG Export Plug-In . SVG Version: 6.00 Build 0)  -->

<svg
   version="1.1"
   x="0px"
   y="0px"
   viewBox="0 0 106 106"
   xml:space="preserve"
   id="svg9744"
   sodipodi:docname="11 strategy.svg"
   width="106"
   height="106"
   inkscape:version="1.2.2 (b0a84865, 2022-12-01)"
   xmlns:inkscape="http://www.inkscape.org/namespaces/inkscape"
   xmlns:sodipodi="http://sodipodi.sourceforge.net/DTD/sodipodi-0.dtd"
   xmlns="http://www.w3.org/2000/svg"
   xmlns:svg="http://www.w3.org/2000/svg"><defs
   id="defs9748" /><sodipodi:namedview
   id="namedview9746"
   pagecolor="#ffffff"
   bordercolor="#666666"
   borderopacity="1.0"
   inkscape:showpageshadow="2"
   inkscape:pageopacity="0.0"
   inkscape:pagecheckerboard="0"
   inkscape:deskcolor="#d1d1d1"
   showgrid="false"
   inkscape:zoom="9.2317088"
   inkscape:cx="7.9616896"
   inkscape:cy="38.996031"
   inkscape:window-width="1872"
   inkscape:window-height="1122"
   inkscape:window-x="0"
   inkscape:window-y="25"
   inkscape:window-maximized="0"
   inkscape:current-layer="svg9744" />
<g
   id="_x31_1_strategy"
   transform="matrix(0.212,0,0,0.212,-1.272,-1.272)"
   style="stroke-width:7.0754717;stroke-dasharray:none">
	<g
   id="g9740"
   style="stroke-width:7.0754717;stroke-dasharray:none">
		<path
   style="fill:#f2edf7;stroke-width:7.0754717;stroke-dasharray:none"
   d="M 506,142.795 V 369.206 C 506,444.755 444.755,506 369.205,506 H 142.795 C 67.245,506 6,444.755 6,369.205 V 142.795 C 6,67.245 67.245,6 142.795,6 H 369.206 C 444.755,6 506,67.245 506,142.795 Z"
   id="path9716" />
		<g
   id="g9738"
   style="stroke-width:7.0754717;stroke-dasharray:none">
			<circle
   style="fill:#03c55c;stroke-width:7.0754717;stroke-dasharray:none"
   cx="267.01199"
   cy="330.064"
   r="68.178001"
   id="circle9718" />
			
				<path
   style="fill:none;stroke:#7c4bac;stroke-width:7.0754717;stroke-linecap:round;stroke-linejoin:round;stroke-miterlimit:10;stroke-dasharray:none"
   d="m 360.494,272.881 c 0,74.859 -60.7,135.559 -135.602,135.559 -74.859,0 -135.559,-60.7 -135.559,-135.559 0,-74.902 60.7,-135.602 135.559,-135.602 74.902,0 135.602,60.699 135.602,135.602 z"
   id="path9720" />
			
				<path
   style="fill:none;stroke:#7c4bac;stroke-width:7.0754717;stroke-linecap:round;stroke-linejoin:round;stroke-miterlimit:10;stroke-dasharray:none"
   d="m 316.113,272.873 c 0,50.354 -40.83,91.184 -91.214,91.184 -50.354,0 -91.184,-40.83 -91.184,-91.184 0,-50.383 40.83,-91.214 91.184,-91.214 50.383,0.001 91.214,40.831 91.214,91.214 z"
   id="path9722" />
			
				<path
   style="fill:none;stroke:#7c4bac;stroke-width:7.0754717;stroke-linecap:round;stroke-linejoin:round;stroke-miterlimit:10;stroke-dasharray:none"
   d="m 267.012,272.866 c 0,23.244 -18.848,42.092 -42.105,42.092 -23.244,0 -42.092,-18.848 -42.092,-42.092 0,-23.258 18.848,-42.105 42.092,-42.105 23.257,-0.001 42.105,18.847 42.105,42.105 z"
   id="path9724" />
			
				<polygon
   style="fill:none;stroke:#7c4bac;stroke-width:7.0754717;stroke-linecap:round;stroke-linejoin:round;stroke-miterlimit:10;stroke-dasharray:none"
   points="371.404,157.437 341.345,157.437 341.345,127.379 365.163,103.561 365.189,133.593 395.222,133.619 "
   id="polygon9726" />
			
				<path
   style="fill:none;stroke:#7c4bac;stroke-width:7.0754717;stroke-linecap:round;stroke-linejoin:round;stroke-miterlimit:10;stroke-dasharray:none"
   d="m 223.367,275.415 c 75.007,-75.007 57.936,-57.936 117.978,-117.978"
   id="path9728" />
			
				<polygon
   style="fill:none;stroke:#7c4bac;stroke-width:7.0754717;stroke-linecap:round;stroke-linejoin:round;stroke-miterlimit:10;stroke-dasharray:none"
   points="393.16,261.886 370.533,247.276 385.143,224.649 414.65,218.296 400.072,240.916 422.667,255.534 "
   id="polygon9730" />
			
				<path
   style="fill:none;stroke:#7c4bac;stroke-width:7.0754717;stroke-linecap:round;stroke-linejoin:round;stroke-miterlimit:10;stroke-dasharray:none"
   d="m 224.377,278.741 c 92.922,-20.005 71.774,-15.452 146.156,-31.465"
   id="path9732" />
			
				<polygon
   style="fill:none;stroke:#7c4bac;stroke-width:7.0754717;stroke-linecap:round;stroke-linejoin:round;stroke-miterlimit:10;stroke-dasharray:none"
   points="373.373,361.541 362.917,336.719 387.74,326.264 415.693,337.648 390.901,348.115 401.326,372.925 "
   id="polygon9734" />
			
				<path
   style="fill:none;stroke:#7c4bac;stroke-width:7.0754717;stroke-linecap:round;stroke-linejoin:round;stroke-miterlimit:10;stroke-dasharray:none"
   d="m 224.455,280.329 c 88.031,35.851 67.996,27.692 138.462,56.39"
   id="path9736" />
		</g>
	</g>
</g>
<g
   id="Layer_1"
   transform="translate(-203,-203)">
</g>
</svg>
