<svg width="64" height="60" viewBox="0 0 64 60" fill="none" xmlns="http://www.w3.org/2000/svg">
<g id="64_29 Viash-hub3 1" clip-path="url(#clip0_1306_765)">
<g id="g5632">
<g id="g9008">
<g id="g15320">
<path id="path5626" d="M64 13.5098V42.4904C64 52.1606 56.1606 60 46.4902 60H17.5098C7.83936 60 0 52.1606 0 42.4902V13.5098C0 3.83936 7.83936 -4 17.5098 -4H46.4904C56.1606 -4 64 3.83936 64 13.5098Z" fill="#F2EDF7"/>
<path id="rect234-3-6-5-6-9-45-5" d="M19.082 29.6665C19.082 29.7242 19.0881 29.7805 19.0964 29.8357H19.0903V38.4362C19.0903 40.3183 20.1206 41.9513 21.6509 42.8068L24.8118 39.6522C26.4821 37.985 29.1716 37.985 30.842 39.6522L33.5298 42.335V42.338L34.6368 43.4427H34.9889V43.4542H40.1662L41.2731 42.3496V42.3465L43.9611 39.6637C45.6314 37.9965 48.3209 37.9965 49.9912 39.6637L53.1518 42.8183C54.6821 41.9628 55.7124 40.3298 55.7124 38.4478V29.8472H55.7063C55.7149 29.792 55.7178 29.7355 55.7178 29.678V22.2689C55.7178 22.229 55.7162 22.1893 55.7117 22.1505V16.6193C55.7117 16.3772 55.6945 16.1394 55.6603 15.9065C55.8611 14.6129 55.4612 13.246 54.4586 12.2454L50.095 7.88963C49.2598 7.05604 48.1697 6.63938 47.0798 6.63938C45.9898 6.63938 44.8997 7.05604 44.0646 7.88963L40.3344 11.6127H39.8133V11.6012H34.4669L30.7368 7.87814C29.9016 7.04455 28.8115 6.62793 27.7216 6.62793C26.6317 6.62793 25.5416 7.04455 24.7064 7.87814L20.3427 12.2339C19.3402 13.2344 18.9401 14.6014 19.141 15.895C19.108 16.128 19.0896 16.3656 19.0896 16.6078V22.139C19.0835 22.1777 19.0835 22.2174 19.0835 22.2573L19.082 29.6665Z" fill="#E5DBEF" stroke="#7C4BAC" stroke-width="0.999999" stroke-linejoin="round"/>
<path id="rect234-3-6-5-6-9-9-5" d="M16.3809 31.1479C16.3809 31.2057 16.3869 31.262 16.3952 31.3171H16.3891V39.9178C16.3891 41.7998 17.4194 43.4328 18.9497 44.2883L22.1103 41.1337C23.7806 39.4665 26.4701 39.4665 28.1404 41.1337L30.8283 43.8165V43.8195L31.9353 44.9242H32.2873V44.9357H37.4646L38.5716 43.8311V43.828L41.2595 41.1453C42.9299 39.478 45.6194 39.478 47.2897 41.1453L50.4503 44.2998C51.9806 43.4443 53.0108 41.8113 53.0108 39.9293V31.3287H53.0047C53.0133 31.2735 53.0191 31.2172 53.0191 31.1594V23.7504C53.0191 23.7105 53.0176 23.6708 53.013 23.632V18.1008C53.013 17.8586 52.9958 17.6208 52.9619 17.388C53.1628 16.0944 52.7628 14.7274 51.7602 13.7268L47.3966 9.37107C46.5614 8.53749 45.4713 8.12083 44.3814 8.12083C43.2915 8.12083 42.2014 8.53749 41.3662 9.37107L37.6361 13.0941H37.115V13.0827H31.7686L28.0385 9.35959C27.2033 8.52603 26.1132 8.10938 25.0233 8.10938C23.9333 8.10938 22.8432 8.52603 22.0081 9.35959L17.6443 13.7153C16.6418 14.7159 16.2418 16.0828 16.4426 17.3764C16.4096 17.6094 16.3916 17.847 16.3916 18.0893V23.6204C16.3855 23.6592 16.3855 23.6989 16.3855 23.7388L16.3809 31.1479Z" fill="#E5DBEF" stroke="#7C4BAC" stroke-width="0.999999" stroke-linejoin="round"/>
<path id="rect234-3-6-5-6-9-3-1" d="M13.683 32.6242C13.683 32.682 13.6891 32.7383 13.6945 32.7935H13.6884V41.3941C13.6884 43.276 14.7186 44.9091 16.249 45.7646L19.4095 42.61C21.0798 40.9428 23.7694 40.9428 25.4397 42.61L28.1276 45.2928V45.2959L29.2346 46.4005H29.5866V46.412H34.7639L35.8709 45.3074V45.3043L38.5588 42.6215C40.2291 40.9543 42.9186 40.9543 44.5889 42.6215L47.7495 45.7761C49.2798 44.9206 50.3101 43.2876 50.3101 41.4056V32.805H50.304C50.3126 32.7498 50.3155 32.6935 50.3155 32.6358V25.2267C50.3155 25.1868 50.3139 25.1471 50.3094 25.1084V19.5784C50.3094 19.3362 50.2922 19.0984 50.2581 18.8655C50.4589 17.5719 50.059 16.205 49.0564 15.2044L44.6928 10.8486C43.8576 10.0151 42.7675 9.5984 41.6776 9.5984C40.5876 9.5984 39.4975 10.0151 38.6624 10.8486L34.9322 14.5717H34.4111V14.5602H29.0647L25.3346 10.8371C24.4994 10.0035 23.4094 9.58691 22.3194 9.58691C21.2295 9.58691 20.1394 10.0035 19.3042 10.8371L14.9405 15.1928C13.938 16.1934 13.5379 17.5604 13.7388 18.854C13.7058 19.087 13.6877 19.3246 13.6877 19.5668V25.098C13.6816 25.1367 13.6816 25.1764 13.6816 25.2163L13.683 32.6242Z" fill="#E5DBEF" stroke="#7C4BAC" stroke-width="0.999999" stroke-linejoin="round"/>
<path id="rect234-3-6-5-6-9-86-3" d="M10.981 34.1075C10.981 34.1652 10.987 34.2215 10.9953 34.2767H10.9892V42.8773C10.9892 44.7593 12.0195 46.3923 13.5498 47.2478L16.7104 44.0932C18.3807 42.426 21.0702 42.426 22.7405 44.0932L25.4284 46.776V46.779L26.5354 47.8837H26.8875V47.8952H32.0648L33.1718 46.7905V46.7875L35.8596 44.1047C37.53 42.4375 40.2195 42.4375 41.8898 44.1047L45.0504 47.2593C46.5807 46.4038 47.611 44.7708 47.611 42.8888V34.2881H47.6049C47.6135 34.233 47.6192 34.1767 47.6192 34.1189V26.7099C47.6192 26.67 47.6177 26.6303 47.6132 26.5915V21.0603C47.6132 20.8181 47.5959 20.5803 47.5621 20.3475C47.7629 19.0539 47.363 17.6869 46.3604 16.6863L41.9968 12.3305C41.1616 11.497 40.0715 11.0803 38.9815 11.0803C37.8916 11.0803 36.8015 11.497 35.9663 12.3305L32.2362 16.0536H31.7151V16.0421H26.3687L22.6386 12.3191C21.8034 11.4855 20.7133 11.0688 19.6234 11.0688C18.5334 11.0688 17.4434 11.4855 16.6082 12.3191L12.2445 16.6748C11.242 17.6753 10.8419 19.0423 11.0428 20.3359C11.0098 20.5689 10.9914 20.8065 10.9914 21.0487V26.5799C10.9853 26.6187 10.9853 26.6583 10.9853 26.6983L10.981 34.1075Z" fill="#E5DBEF" stroke="#7C4BAC" stroke-width="0.999999" stroke-linejoin="round"/>
<path id="rect234-3-6-5-6-9-2-6" d="M8.28363 35.5844C8.28363 35.6422 8.2897 35.6985 8.2951 35.7536H8.28904V44.3543C8.28904 46.2363 9.31927 47.8693 10.8496 48.7248L14.0102 45.5702C15.6805 43.903 18.37 43.903 20.0403 45.5702L22.7282 48.253V48.256L23.8352 49.3607H24.1872V49.3722H29.3645L30.4715 48.2675V48.2645L33.1594 45.5817C34.8298 43.9145 37.5193 43.9145 39.1896 45.5817L42.3502 48.7363C43.8805 47.8808 44.9108 46.2478 44.9108 44.3658V35.7652H44.9047C44.9133 35.71 44.9161 35.6537 44.9161 35.5959V28.1869C44.9161 28.147 44.9146 28.1073 44.9101 28.0685V22.5373C44.9101 22.2951 44.8928 22.0574 44.8587 21.8245C45.0595 20.5309 44.6596 19.1639 43.657 18.1634L39.2933 13.8076C38.4582 12.974 37.3681 12.5574 36.2781 12.5574C35.1882 12.5574 34.0981 12.974 33.2629 13.8076L29.5328 17.5307H29.0117V17.5192H23.6653L19.9352 13.7961C19.1 12.9626 18.0099 12.5459 16.92 12.5459C15.83 12.5459 14.74 12.9626 13.9048 13.7961L9.54107 18.1518C8.53856 19.1524 8.13853 20.5193 8.33938 21.8129C8.30636 22.0459 8.28829 22.2835 8.28829 22.5258V28.0569C8.28223 28.0957 8.28223 28.1354 8.28223 28.1753L8.28363 35.5844Z" fill="#E5DBEF" stroke="#7C4BAC" stroke-width="0.999999" stroke-linejoin="round"/>
<path id="rect234-3-6-5-6-6-5" d="M15.5954 28.3443C15.5809 28.3443 15.5667 28.3453 15.5529 28.3472V28.3457H13.3904C12.9173 28.3457 12.5067 28.5751 12.2916 28.9158L13.0847 29.6195C13.5039 29.9914 13.5039 30.5902 13.0847 30.9621L12.4102 31.5605H12.4093L12.1315 31.807V31.8854H12.1284V33.0381L12.4061 33.2845H12.4071L13.0816 33.883C13.5008 34.2549 13.5008 34.8537 13.0816 35.2256L12.2885 35.9293C12.5036 36.27 12.9141 36.4994 13.3873 36.4994H15.5497V36.4979C15.5636 36.4996 15.5778 36.5008 15.5923 36.5008H17.4551C17.4652 36.5008 17.4751 36.5002 17.4849 36.4994H18.8756C18.9365 36.4994 18.9963 36.4953 19.0548 36.488C19.38 36.5327 19.7237 36.4436 19.9753 36.2204L21.0705 35.2489C21.28 35.0629 21.3848 34.8202 21.3848 34.5775C21.3848 34.3349 21.28 34.0922 21.0705 33.9062L20.1344 33.0758V32.9597H20.1375V31.7693L21.0736 30.9388C21.2832 30.7529 21.3879 30.5102 21.3879 30.2675C21.3879 30.0249 21.2832 29.7821 21.0736 29.5962L19.9785 28.6246C19.7269 28.4014 19.3832 28.3124 19.058 28.3571C18.9994 28.3498 18.9396 28.3457 18.8787 28.3457H17.4881C17.4783 28.3447 17.4684 28.3442 17.4583 28.3442L15.5954 28.3443Z" stroke="#7C4BAC" stroke-width="0.999999" stroke-linejoin="round"/>
<path id="rect234-3-6-5-6-6-8-9" d="M26.7438 24.0146C26.7293 24.0146 26.7151 24.0157 26.7013 24.0175V24.0161H24.5388C24.0657 24.0161 23.6551 24.2455 23.44 24.5862L24.2331 25.2899C24.6523 25.6618 24.6523 26.2606 24.2331 26.6325L23.5586 27.2309H23.5577L23.28 27.4774V27.5557H23.2769V28.7084L23.5546 28.9549H23.5555L24.23 29.5534C24.6492 29.9252 24.6492 30.5241 24.23 30.8959L23.4369 31.5996C23.652 31.9403 24.0625 32.1697 24.5357 32.1697H26.6981V32.1683C26.712 32.1703 26.7262 32.1712 26.7407 32.1712H28.6035C28.6136 32.1712 28.6235 32.1707 28.6333 32.1698H30.024C30.0849 32.1698 30.1447 32.1658 30.2032 32.1584C30.5285 32.2032 30.8721 32.1141 31.1237 31.8909L32.2189 30.9193C32.4285 30.7334 32.5332 30.4907 32.5332 30.248C32.5332 30.0054 32.4285 29.7626 32.2189 29.5767L31.2828 28.7462V28.6302H31.2861V27.4399L32.2221 26.6094C32.4317 26.4234 32.5365 26.1807 32.5365 25.938C32.5365 25.6954 32.4317 25.4527 32.2221 25.2667L31.127 24.2952C30.8754 24.072 30.5317 23.9829 30.2065 24.0276C30.148 24.0203 30.0882 24.0162 30.0273 24.0162H28.6366C28.6268 24.0152 28.6169 24.0147 28.6068 24.0147L26.7438 24.0146Z" fill="#03C55C"/>
<path id="rect234-3-6-5-6-6-8-8-14" d="M37.8918 28.3799C37.8773 28.3799 37.8632 28.3809 37.8493 28.3827V28.3813H35.6869C35.2137 28.3813 34.8031 28.6107 34.588 28.9514L35.3812 29.6551C35.8003 30.027 35.8003 30.6258 35.3812 30.9977L34.7066 31.5961H34.7053L34.4276 31.8426V31.921H34.4248V33.0737L34.7025 33.3201H34.7038L35.3783 33.9186C35.7975 34.2905 35.7975 34.8893 35.3783 35.2611L34.5852 35.9648C34.8003 36.3056 35.2109 36.5349 35.6841 36.5349H37.8465V36.5334C37.8603 36.5355 37.8745 36.5364 37.889 36.5364H39.7519C39.7619 36.5364 39.7719 36.5358 39.7816 36.5349H41.1723C41.2332 36.5349 41.293 36.5309 41.3515 36.5235C41.6768 36.5683 42.0205 36.4792 42.272 36.256L43.3672 35.2845C43.5768 35.0985 43.6815 34.8558 43.6815 34.6131C43.6815 34.3705 43.5768 34.1278 43.3672 33.9418L42.4311 33.1113V32.9953H42.4344V31.8051L43.3705 30.9746C43.58 30.7886 43.6848 30.5459 43.6848 30.3033C43.6848 30.0606 43.58 29.8179 43.3705 29.6319L42.2753 28.6604C42.0237 28.4372 41.6801 28.3481 41.3548 28.3928C41.2963 28.3855 41.2365 28.3814 41.1756 28.3814H39.7849C39.7751 28.3804 39.7652 28.38 39.7551 28.38L37.8918 28.3799Z" stroke="#7C4BAC" stroke-width="0.999999" stroke-linejoin="round"/>
<path id="path101807-6" d="M9.68848 32.448L11.2305 32.4385" stroke="black" stroke-width="0.499999"/>
<path id="path101807-9-3" d="M32.9268 30.3064L34.4688 30.2969" stroke="black" stroke-width="0.499999"/>
<path id="path101807-9-2-0" d="M42.8203 32.448L44.3623 32.4385" stroke="black" stroke-width="0.499999"/>
<path id="path101807-9-4-8" d="M22.4531 34.6472L34.3459 34.6377" stroke="black" stroke-width="0.499999"/>
<path id="path101807-1-8" d="M21.6182 30.3088L23.1602 30.2993" stroke="black" stroke-width="0.499999"/>
<path id="path12239" fill-rule="evenodd" clip-rule="evenodd" d="M24.0325 48.9229C23.8574 48.8483 22.7831 47.8488 21.6451 46.7017C19.3504 44.3886 18.6649 43.9856 17.0253 43.9856C15.4539 43.9856 14.6995 44.4111 12.654 46.4513L10.8167 48.2838L10.2572 47.8227C9.94946 47.569 9.48523 46.9779 9.22557 46.5091L8.75345 45.6567L8.70865 33.0833C8.66776 21.606 8.68728 20.4475 8.9325 19.7938C9.13746 19.2473 9.82612 18.4443 11.8375 16.4062C14.952 13.2504 15.5616 12.8589 17.1616 12.9873C17.7097 13.0313 18.3985 13.1916 18.6924 13.3436C18.9862 13.4955 20.2074 14.5793 21.4061 15.7519L23.5857 17.8839H26.6762H29.7667L31.8335 15.7979C34.1375 13.4725 34.9507 12.9531 36.2876 12.9531C37.7137 12.9531 38.4005 13.4267 41.3899 16.4715C43.5571 18.6788 44.1431 19.3689 44.2945 19.8918C44.4252 20.3434 44.4841 22.2843 44.4841 26.1387C44.4841 31.3017 44.4243 32.1184 44.0863 31.5714C43.9051 31.2782 43.6884 31.4082 43.6884 31.8101C43.6884 32.1518 43.6163 32.208 43.1778 32.208H42.6671L43.3369 31.5255C44.2408 30.6046 44.2604 29.9665 43.4098 29.1605C42.2225 28.0353 42.3766 28.0699 38.5543 28.0699C35.6266 28.0699 35.0212 28.1102 34.6904 28.3269C34.2319 28.6274 34.1811 29.1321 34.5766 29.458C34.8419 29.6765 34.8419 29.6831 34.5766 29.5949C34.4234 29.544 34.1907 29.4588 34.0594 29.4057C33.8835 29.3345 33.8206 29.4184 33.8206 29.724C33.8206 30.0789 33.7516 30.139 33.3432 30.139C33.0806 30.139 32.8657 30.2106 32.8657 30.2981C32.8657 30.3856 33.0806 30.4573 33.3432 30.4573C33.7516 30.4573 33.8206 30.5173 33.8206 30.8722C33.8206 31.2039 33.8765 31.2647 34.0992 31.1752C34.2524 31.1137 34.4851 31.0201 34.6164 30.9673C34.7477 30.9145 34.6582 31.1059 34.4175 31.3927C33.7638 32.1714 33.8075 32.9984 34.5373 33.6626C35.2221 34.2857 35.1653 34.4024 34.3977 33.9495L33.8206 33.609V34.0226V34.4362H28.091C23.1041 34.4362 22.3614 34.4671 22.3614 34.6749C22.3614 34.8827 23.1041 34.9137 28.091 34.9137C33.7145 34.9137 33.8206 34.9195 33.8206 35.232C33.8206 35.6105 33.9691 35.6327 34.3871 35.3166C34.8671 34.9535 35.0287 35.0318 34.6442 35.4412C34.2011 35.9128 34.205 36.2806 34.6562 36.5625C35.1031 36.8417 38.2281 37.0037 40.5891 36.87L42.2845 36.774L43.1456 35.987C43.8752 35.3202 44.0067 35.1146 44.0067 34.6402C44.0067 34.1993 43.8714 33.9452 43.37 33.4438C43.0199 33.0937 42.7334 32.7798 42.7334 32.7463C42.7334 32.7128 42.9405 32.6855 43.1936 32.6855C43.5585 32.6855 43.6757 32.7727 43.7595 33.1064C43.8388 33.4224 43.9105 33.4819 44.0473 33.3451C44.1475 33.2449 44.2868 33.1629 44.3568 33.1629C44.4268 33.1629 44.4841 35.8717 44.4841 39.1825C44.4841 45.9679 44.4617 46.1295 43.3446 47.3986C42.9936 47.7974 42.6292 48.1237 42.5349 48.1237C42.4406 48.1237 41.6009 47.3801 40.669 46.4713C38.4823 44.3389 37.9808 44.0689 36.208 44.0693C34.3375 44.0698 33.7842 44.3931 31.1969 46.9979L29.1301 49.0786L26.7405 49.0685C25.4262 49.0629 24.2076 48.9974 24.0325 48.9229ZM20.5927 36.1711C21.9647 35.0787 22.0713 34.4867 21.0881 33.4201C20.3061 32.5718 20.2662 32.0865 20.9374 31.5903C21.2046 31.3927 21.5026 31.057 21.5995 30.8442C21.8492 30.2962 22.5205 30.3042 22.5205 30.8552C22.5205 31.074 22.5637 31.253 22.6164 31.253C22.7838 31.253 24.2709 30.3818 24.2711 30.2836C24.2712 30.1858 22.7903 29.3432 22.6183 29.3432C22.5645 29.3432 22.5205 29.5222 22.5205 29.7411C22.5205 30.0594 22.4409 30.139 22.1226 30.139C21.8877 30.139 21.7247 30.0477 21.7247 29.9162C21.7247 29.5536 20.045 28.1239 19.4881 28.0125C18.6646 27.8478 13.581 27.8978 12.936 28.077C12.6103 28.1674 12.2347 28.3972 12.1014 28.5876C11.8738 28.9126 11.8929 28.9687 12.415 29.5033C12.7209 29.8165 12.9711 30.179 12.9711 30.3088C12.9711 30.4386 12.648 30.8488 12.2531 31.2204C11.5441 31.8876 11.5292 31.8929 11.0595 31.65C10.5919 31.4083 10.5838 31.4109 10.5838 31.806C10.5838 32.1465 10.5108 32.208 10.1063 32.208C9.78797 32.208 9.62881 32.2876 9.62881 32.4467C9.62881 32.6059 9.78797 32.6855 10.1063 32.6855C10.5108 32.6855 10.5838 32.7469 10.5838 33.0874C10.5838 33.4863 10.5876 33.4874 11.0806 33.2325L11.5775 32.9756L12.2743 33.6594C12.6575 34.0356 12.9711 34.4486 12.9711 34.5774C12.9711 34.7061 12.7198 35.0417 12.4125 35.3231C11.7857 35.8972 11.8011 36.2183 12.4727 36.5832C12.798 36.76 13.6598 36.8122 16.3324 36.8172L19.7733 36.8235L20.5927 36.1711ZM31.7344 31.477C32.4064 30.8729 32.5474 30.6532 32.5474 30.2106C32.5474 29.7893 32.4285 29.5802 31.9903 29.2306C31.5184 28.854 31.4333 28.6875 31.4333 28.1409C31.4333 27.6125 31.5341 27.398 31.9903 26.9558C32.8574 26.1154 32.7785 25.57 31.6574 24.6568L30.7675 23.9318H27.5089C24.333 23.9318 23.7418 24.01 23.4436 24.4695C23.3817 24.5648 23.5765 24.8427 23.8812 25.0939C24.6042 25.6898 24.5838 26.1048 23.7938 26.8762C23.2718 27.3859 23.1571 27.6068 23.1571 28.1026C23.1571 28.6062 23.2636 28.8036 23.7938 29.2825C24.5836 29.9961 24.599 30.3905 23.8649 31.1021L23.2994 31.6502L23.6438 31.9291C23.9484 32.1758 24.3887 32.208 27.4548 32.208H30.9214L31.7344 31.477Z" fill="#F2EDF7"/>
<path id="path12241" fill-rule="evenodd" clip-rule="evenodd" d="M44.9266 46.6033C44.8782 46.5549 44.9383 46.184 45.0602 45.7791C45.2412 45.1776 45.2817 42.7991 45.2815 32.7764C45.2814 25.4259 45.2201 20.2973 45.1287 19.9793C44.8271 18.9305 44.1505 18.0827 41.5905 15.5457C39.0303 13.0084 38.1024 12.3257 37.2027 12.3169C36.6467 12.3115 36.7793 12.0558 37.4844 11.7736C38.2936 11.4499 39.7021 11.4445 40.4705 11.7623C41.2646 12.0907 46.4831 17.2655 46.8846 18.1226C47.1681 18.7279 47.1829 19.3794 47.1863 31.347L47.1898 43.9347L46.7031 44.9087C46.1217 46.0721 45.2382 46.9149 44.9266 46.6033Z" fill="#F2EDF7"/>
<path id="path12243" fill-rule="evenodd" clip-rule="evenodd" d="M47.634 45.1723C47.5863 45.1247 47.6477 44.7434 47.7704 44.325C47.955 43.6952 47.9859 41.4023 47.9498 31.0027L47.9063 18.441L47.4831 17.6452C47.2048 17.1221 46.0871 15.8914 44.2203 14.0529C41.6049 11.477 41.3086 11.2341 40.4655 10.9743C39.962 10.8191 39.5897 10.6282 39.638 10.55C39.8139 10.2654 41.4919 9.8905 42.1317 9.99281C43.3237 10.1834 44.0628 10.7321 46.7279 13.4048C48.7611 15.4438 49.4311 16.2186 49.6375 16.7699C49.8822 17.4233 49.9018 18.5954 49.8609 30.1391C49.8105 44.3738 49.9163 43.1889 48.572 44.5825C47.9205 45.2579 47.7971 45.3355 47.634 45.1723Z" fill="#F2EDF7"/>
<path id="path12245" fill-rule="evenodd" clip-rule="evenodd" d="M50.2958 43.6711C50.2426 43.5851 50.292 43.3522 50.4055 43.1534C50.5686 42.8677 50.6211 40.1626 50.6562 30.2355C50.6959 19.0276 50.6728 17.5835 50.4419 16.7889C50.2022 15.9646 49.9696 15.6825 47.2939 12.9724C44.3855 10.0267 43.4456 9.31505 42.4152 9.27851C42.0874 9.26689 42.1574 9.19514 42.8131 8.87097C43.8563 8.35521 45.2474 8.41496 46.2684 9.01937C47.3175 9.64039 51.8833 14.3272 52.2703 15.1804C52.5872 15.8789 52.5943 16.1666 52.5977 28.3202C52.6016 42.1138 52.6408 41.5737 51.544 42.855C50.9006 43.6067 50.4415 43.9069 50.2958 43.6711Z" fill="#F2EDF7"/>
<path id="path12247" fill-rule="evenodd" clip-rule="evenodd" d="M53.0452 42.1483C52.9976 42.1007 53.059 41.7194 53.1816 41.3009C53.3662 40.6712 53.3971 38.3902 53.3611 28.0582L53.3175 15.5762L52.9599 14.8012C52.7096 14.2587 51.8519 13.2664 50.1 11.4929C47.4861 8.84665 46.4877 8.06304 45.5326 7.90805C44.7934 7.78811 44.8115 7.63344 45.6016 7.31731C46.3592 7.01418 47.4559 6.98777 48.3652 7.25076C49.3052 7.52264 54.4933 12.6297 54.9809 13.7631C55.3114 14.5314 55.314 14.6511 55.2709 27.1532L55.2274 39.768L54.7572 40.6167C54.1613 41.6926 53.3317 42.4348 53.0452 42.1483Z" fill="#F2EDF7"/>
<path id="path12249" fill-rule="evenodd" clip-rule="evenodd" d="M35.3639 36.0852C35.308 36.0293 35.4393 35.7732 35.6557 35.516C36.248 34.8121 36.1771 34.2084 35.4125 33.4438C35.0624 33.0937 34.7759 32.6625 34.7759 32.4856C34.7759 32.3087 35.0624 31.8532 35.4125 31.4734C36.2075 30.6109 36.2586 30.0056 35.5928 29.3398C35.2406 28.9876 35.1891 28.8633 35.3671 28.795C35.4939 28.7464 36.9834 28.7065 38.6771 28.7065H41.7566L42.6032 29.49L43.4499 30.2735L42.7735 30.9683C42.1633 31.5949 42.0971 31.7398 42.0971 32.4467C42.0971 33.1543 42.1628 33.2976 42.7735 33.9213L43.4499 34.6122L42.6262 35.3996L41.8024 36.1869H38.634C36.8914 36.1869 35.4198 36.1412 35.3639 36.0852Z" fill="#F2EDF7"/>
<path id="path12251" fill-rule="evenodd" clip-rule="evenodd" d="M13.0632 36.0447C12.7642 35.9275 12.7645 35.9198 13.0777 35.6978C13.9409 35.0859 13.9586 34.3187 13.1303 33.4201C12.7736 33.0332 12.4937 32.569 12.4937 32.3647C12.4937 32.1432 12.7437 31.7691 13.1303 31.4122C13.8985 30.703 13.9719 30.0887 13.3735 29.3775C13.1571 29.1203 13.0257 28.8641 13.0817 28.8082C13.1376 28.7523 14.6091 28.7065 16.3518 28.7065H19.5202L20.3423 29.4907L21.1643 30.2749L20.4896 30.9168C19.8603 31.5154 19.8149 31.6159 19.8149 32.4091C19.8149 33.1722 19.8721 33.3152 20.3719 33.7996C21.0435 34.4505 21.0662 34.7277 20.4913 35.2574C19.4777 36.1912 19.4933 36.1878 16.3178 36.1757C14.696 36.1696 13.2314 36.1106 13.0632 36.0447Z" fill="#F2EDF7"/>
</g>
</g>
</g>
</g>
<defs>
<clipPath id="clip0_1306_765">
<rect width="64" height="64" fill="white" transform="translate(0 -4)"/>
</clipPath>
</defs>
</svg>
