<svg width="61" height="64" viewBox="0 0 61 64" fill="none" xmlns="http://www.w3.org/2000/svg">
<g id="icon_reproducible 1" clip-path="url(#clip0_1484_612)">
<g id="g1796">
<g id="_x30_5_quality">
<g id="g1613">
<path id="path1589" d="M61 17.5098V46.4904C61 56.1606 53.5281 64 44.311 64H16.689C7.47189 64 0 56.1606 0 46.4902V17.5098C0 7.83936 7.47189 0 16.689 0H44.3111C53.5281 0 61 7.83936 61 17.5098Z" fill="#F2EDF7"/>
<g id="g1611">
<path id="path1591" d="M46.4594 38.2569C46.4594 43.1167 42.7043 47.0565 38.0723 47.0565C33.4372 47.0565 29.6821 43.1167 29.6821 38.2569C29.6821 33.3938 33.4373 29.4541 38.0723 29.4541C42.7044 29.4541 46.4594 33.3938 46.4594 38.2569Z" fill="#03C55C"/>
<path id="path1593" d="M49.3473 38.5737L49.3484 38.577C50.0205 40.5355 49.0301 42.6916 47.1512 43.3602L47.1493 43.3609C45.837 43.8279 44.9042 45.0542 44.7614 46.5003L44.7605 46.5089C44.5562 48.5767 42.7763 50.0676 40.8091 49.8187L40.7949 49.8169C39.4214 49.6431 38.077 50.3233 37.3515 51.5591L37.3493 51.5628C36.3087 53.3351 34.0847 53.8667 32.4151 52.7424C31.248 51.9564 29.7516 51.9564 28.5845 52.7424L28.5825 52.7438C26.9136 53.8676 24.6908 53.3371 23.6495 51.5663L23.644 51.557C22.918 50.3223 21.5742 49.6431 20.2014 49.8169L20.1907 49.8183C18.2233 50.0674 16.4432 48.5766 16.2389 46.5086L16.238 46.5004C16.0952 45.0543 15.1623 43.8281 13.8501 43.361L13.8482 43.3604C11.9692 42.6917 10.979 40.5356 11.6509 38.5771L11.652 38.5738C12.121 37.2073 11.789 35.6793 10.8019 34.6611L10.7941 34.653C9.38112 33.1954 9.38112 30.8056 10.7941 29.3478L10.8021 29.3397C11.7892 28.3214 12.1211 26.7936 11.6522 25.427L11.6511 25.4237C10.979 23.4652 11.9694 21.3092 13.8483 20.6405L13.8502 20.6398C15.1625 20.1728 16.0953 18.9465 16.2381 17.5004L16.239 17.4918C16.4433 15.424 18.2232 13.9332 20.1904 14.182L20.2046 14.1838C21.5781 14.3576 22.9225 13.6774 23.648 12.4416L23.6502 12.4379C24.6908 10.6656 26.9148 10.134 28.5844 11.2583C29.7515 12.0443 31.2479 12.0443 32.415 11.2583L32.417 11.2569C34.0859 10.1331 36.3087 10.6637 37.35 12.4343L37.3555 12.4436C38.0815 13.6782 39.4253 14.3575 40.7981 14.1837L40.8088 14.1822C42.7762 13.9332 44.5563 15.424 44.7606 17.4919L44.7615 17.5001C44.9044 18.9463 45.8372 20.1725 47.1494 20.6396L47.1513 20.6402C49.0303 21.3089 50.0205 23.4649 49.3486 25.4235L49.3475 25.4268C48.8785 26.7933 49.2105 28.3213 50.1976 29.3395L50.2055 29.3476C51.6185 30.8052 51.6185 33.195 50.2055 34.6528L50.1977 34.6608C49.2105 35.6792 48.8785 37.2071 49.3473 38.5737Z" stroke="#7C4BAC" stroke-width="1.5" stroke-miterlimit="10" stroke-linecap="round" stroke-linejoin="round"/>
<path id="path1595" d="M44.758 32.0032C44.758 40.2633 38.3754 46.9597 30.5025 46.9597C22.6243 46.9597 16.2417 40.2633 16.2417 32.0032C16.2417 23.7375 22.6243 17.041 30.5025 17.041C38.3754 17.041 44.758 23.7375 44.758 32.0032Z" stroke="#7C4BAC" stroke-width="1.5" stroke-miterlimit="10" stroke-linecap="round" stroke-linejoin="round"/>
<path id="polygon1597" d="M33.6191 29.6568L30.499 24.9829H36.7368L33.6191 29.6568Z" stroke="#7C4BAC" stroke-width="1.5" stroke-miterlimit="10" stroke-linecap="round" stroke-linejoin="round"/>
<path id="polygon1599" d="M27.3815 29.6568L24.2615 24.9829H30.4991L27.3815 29.6568Z" stroke="#7C4BAC" stroke-width="1.5" stroke-miterlimit="10" stroke-linecap="round" stroke-linejoin="round"/>
<path id="polygon1601" d="M24.2602 24.9829L27.3802 29.6568H21.1426L24.2602 24.9829Z" stroke="#7C4BAC" stroke-width="1.5" stroke-miterlimit="10" stroke-linecap="round" stroke-linejoin="round"/>
<path id="polygon1603" d="M30.4981 24.9829L33.6181 29.6568H27.3804L30.4981 24.9829Z" stroke="#7C4BAC" stroke-width="1.5" stroke-miterlimit="10" stroke-linecap="round" stroke-linejoin="round"/>
<path id="polygon1605" d="M36.7355 24.9829L39.8555 29.6568H33.6179L36.7355 24.9829Z" stroke="#7C4BAC" stroke-width="1.5" stroke-miterlimit="10" stroke-linecap="round" stroke-linejoin="round"/>
<path id="polygon1607" d="M21.1443 29.6548L39.8573 29.6609L30.4964 41.615L21.1443 29.6548Z" stroke="#7C4BAC" stroke-width="1.5" stroke-miterlimit="10" stroke-linecap="round" stroke-linejoin="round"/>
<path id="polygon1609" d="M27.3823 29.6567L33.6193 29.6588L30.4972 41.6149L27.3823 29.6567Z" stroke="#7C4BAC" stroke-width="1.5" stroke-miterlimit="10" stroke-linecap="round" stroke-linejoin="round"/>
</g>
</g>
</g>
</g>
</g>
<defs>
<clipPath id="clip0_1484_612">
<rect width="61" height="64" fill="white"/>
</clipPath>
</defs>
</svg>
