<svg width="42" height="48" viewBox="0 0 42 48" fill="none" xmlns="http://www.w3.org/2000/svg">
<g id="Icon-DataManagement" clip-path="url(#clip0_991_1403)">
<path id="Vector" d="M13.574 27.1496C21.0707 27.1496 27.1479 21.0724 27.1479 13.5757C27.1479 6.07898 21.0707 0.00170898 13.574 0.00170898C6.07727 0.00170898 0 6.07898 0 13.5757C0 21.0724 6.07727 27.1496 13.574 27.1496Z" fill="#02C55C"/>
<path id="Vector_2" d="M20.0371 18.104L25.7103 22.0685" stroke="#7C4BAC" stroke-width="1.5" stroke-linecap="round" stroke-linejoin="round"/>
<path id="Vector_3" d="M25.5527 30.894L20.1953 34.3792" stroke="#7C4BAC" stroke-width="1.5" stroke-linecap="round" stroke-linejoin="round"/>
<path id="Vector_4" d="M40.0676 26.597C40.0676 30.9563 36.5317 34.4922 32.1725 34.4922C27.8132 34.4922 24.2773 30.9619 24.2773 26.597C24.2773 22.2322 27.8132 18.6963 32.1725 18.6963C36.5317 18.6963 40.0676 22.2322 40.0676 26.597Z" stroke="#7C4BAC" stroke-width="1.5" stroke-linecap="round" stroke-linejoin="round"/>
<path id="Vector_5" d="M21.4699 13.5758C21.4699 17.9407 17.934 21.4709 13.5748 21.4709C9.21557 21.4709 5.67969 17.935 5.67969 13.5758C5.67969 9.21655 9.21557 5.68066 13.5748 5.68066C17.934 5.68066 21.4699 9.21655 21.4699 13.5758Z" stroke="#7C4BAC" stroke-width="1.5" stroke-linecap="round" stroke-linejoin="round"/>
<path id="Vector_6" d="M21.4699 38.682C21.4699 43.0412 17.934 46.5771 13.5748 46.5771C9.21557 46.5771 5.67969 43.0412 5.67969 38.682C5.67969 34.3228 9.21557 30.7812 13.5748 30.7812C17.934 30.7812 21.4699 34.3171 21.4699 38.682Z" stroke="#7C4BAC" stroke-width="1.5" stroke-linecap="round" stroke-linejoin="round"/>
</g>
<defs>
<clipPath id="clip0_991_1403">
<rect width="41.4945" height="48" fill="white"/>
</clipPath>
</defs>
</svg>
