<svg width="96" height="96" viewBox="0 0 96 96" fill="none" xmlns="http://www.w3.org/2000/svg">
<g id="34_innovate">
<g id="_x30_1_modularity">
<path id="path5626" d="M94.875 26.7741V69.2261C94.875 83.3916 83.3916 94.875 69.2259 94.875H26.7741C12.6084 94.875 1.125 83.3916 1.125 69.2259V26.7741C1.125 12.6084 12.6084 1.125 26.7741 1.125H69.2261C83.3916 1.125 94.875 12.6084 94.875 26.7741Z" fill="#F2EDF7"/>
<path id="circle22409" d="M51.4777 39.8306C58.5361 39.8306 64.258 34.1086 64.258 27.0502C64.258 19.9918 58.5361 14.2698 51.4777 14.2698C44.4192 14.2698 38.6973 19.9918 38.6973 27.0502C38.6973 34.1086 44.4192 39.8306 51.4777 39.8306Z" fill="#02C55C"/>
<path id="path22411" d="M38.3404 45.7037C35.123 45.7037 32.5039 43.0846 32.5039 39.8672C32.5039 36.6498 35.123 34.0308 38.3404 34.0308C41.5578 34.0308 44.1768 36.6498 44.1768 39.8672C44.1768 43.0846 41.5578 45.7037 38.3404 45.7037Z" stroke="#7C4BAC" stroke-width="1.5"/>
<path id="path22413" d="M36.88 82.1869C36.0717 82.1869 35.4209 81.5361 35.4209 80.7278V72.7236L25.8159 65.8637C25.4328 65.5908 25.2025 65.1498 25.2071 64.6775L25.2493 60.3428C24.9541 60.2419 28.0938 60.2637 28.0938 60.2637L28.1253 63.9269L37.7303 70.7869C38.1135 71.0598 38.3391 71.5007 38.3391 71.9731V80.7278C38.3391 81.5361 37.6831 82.1869 36.88 82.1869Z" stroke="#7C4BAC" stroke-width="1.5"/>
<path id="path22415" d="M32.5035 60.2948H20.8306C20.29 60.2948 19.7966 60.0009 19.5447 59.5233C19.2927 59.0509 19.319 58.4736 19.6181 58.0274L25.4546 49.2727C25.9952 48.4592 27.3389 48.4592 27.8847 49.2727L33.7212 58.0274C34.0204 58.4736 34.0466 59.0509 33.7947 59.5233C33.5427 59.9957 33.0441 60.2948 32.5088 60.2948H32.5035Z" stroke="#7C4BAC" stroke-width="1.5"/>
<path id="path22417" d="M67.5283 47.1629H58.7736C57.9653 47.1629 57.3145 46.5121 57.3145 45.7038V36.9491C57.3145 36.1408 57.9705 35.49 58.7736 35.49H67.5283C68.3366 35.49 68.9874 36.1408 68.9874 36.9491V45.7038C68.9874 46.5121 68.3313 47.1629 67.5283 47.1629Z" stroke="#7C4BAC" stroke-width="1.5"/>
<path id="path22419" d="M42.7165 82.1869C41.9083 82.1869 41.2574 81.536 41.2574 80.7277V57.9802L37.3052 54.028C37.0323 53.7551 36.8825 53.3824 36.8801 52.994L36.8379 46.1622C36.8329 45.354 37.5362 45.662 38.3392 45.662C39.1422 45.662 39.7983 45.4383 39.7983 46.2466V52.3904L43.7505 56.3426C44.0235 56.6156 44.1757 56.9882 44.1757 57.3766V80.7277C44.1757 81.536 43.5196 82.1869 42.7165 82.1869Z" stroke="#7C4BAC" stroke-width="1.5"/>
<path id="path22421" d="M48.5587 82.1869C47.7504 82.1869 47.0996 81.536 47.0996 80.7277V48.6219C47.0996 48.3333 47.1836 48.0498 47.3463 47.8136L50.0178 43.8037L49.9757 34.874C50.0746 36.2797 52.9619 36.1621 52.8518 34.9583L52.9361 44.2446C52.9387 44.5332 52.8521 44.8167 52.6894 45.0529L50.0178 49.0628V80.7277C50.0178 81.536 49.3618 82.1869 48.5587 82.1869Z" stroke="#7C4BAC" stroke-width="1.5"/>
<path id="path22423" d="M54.3947 82.1869C53.5864 82.1869 52.9355 81.5361 52.9355 80.7278V60.2949C52.9355 59.8593 53.1297 59.4499 53.4604 59.1717L61.6902 52.3118V47.8537C61.6902 47.0454 64.5595 47.1877 64.5663 47.996L64.6085 52.9941C64.6121 53.4297 64.4143 53.8391 64.0836 54.1173L55.8538 60.9772V80.7225C55.8538 81.5308 55.1977 82.1817 54.3947 82.1817V82.1869Z" stroke="#7C4BAC" stroke-width="1.5"/>
<path id="path22425" d="M60.2326 82.1869C59.4243 82.1869 58.7734 81.5361 58.7734 80.7278V74.8913C58.7734 74.4662 58.9571 74.062 59.2826 73.7839L68.9873 65.4648L69.1295 61.296C69.0854 62.5894 71.9779 62.2483 71.9898 61.6072L71.9055 66.1366C71.8976 66.5617 71.7218 66.9659 71.3964 67.2441L61.6917 75.5631V80.7278C61.6917 81.5361 61.0356 82.1869 60.2326 82.1869Z" stroke="#7C4BAC" stroke-width="1.5"/>
<path id="path22427" d="M70.4457 61.754C68.0313 61.754 66.0684 59.791 66.0684 57.3766C66.0684 54.9623 68.0313 52.9993 70.4457 52.9993C72.8601 52.9993 74.8231 54.9623 74.8231 57.3766C74.8231 59.791 72.8601 61.754 70.4457 61.754Z" stroke="#7C4BAC" stroke-width="1.5"/>
<path id="path22429" d="M51.4773 35.4899C51.1046 35.4899 50.7319 35.3482 50.4433 35.0647L44.6068 29.2283C44.0347 28.6562 44.0347 27.7324 44.6068 27.1656L50.4433 21.3291C51.0154 20.757 51.9391 20.757 52.506 21.3291L58.3424 27.1656C58.9145 27.7377 58.9145 28.6614 58.3424 29.2283L52.506 35.0647C52.2226 35.3482 51.8499 35.4899 51.472 35.4899H51.4773Z" stroke="#7C4BAC" stroke-width="1.5"/>
</g>
</g>
</svg>
