<?xml version="1.0" encoding="UTF-8" standalone="no"?>
<!-- Generator: Adobe Illustrator 23.0.5, SVG Export Plug-In . SVG Version: 6.00 Build 0)  -->

<svg
   version="1.1"
   x="0px"
   y="0px"
   viewBox="0 0 106 106"
   xml:space="preserve"
   id="svg11986"
   sodipodi:docname="13 operational.svg"
   width="106"
   height="106"
   inkscape:version="1.2.2 (b0a84865, 2022-12-01)"
   xmlns:inkscape="http://www.inkscape.org/namespaces/inkscape"
   xmlns:sodipodi="http://sodipodi.sourceforge.net/DTD/sodipodi-0.dtd"
   xmlns="http://www.w3.org/2000/svg"
   xmlns:svg="http://www.w3.org/2000/svg"><defs
   id="defs11990" /><sodipodi:namedview
   id="namedview11988"
   pagecolor="#ffffff"
   bordercolor="#666666"
   borderopacity="1.0"
   inkscape:showpageshadow="2"
   inkscape:pageopacity="0.0"
   inkscape:pagecheckerboard="0"
   inkscape:deskcolor="#d1d1d1"
   showgrid="false"
   inkscape:zoom="0.4609375"
   inkscape:cx="-226.71186"
   inkscape:cy="56.40678"
   inkscape:window-width="2314"
   inkscape:window-height="1166"
   inkscape:window-x="0"
   inkscape:window-y="25"
   inkscape:window-maximized="0"
   inkscape:current-layer="svg11986" />
<g
   id="_x31_3_operational"
   transform="matrix(0.212,0,0,0.212,-1.272,-1.272)"
   style="stroke-width:7.0754717;stroke-dasharray:none">
	<g
   id="g11982"
   style="stroke-width:7.0754717;stroke-dasharray:none">
		<path
   style="fill:#f2edf7;stroke-width:7.0754717;stroke-dasharray:none"
   d="M 506,142.795 V 369.206 C 506,444.755 444.755,506 369.205,506 H 142.795 C 67.245,506 6,444.755 6,369.205 V 142.795 C 6,67.245 67.245,6 142.795,6 H 369.206 C 444.755,6 506,67.245 506,142.795 Z"
   id="path11970" />
		<g
   id="g11980"
   style="stroke-width:7.0754717;stroke-dasharray:none">
			<circle
   style="fill:#03c55c;stroke-width:7.0754717;stroke-dasharray:none"
   cx="256.00101"
   cy="284.784"
   r="69.785004"
   id="circle11972" />
			
				<path
   style="fill:none;stroke:#7c4bac;stroke-width:7.0754717;stroke-linecap:round;stroke-linejoin:round;stroke-miterlimit:10;stroke-dasharray:none"
   d="m 184.752,350.131 c -7.48,0 -13.574,-6.089 -13.574,-13.569 v -14.891 c -6.323,-1.676 -12.407,-4.194 -18.182,-7.515 l -10.492,10.487 c -2.503,2.563 -5.924,3.995 -9.575,3.995 -3.64,0 -7.061,-1.431 -9.605,-4.029 l -8.498,-8.498 c -2.563,-2.513 -3.999,-5.924 -3.999,-9.575 0.01,-3.65 1.436,-7.061 4.039,-9.61 l 10.443,-10.453 c -3.321,-5.775 -5.835,-11.864 -7.51,-18.187 h -14.891 c -7.48,0 -13.574,-6.089 -13.574,-13.569 v -12.063 c 0,-7.485 6.094,-13.574 13.574,-13.574 h 14.901 c 1.686,-6.283 4.229,-12.457 7.51,-18.177 l -10.492,-10.492 c -2.563,-2.513 -3.99,-5.924 -3.999,-9.575 0,-3.655 1.436,-7.066 4.039,-9.615 l 8.488,-8.493 c 2.513,-2.568 5.924,-3.999 9.575,-3.999 3.66,0 7.071,1.436 9.615,4.039 l 10.443,10.433 c 5.675,-3.286 11.769,-5.815 18.192,-7.55 v -14.846 c 0,-7.48 6.094,-13.569 13.574,-13.569 h 12.058 c 7.48,0 13.574,6.089 13.574,13.569 v 14.851 c 6.443,1.74 12.547,4.269 18.202,7.545 l 10.472,-10.472 c 2.513,-2.568 5.924,-3.999 9.575,-3.999 3.66,0 7.071,1.436 9.615,4.039 l 8.498,8.483 c 2.563,2.518 3.999,5.929 3.999,9.585 -0.01,3.65 -1.436,7.061 -4.039,9.61 l -10.443,10.438 c 3.271,5.65 5.805,11.744 7.55,18.197 h 14.851 c 7.48,0 13.564,6.089 13.564,13.574 v 12.063 c 0,7.48 -6.084,13.569 -13.564,13.569 h -14.851 c -1.735,6.443 -4.259,12.537 -7.54,18.202 l 10.472,10.472 c 2.563,2.513 3.99,5.924 3.999,9.575 0,3.65 -1.436,7.061 -4.039,9.61 l -8.498,8.498 c -2.503,2.563 -5.924,3.995 -9.575,3.995 -3.64,0 -7.061,-1.431 -9.605,-4.029 l -10.462,-10.457 c -5.715,3.276 -11.889,5.825 -18.182,7.515 v 14.896 c 0,7.48 -6.094,13.569 -13.574,13.569 h -12.059 z m 6.078,-144.709 c -23.883,0 -43.309,19.385 -43.309,43.219 0,23.876 19.427,43.303 43.309,43.303 23.827,0 43.212,-19.427 43.212,-43.303 0,-23.834 -19.384,-43.219 -43.212,-43.219 z"
   id="path11974" />
			
				<path
   style="fill:none;stroke:#7c4bac;stroke-width:7.0754717;stroke-linecap:round;stroke-linejoin:round;stroke-miterlimit:10;stroke-dasharray:none"
   d="m 343.571,415.666 c -5.505,0 -9.99,-4.481 -9.99,-9.986 v -10.959 c -4.654,-1.233 -9.131,-3.086 -13.381,-5.531 l -7.722,7.718 c -1.842,1.886 -4.36,2.94 -7.046,2.94 -2.679,0 -5.197,-1.053 -7.068,-2.965 l -6.254,-6.254 c -1.886,-1.85 -2.943,-4.36 -2.943,-7.046 0.007,-2.686 1.057,-5.197 2.973,-7.072 l 7.685,-7.692 c -2.444,-4.25 -4.294,-8.731 -5.527,-13.384 h -10.959 c -5.505,0 -9.99,-4.481 -9.99,-9.986 v -8.878 c 0,-5.509 4.485,-9.99 9.99,-9.99 h 10.966 c 1.24,-4.624 3.112,-9.168 5.527,-13.377 l -7.722,-7.722 c -1.886,-1.85 -2.936,-4.36 -2.943,-7.046 0,-2.69 1.057,-5.2 2.973,-7.076 l 6.246,-6.25 c 1.85,-1.89 4.36,-2.943 7.046,-2.943 2.694,0 5.204,1.057 7.076,2.973 l 7.685,7.678 c 4.176,-2.419 8.661,-4.279 13.388,-5.556 v -10.926 c 0,-5.505 4.485,-9.986 9.99,-9.986 h 8.874 c 5.505,0 9.99,4.481 9.99,9.986 v 10.929 c 4.742,1.281 9.234,3.142 13.396,5.553 l 7.707,-7.707 c 1.85,-1.89 4.36,-2.943 7.046,-2.943 2.694,0 5.204,1.057 7.076,2.973 l 6.254,6.243 c 1.886,1.853 2.943,4.364 2.943,7.054 -0.007,2.686 -1.057,5.197 -2.973,7.072 l -7.685,7.681 c 2.408,4.158 4.272,8.643 5.556,13.392 h 10.929 c 5.505,0 9.982,4.481 9.982,9.99 v 8.878 c 0,5.505 -4.477,9.986 -9.982,9.986 h -10.929 c -1.277,4.742 -3.134,9.226 -5.549,13.396 l 7.707,7.707 c 1.886,1.85 2.936,4.36 2.943,7.046 0,2.686 -1.057,5.197 -2.973,7.072 l -6.254,6.254 c -1.842,1.886 -4.36,2.94 -7.046,2.94 -2.679,0 -5.197,-1.053 -7.068,-2.965 l -7.7,-7.696 c -4.206,2.411 -8.749,4.287 -13.381,5.531 v 10.962 c 0,5.505 -4.485,9.986 -9.99,9.986 h -8.873 z m 4.473,-106.496 c -17.576,0 -31.873,14.266 -31.873,31.806 0,17.571 14.297,31.868 31.873,31.868 17.535,0 31.801,-14.297 31.801,-31.868 0,-17.54 -14.266,-31.806 -31.801,-31.806 z"
   id="path11976" />
			
				<path
   style="fill:none;stroke:#7c4bac;stroke-width:7.0754717;stroke-linecap:round;stroke-linejoin:round;stroke-miterlimit:10;stroke-dasharray:none"
   d="m 339.291,225.633 c -4.767,0 -8.65,-3.88 -8.65,-8.647 v -9.489 c -4.03,-1.068 -7.907,-2.673 -11.587,-4.789 l -6.686,6.683 c -1.595,1.633 -3.775,2.546 -6.102,2.546 -2.32,0 -4.5,-0.912 -6.121,-2.568 l -5.415,-5.415 c -1.633,-1.602 -2.549,-3.775 -2.549,-6.102 0.006,-2.326 0.915,-4.5 2.574,-6.124 l 6.655,-6.661 c -2.117,-3.68 -3.718,-7.56 -4.786,-11.59 h -9.489 c -4.767,0 -8.65,-3.88 -8.65,-8.647 v -7.688 c 0,-4.77 3.883,-8.65 8.65,-8.65 h 9.496 c 1.074,-4.004 2.695,-7.939 4.786,-11.584 l -6.686,-6.686 c -1.633,-1.602 -2.542,-3.775 -2.549,-6.102 0,-2.329 0.915,-4.503 2.574,-6.127 l 5.409,-5.412 c 1.602,-1.637 3.775,-2.549 6.102,-2.549 2.333,0 4.506,0.915 6.127,2.574 l 6.655,6.648 c 3.617,-2.094 7.5,-3.706 11.593,-4.811 v -9.461 c 0,-4.767 3.883,-8.647 8.65,-8.647 h 7.684 c 4.767,0 8.65,3.88 8.65,8.647 v 9.464 c 4.106,1.109 7.996,2.72 11.6,4.808 l 6.674,-6.674 c 1.602,-1.637 3.775,-2.549 6.102,-2.549 2.333,0 4.506,0.915 6.127,2.574 l 5.415,5.406 c 1.633,1.605 2.549,3.779 2.549,6.108 -0.006,2.326 -0.915,4.5 -2.574,6.124 l -6.655,6.651 c 2.085,3.601 3.699,7.484 4.811,11.596 h 9.464 c 4.767,0 8.644,3.88 8.644,8.65 v 7.688 c 0,4.767 -3.877,8.647 -8.644,8.647 h -9.464 c -1.106,4.106 -2.714,7.989 -4.805,11.6 l 6.674,6.674 c 1.633,1.602 2.542,3.775 2.549,6.102 0,2.326 -0.915,4.5 -2.574,6.124 l -5.415,5.415 c -1.595,1.633 -3.775,2.546 -6.102,2.546 -2.32,0 -4.5,-0.912 -6.121,-2.568 l -6.667,-6.664 c -3.642,2.088 -7.576,3.712 -11.587,4.789 v 9.493 c 0,4.767 -3.883,8.647 -8.65,8.647 z m 3.874,-92.218 c -15.22,0 -27.6,12.353 -27.6,27.542 0,15.215 12.38,27.595 27.6,27.595 15.184,0 27.537,-12.38 27.537,-27.595 0,-15.189 -12.353,-27.542 -27.537,-27.542 z"
   id="path11978" />
		</g>
	</g>
</g>
<g
   id="Layer_1"
   transform="translate(-203,-203)"
   style="stroke-width:1.5;stroke-dasharray:none">
</g>
</svg>
