<?xml version="1.0" encoding="UTF-8" standalone="no"?>
<!-- Generator: Adobe Illustrator 23.0.5, SVG Export Plug-In . SVG Version: 6.00 Build 0)  -->

<svg
   version="1.1"
   x="0px"
   y="0px"
   viewBox="0 0 106 106"
   xml:space="preserve"
   id="svg3199"
   sodipodi:docname="16 industry.svg"
   width="106"
   height="106"
   inkscape:version="1.2.2 (b0a84865, 2022-12-01)"
   xmlns:inkscape="http://www.inkscape.org/namespaces/inkscape"
   xmlns:sodipodi="http://sodipodi.sourceforge.net/DTD/sodipodi-0.dtd"
   xmlns="http://www.w3.org/2000/svg"
   xmlns:svg="http://www.w3.org/2000/svg"><defs
   id="defs3203" /><sodipodi:namedview
   id="namedview3201"
   pagecolor="#ffffff"
   bordercolor="#666666"
   borderopacity="1.0"
   inkscape:showpageshadow="2"
   inkscape:pageopacity="0.0"
   inkscape:pagecheckerboard="0"
   inkscape:deskcolor="#d1d1d1"
   showgrid="false"
   inkscape:zoom="0.4609375"
   inkscape:cx="-225.62712"
   inkscape:cy="52.067797"
   inkscape:window-width="1309"
   inkscape:window-height="456"
   inkscape:window-x="0"
   inkscape:window-y="25"
   inkscape:window-maximized="0"
   inkscape:current-layer="svg3199" />
<g
   id="_x31_6_industry"
   transform="matrix(0.212,0,0,0.212,-1.272,-1.272)"
   style="stroke-width:7.0754717;stroke-dasharray:none">
	<g
   id="g3195"
   style="stroke-width:7.0754717;stroke-dasharray:none">
		<path
   style="fill:#f2edf7;stroke-width:7.0754717;stroke-dasharray:none"
   d="M 506,142.795 V 369.206 C 506,444.755 444.755,506 369.205,506 H 142.795 C 67.245,506 6,444.755 6,369.205 V 142.795 C 6,67.245 67.245,6 142.795,6 H 369.206 C 444.755,6 506,67.245 506,142.795 Z"
   id="path3143" />
		<g
   id="g3193"
   style="stroke-width:7.0754717;stroke-dasharray:none">
			<rect
   x="216.05499"
   y="252.60201"
   style="fill:#03c55c;stroke-width:7.0754717;stroke-dasharray:none"
   width="110.245"
   height="110.245"
   id="rect3145" />
			
				<path
   style="fill:none;stroke:#7c4bac;stroke-width:7.0754717;stroke-linecap:round;stroke-linejoin:round;stroke-miterlimit:10;stroke-dasharray:none"
   d="m 203.72,118.175 v -11.913 c 0,-9.35 7.579,-16.929 16.929,-16.929 h 36.442 c 9.35,0 16.929,7.579 16.929,16.929 v 174.786"
   id="path3147" />
			
				<line
   style="fill:none;stroke:#7c4bac;stroke-width:7.0754717;stroke-linecap:round;stroke-linejoin:round;stroke-miterlimit:10;stroke-dasharray:none"
   x1="171.987"
   y1="338.02499"
   x2="171.987"
   y2="397.97299"
   id="line3149" />
			
				<line
   style="fill:none;stroke:#7c4bac;stroke-width:7.0754717;stroke-linecap:round;stroke-linejoin:round;stroke-miterlimit:10;stroke-dasharray:none"
   x1="203.72"
   y1="338.02499"
   x2="203.72"
   y2="397.97299"
   id="line3151" />
			
				<line
   style="fill:none;stroke:#7c4bac;stroke-width:7.0754717;stroke-linecap:round;stroke-linejoin:round;stroke-miterlimit:10;stroke-dasharray:none"
   x1="235.452"
   y1="338.02499"
   x2="235.452"
   y2="397.97299"
   id="line3153" />
			
				<rect
   x="133.42"
   y="313.33099"
   style="fill:none;stroke:#7c4bac;stroke-width:7.0754717;stroke-linecap:round;stroke-linejoin:round;stroke-miterlimit:10;stroke-dasharray:none"
   width="140.599"
   height="109.336"
   id="rect3155" />
			
				<rect
   x="274.01999"
   y="346.302"
   style="fill:none;stroke:#7c4bac;stroke-width:7.0754717;stroke-linecap:round;stroke-linejoin:round;stroke-miterlimit:10;stroke-dasharray:none"
   width="104.56"
   height="76.364998"
   id="rect3157" />
			
				<rect
   x="296.20001"
   y="367.99899"
   style="fill:none;stroke:#7c4bac;stroke-width:7.0754717;stroke-linecap:round;stroke-linejoin:round;stroke-miterlimit:10;stroke-dasharray:none"
   width="60.200001"
   height="54.667999"
   id="rect3159" />
			
				<line
   style="fill:none;stroke:#7c4bac;stroke-width:7.0754717;stroke-linecap:round;stroke-linejoin:round;stroke-miterlimit:10;stroke-dasharray:none"
   x1="326.29999"
   y1="422.66699"
   x2="326.29999"
   y2="367.99899"
   id="line3161" />
			
				<line
   style="fill:none;stroke:#7c4bac;stroke-width:7.0754717;stroke-linecap:round;stroke-linejoin:round;stroke-miterlimit:10;stroke-dasharray:none"
   x1="364.18799"
   y1="367.99899"
   x2="288.41199"
   y2="367.99899"
   id="line3163" />
			
				<rect
   x="305.11801"
   y="180.446"
   style="fill:none;stroke:#7c4bac;stroke-width:7.0754717;stroke-linecap:round;stroke-linejoin:round;stroke-miterlimit:10;stroke-dasharray:none"
   width="42.362999"
   height="165.856"
   id="rect3165" />
			
				<line
   style="fill:none;stroke:#7c4bac;stroke-width:7.0754717;stroke-linecap:round;stroke-linejoin:round;stroke-miterlimit:10;stroke-dasharray:none"
   x1="297.67999"
   y1="180.446"
   x2="354.91901"
   y2="180.446"
   id="line3167" />
			
				<path
   style="fill:none;stroke:#7c4bac;stroke-width:7.0754717;stroke-linecap:round;stroke-linejoin:round;stroke-miterlimit:10;stroke-dasharray:none"
   d="m 292.112,305.098 v -15.816 c 0,-4.547 -3.686,-8.233 -8.233,-8.233 H 123.56 c -4.547,0 -8.233,3.686 -8.233,8.233 v 15.816 c 0,4.547 3.686,8.233 8.233,8.233 h 160.319 c 4.547,0 8.233,-3.686 8.233,-8.233 z"
   id="path3169" />
			
				<path
   style="fill:none;stroke:#7c4bac;stroke-width:7.0754717;stroke-linecap:round;stroke-linejoin:round;stroke-miterlimit:10;stroke-dasharray:none"
   d="M 240.332,154.788 V 281.049 H 167.107 V 154.788 c 0,-20.221 16.392,-36.612 36.612,-36.612 v 0 c 20.221,-0.001 36.613,16.391 36.613,36.612 z"
   id="path3171" />
			
				<line
   style="fill:none;stroke:#7c4bac;stroke-width:7.0754717;stroke-linecap:round;stroke-linejoin:round;stroke-miterlimit:10;stroke-dasharray:none"
   x1="112.473"
   y1="422.66699"
   x2="399.52701"
   y2="422.66699"
   id="line3173" />
			<g
   id="g3191"
   style="stroke-width:7.0754717;stroke-dasharray:none">
				
					<path
   style="fill:none;stroke:#7c4bac;stroke-width:7.0754717;stroke-linecap:round;stroke-linejoin:round;stroke-miterlimit:10;stroke-dasharray:none"
   d="m 294.742,138.589 c 11.075,-11.075 26.275,-13.877 33.902,-6.251 7.627,7.627 4.804,22.807 -6.271,33.882"
   id="path3175" />
				
					<path
   style="fill:none;stroke:#7c4bac;stroke-width:7.0754717;stroke-linecap:round;stroke-linejoin:round;stroke-miterlimit:10;stroke-dasharray:none"
   d="m 362.496,126.098 c -11.074,11.074 -26.225,13.868 -33.852,6.241 -7.627,-7.627 -4.854,-22.798 6.221,-33.872 11.075,-11.075 26.275,-13.877 33.902,-6.251 7.626,7.627 4.804,22.807 -6.271,33.882 z"
   id="path3177" />
				
					<path
   style="fill:none;stroke:#7c4bac;stroke-width:7.0754717;stroke-linecap:round;stroke-linejoin:round;stroke-miterlimit:10;stroke-dasharray:none"
   d="m 402.619,85.975 c -11.074,11.074 -26.225,13.868 -33.852,6.241 -7.627,-7.627 -4.854,-22.798 6.221,-33.872"
   id="path3179" />
				<g
   id="g3185"
   style="stroke-width:7.0754717;stroke-dasharray:none">
					
						<line
   style="fill:none;stroke:#7c4bac;stroke-width:7.0754717;stroke-linecap:round;stroke-linejoin:round;stroke-miterlimit:10;stroke-dasharray:none"
   x1="369.009"
   y1="117.586"
   x2="343.37601"
   y2="91.954002"
   id="line3181" />
					
						<line
   style="fill:none;stroke:#7c4bac;stroke-width:7.0754717;stroke-linecap:round;stroke-linejoin:round;stroke-miterlimit:10;stroke-dasharray:none"
   x1="354.021"
   y1="132.575"
   x2="328.388"
   y2="106.942"
   id="line3183" />
				</g>
				
					<line
   style="fill:none;stroke:#7c4bac;stroke-width:7.0754717;stroke-linecap:round;stroke-linejoin:round;stroke-miterlimit:10;stroke-dasharray:none"
   x1="367.82501"
   y1="68.091003"
   x2="392.87601"
   y2="93.140999"
   id="line3187" />
				
					<line
   style="fill:none;stroke:#7c4bac;stroke-width:7.0754717;stroke-linecap:round;stroke-linejoin:round;stroke-miterlimit:10;stroke-dasharray:none"
   x1="304.95099"
   y1="130.965"
   x2="330.00201"
   y2="156.01601"
   id="line3189" />
			</g>
		</g>
	</g>
</g>
<g
   id="Layer_1"
   transform="matrix(0.212,0,0,0.212,-1.272,-1.272)"
   style="stroke-width:7.0754717;stroke-dasharray:none">
</g>
</svg>
