<svg width="96" height="96" viewBox="0 0 96 96" fill="none" xmlns="http://www.w3.org/2000/svg">
<g id="31_sustainability">
<g id="_x30_1_modularity">
<path id="path5626" d="M94.875 26.7741V69.2261C94.875 83.3916 83.3916 94.875 69.2259 94.875H26.7741C12.6084 94.875 1.125 83.3916 1.125 69.2259V26.7741C1.125 12.6084 12.6084 1.125 26.7741 1.125H69.2261C83.3916 1.125 94.875 12.6084 94.875 26.7741Z" fill="#F2EDF7"/>
<path id="circle10414" d="M65.5978 45.7984C72.2058 45.7984 77.5627 40.4362 77.5627 33.8217C77.5627 27.2071 72.2058 21.845 65.5978 21.845C58.9897 21.845 53.6328 27.2071 53.6328 33.8217C53.6328 40.4362 58.9897 45.7984 65.5978 45.7984Z" fill="#02C55C"/>
<path id="path10416" d="M65.5966 32.3658C61.872 32.7446 50.7129 33.2069 43.5979 40.8405C36.4828 48.4742 38.4188 57.1997 42.0353 60.264C46.7083 64.2234 52.5654 62.9643 56.29 59.6934C61.8426 54.824 64.6778 45.4246 65.5966 32.3658Z" stroke="#7C4BAC" stroke-width="1.5" stroke-linecap="round" stroke-linejoin="round"/>
<path id="path10418" d="M17.2168 49.8366C17.2168 49.8366 25.5898 49.1283 31.3683 52.95C37.1469 56.7718 37.0535 61.528 35.1814 64.0857C32.7638 67.386 26.6905 68.8075 22.3615 63.2741C18.4796 58.3113 17.2168 49.8366 17.2168 49.8366Z" stroke="#7C4BAC" stroke-width="1.5" stroke-linecap="round" stroke-linejoin="round"/>
<path id="path10420" d="M28.2422 58.3949C31.9029 59.3639 38.0058 66.0875 40.3447 75.9493" stroke="#7C4BAC" stroke-width="1.5" stroke-linecap="round" stroke-linejoin="round"/>
<path id="path10422" d="M40.3457 75.9493C40.3457 75.9493 40.7732 57.1407 52.5514 47.1068" stroke="#7C4BAC" stroke-width="1.5" stroke-linecap="round" stroke-linejoin="round"/>
</g>
</g>
</svg>
