<svg width="39" height="48" viewBox="0 0 39 48" fill="none" xmlns="http://www.w3.org/2000/svg">
<g id="Icon-DataWorkflowTraining" clip-path="url(#clip0_991_1374)">
<path id="Vector" d="M16.4719 14.0081C17.0793 13.9991 17.6778 13.8686 18.1323 13.6256L29.3595 7.53279C30.2639 7.04231 30.2369 6.26833 29.2965 5.80485L18.1908 0.33302C17.7183 0.103527 17.1108 -0.0089693 16.5079 3.04223e-05C15.9049 -0.0089693 15.2929 0.0990273 14.8204 0.33302L3.72376 5.80485C2.78329 6.26833 2.75629 7.03781 3.66077 7.53279L14.8879 13.6256C15.3379 13.8731 15.9409 13.9991 16.5484 14.0081" fill="#02C55C"/>
<path id="Vector_2" d="M30.4423 46.839C34.6631 46.5465 37.8535 42.8611 37.8535 38.6313V36.1653C37.8535 34.4464 36.7556 32.9209 35.1266 32.381L28.2778 30.0995V23.7142C28.2778 22.3913 27.2069 21.3203 25.8839 21.3203C24.5609 21.3203 23.49 22.3913 23.49 23.7142V37.2813L21.5235 35.3149C19.9666 33.7579 17.4377 33.7579 15.8807 35.3149L15.5117 35.6839L24.2369 44.5216C25.8029 46.0875 28.0213 47.0055 30.4513 46.839H30.4423Z" stroke="#7C4BAC" stroke-width="1.5" stroke-linecap="round" stroke-linejoin="round"/>
<path id="Vector_3" d="M1.8696 15.2593L14.8877 21.0461C15.2972 21.2261 15.7382 21.3206 16.1837 21.3206H16.4266C16.8721 21.3206 17.3131 21.2261 17.7226 21.0461L30.7407 15.2593C31.1862 15.0613 31.4697 14.6203 31.4697 14.1388C31.4697 13.6528 31.1817 13.2118 30.7407 13.0183L17.7226 7.23152C17.3131 7.05153 16.8721 6.95703 16.4266 6.95703H16.1837C15.7382 6.95703 15.2972 7.05153 14.8877 7.23152L1.8696 13.0138C1.42412 13.2118 1.14062 13.6528 1.14062 14.1343C1.14062 14.6203 1.42862 15.0613 1.8696 15.2548V15.2593Z" stroke="#7C4BAC" stroke-width="1.5" stroke-linecap="round" stroke-linejoin="round"/>
<path id="Vector_4" d="M1.14062 14.1387V20.524" stroke="#7C4BAC" stroke-width="1.5" stroke-linecap="round" stroke-linejoin="round"/>
<path id="Vector_5" d="M5.92773 17.0635V23.1473C5.92773 24.0338 6.41372 24.8437 7.19669 25.2622C8.96064 26.2072 12.376 27.7056 16.3044 27.7056C17.7219 27.7056 19.0673 27.5077 20.2958 27.2152" stroke="#7C4BAC" stroke-width="1.5" stroke-linecap="round" stroke-linejoin="round"/>
</g>
<defs>
<clipPath id="clip0_991_1374">
<rect width="38.9944" height="48" fill="white"/>
</clipPath>
</defs>
</svg>
