<svg width="483" height="434" viewBox="0 0 483 434" fill="none" xmlns="http://www.w3.org/2000/svg">
<path d="M107.552 156.922C103.904 156.922 100.948 159.885 100.948 163.537V323.676H44.9559C41.3074 323.676 38.3574 326.633 38.3574 330.285C38.3574 333.943 41.3074 336.906 44.9559 336.906H279.933C337.501 336.906 386.133 287.84 386.133 229.769C386.133 226.117 383.177 223.154 379.534 223.154C375.892 223.154 372.942 226.117 372.942 229.769C372.942 280.669 330.349 323.676 279.933 323.676H210.992V163.537C210.992 159.885 208.037 156.922 204.394 156.922C200.751 156.922 197.795 159.885 197.795 163.537V323.676H178.704V140.197C178.704 136.545 175.748 133.582 172.111 133.582C168.463 133.582 165.507 136.545 165.507 140.197V323.676H146.427V206.798C146.427 203.147 143.477 200.189 139.835 200.189C136.186 200.189 133.23 203.147 133.23 206.798V323.676H114.151V163.537C114.151 159.885 111.195 156.922 107.552 156.922Z" fill="#E8E5F7" fill-opacity="0.2"/>
<path d="M279.936 0H74.4697C70.8211 0 67.8711 2.96316 67.8711 6.61503C67.8711 10.2669 70.8211 13.2301 74.4697 13.2301H279.936C382.856 13.2301 469.809 100.696 469.809 204.233V229.767C469.809 333.304 382.856 420.77 279.936 420.77H178.776C175.127 420.77 172.171 423.733 172.171 427.391C172.171 431.043 175.127 434 178.776 434H279.936C390.003 434 483 340.475 483 229.767V204.233C483 93.525 390.003 0 279.936 0Z" fill="#E8E5F7" fill-opacity="0.2"/>
<path d="M444.121 236.387C447.764 236.387 450.72 233.424 450.72 229.766V204.232C450.72 111.077 372.513 32.3679 279.938 32.3679H163.693C160.045 32.3679 157.089 35.331 157.089 38.9887C157.089 42.6348 160.045 45.598 163.693 45.598H279.938C365.355 45.598 437.523 118.248 437.523 204.232V229.766C437.523 233.424 440.479 236.387 444.121 236.387Z" fill="#E8E5F7" fill-opacity="0.2"/>
<path d="M418.42 229.768V204.234C418.42 128.615 355.003 64.7336 279.937 64.7336H195.964C192.315 64.7336 189.359 67.6967 189.359 71.3544C189.359 75.0063 192.315 77.9694 195.964 77.9694H279.937C347.845 77.9694 405.228 135.792 405.228 204.234V229.768C405.228 298.216 347.845 356.039 279.937 356.039H195.952C192.304 356.039 189.348 359.002 189.348 362.654C189.348 366.311 192.304 369.269 195.952 369.269H279.937C355.003 369.269 418.42 305.381 418.42 229.768Z" fill="#E8E5F7" fill-opacity="0.2"/>
<path d="M138.915 110.329H279.937C283.58 110.329 286.53 107.366 286.53 103.714C286.53 100.062 283.58 97.0987 279.937 97.0987H138.915C135.267 97.0987 132.311 100.062 132.311 103.714C132.311 107.366 135.267 110.329 138.915 110.329Z" fill="#E8E5F7" fill-opacity="0.2"/>
<path d="M18.0036 13.2312H41.1936C44.8306 13.2312 47.7864 10.268 47.7864 6.61033C47.7864 2.96424 44.8306 0.00107564 41.1936 0.00107564H18.0036C14.3551 0.00107564 11.3993 2.96424 11.3993 6.61033C11.3993 10.268 14.3551 13.2312 18.0036 13.2312Z" fill="#E8E5F7" fill-opacity="0.2"/>
<path d="M123.823 45.5991C127.466 45.5991 130.421 42.636 130.421 38.9841C130.421 35.3322 127.466 32.369 123.823 32.369H96.0721C92.4294 32.369 89.4736 35.3322 89.4736 38.9841C89.4736 42.636 92.4294 45.5991 96.0721 45.5991H123.823Z" fill="#E8E5F7" fill-opacity="0.2"/>
<path d="M21.4316 71.3544C21.4316 75.0063 24.3874 77.9695 28.0359 77.9695H156.115C159.758 77.9695 162.714 75.0063 162.714 71.3544C162.714 67.6968 159.758 64.7336 156.115 64.7336H28.0359C24.3874 64.7336 21.4316 67.6968 21.4316 71.3544Z" fill="#E8E5F7" fill-opacity="0.2"/>
<path d="M6.60428 110.329H99.0527C102.695 110.329 105.645 107.366 105.645 103.714C105.645 100.062 102.695 97.0987 99.0527 97.0987H6.60428C2.95576 97.0987 0 100.062 0 103.714C0 107.366 2.95576 110.329 6.60428 110.329Z" fill="#E8E5F7" fill-opacity="0.2"/>
<path d="M86.7159 356.041C83.0674 356.041 80.1116 359.004 80.1116 362.656C80.1116 366.308 83.0674 369.271 86.7159 369.271H156.107C159.744 369.271 162.7 366.308 162.7 362.656C162.7 359.004 159.744 356.041 156.107 356.041H86.7159Z" fill="#E8E5F7" fill-opacity="0.2"/>
<path d="M21.4316 395.021C21.4316 398.673 24.3874 401.636 28.0359 401.636H205.341C208.984 401.636 211.94 398.673 211.94 395.021C211.94 391.363 208.984 388.4 205.341 388.4H28.0359C24.3874 388.4 21.4316 391.363 21.4316 395.021Z" fill="#E8E5F7" fill-opacity="0.2"/>
<path d="M262.431 401.634H280.073C308.205 401.634 336.319 394.22 361.38 380.197C387.768 365.399 410.075 343.852 425.887 317.861C427.792 314.747 426.805 310.673 423.699 308.774C420.581 306.876 416.517 307.854 414.624 310.974C399.989 335.02 379.351 354.964 354.937 368.645C331.845 381.574 305.959 388.404 280.073 388.404H262.431C258.788 388.404 255.832 391.367 255.832 395.019C255.832 398.671 258.788 401.634 262.431 401.634Z" fill="#E8E5F7" fill-opacity="0.2"/>
</svg>
