<svg width="28" height="28" viewBox="0 0 28 28" fill="none" xmlns="http://www.w3.org/2000/svg">
<g id="vuesax/linear/note-2">
<g id="note-2">
<path id="Vector" d="M25.2699 12.1801L24.1266 17.0568C23.1466 21.2684 21.2099 22.9718 17.5699 22.6218C16.9866 22.5751 16.3566 22.4701 15.6799 22.3068L13.7199 21.8401C8.85488 20.6851 7.34988 18.2818 8.49322 13.4051L9.63655 8.51676C9.86988 7.52509 10.1499 6.66176 10.4999 5.95009C11.8649 3.12676 14.1866 2.36842 18.0832 3.29009L20.0316 3.74509C24.9199 4.88842 26.4132 7.30342 25.2699 12.1801Z" stroke="#02C55C" stroke-width="1.5" stroke-linecap="round" stroke-linejoin="round"/>
<path id="Vector_2" d="M17.5699 22.6219C16.8466 23.1119 15.9366 23.5202 14.8282 23.8819L12.9849 24.4885C8.35324 25.9819 5.91491 24.7335 4.40991 20.1019L2.91658 15.4935C1.42324 10.8619 2.65991 8.41186 7.29158 6.91853L9.13491 6.31186C9.61324 6.1602 10.0682 6.03186 10.4999 5.9502C10.1499 6.66186 9.86991 7.5252 9.63658 8.51686L8.49324 13.4052C7.34991 18.2819 8.85491 20.6852 13.7199 21.8402L15.6799 22.3069C16.3566 22.4702 16.9866 22.5752 17.5699 22.6219Z" stroke="#02C55C" stroke-width="1.5" stroke-linecap="round" stroke-linejoin="round"/>
<path id="Vector_3" d="M14.7466 9.95166L20.4049 11.3867" stroke="#02C55C" stroke-width="1.5" stroke-linecap="round" stroke-linejoin="round"/>
<path id="Vector_4" d="M13.6033 14.4668L16.9866 15.3301" stroke="#02C55C" stroke-width="1.5" stroke-linecap="round" stroke-linejoin="round"/>
</g>
</g>
</svg>
