<svg width="30" height="30" viewBox="0 0 30 30" fill="none" xmlns="http://www.w3.org/2000/svg">
<g id="Frame" clip-path="url(#clip0_90_291)">
<path id="Vector" d="M30 29.9995V18.9995C30 13.6245 28.875 9.49951 22.5 9.49951C19.5 9.49951 17.5 11.1245 16.625 12.7495H16.5V9.99951H10.625V29.9995H16.875V20.1245C16.875 17.4995 17.375 14.9995 20.625 14.9995C23.75 14.9995 23.875 17.9995 23.875 20.2495V29.9995H30Z" fill="white"/>
<path id="Vector_2" d="M0.500488 10H6.75049V30H0.500488V10Z" fill="white"/>
<path id="Vector_3" d="M3.625 0C1.625 0 0 1.625 0 3.625C0 5.625 1.625 7.25 3.625 7.25C5.625 7.25 7.25 5.625 7.25 3.625C7.25 1.625 5.625 0 3.625 0Z" fill="white"/>
</g>
<defs>
<clipPath id="clip0_90_291">
<rect width="30" height="30" fill="white"/>
</clipPath>
</defs>
</svg>
