<svg width="615" height="553" viewBox="0 0 615 553" fill="none" xmlns="http://www.w3.org/2000/svg">
<path d="M136.945 199.676C132.3 199.676 128.536 203.447 128.536 208.094V411.862H57.242C52.5963 411.862 48.8401 415.626 48.8401 420.272C48.8401 424.927 52.5963 428.697 57.242 428.697H356.437C429.738 428.697 491.66 366.263 491.66 292.37C491.66 287.723 487.896 283.953 483.258 283.953C478.62 283.953 474.864 287.723 474.864 292.37C474.864 357.139 420.63 411.862 356.437 411.862H268.655V208.094C268.655 203.447 264.891 199.676 260.253 199.676C255.615 199.676 251.851 203.447 251.851 208.094V411.862H227.543V178.394C227.543 173.747 223.779 169.976 219.148 169.976C214.502 169.976 210.739 173.747 210.739 178.394V411.862H186.445V263.141C186.445 258.495 182.689 254.732 178.05 254.732C173.405 254.732 169.641 258.495 169.641 263.141V411.862H145.347V208.094C145.347 203.447 141.584 199.676 136.945 199.676Z" fill="#7C4BAC" fill-opacity="0.1"/>
<path d="M356.44 0H94.8216C90.176 0 86.4198 3.77048 86.4198 8.41732C86.4198 13.0642 90.176 16.8347 94.8216 16.8347H356.44C487.488 16.8347 598.204 128.131 598.204 259.877V292.368C598.204 424.114 487.488 535.41 356.44 535.41H227.634C222.988 535.41 219.225 539.181 219.225 543.835C219.225 548.482 222.988 552.245 227.634 552.245H356.44C496.588 552.245 615 433.239 615 292.368V259.877C615 119.006 496.588 0 356.44 0Z" fill="#7C4BAC" fill-opacity="0.1"/>
<path d="M565.496 300.791C570.134 300.791 573.898 297.021 573.898 292.366V259.875C573.898 141.34 474.318 41.1866 356.443 41.1866H208.429C203.784 41.1866 200.02 44.9571 200.02 49.6113C200.02 54.2508 203.784 58.0213 208.429 58.0213H356.443C465.203 58.0213 557.094 150.465 557.094 259.875V292.366C557.094 297.021 560.858 300.791 565.496 300.791Z" fill="#7C4BAC" fill-opacity="0.1"/>
<path d="M532.77 292.369V259.878C532.77 163.657 452.023 82.3704 356.442 82.3704H249.519C244.873 82.3704 241.11 86.141 241.11 90.7952C241.11 95.442 244.873 99.2125 249.519 99.2125H356.442C442.908 99.2125 515.974 172.789 515.974 259.878V292.369C515.974 379.466 442.908 453.043 356.442 453.043H249.504C244.859 453.043 241.095 456.813 241.095 461.46C241.095 466.114 244.859 469.877 249.504 469.877H356.442C452.023 469.877 532.77 388.583 532.77 292.369Z" fill="#7C4BAC" fill-opacity="0.1"/>
<path d="M176.88 140.388H356.442C361.08 140.388 364.836 136.618 364.836 131.971C364.836 127.324 361.08 123.554 356.442 123.554H176.88C172.234 123.554 168.47 127.324 168.47 131.971C168.47 136.618 172.234 140.388 176.88 140.388Z" fill="#7C4BAC" fill-opacity="0.1"/>
<path d="M22.9238 16.836H52.4515C57.0825 16.836 60.846 13.0655 60.846 8.41134C60.846 3.77186 57.0825 0.0013687 52.4515 0.0013687H22.9238C18.2782 0.0013687 14.5147 3.77186 14.5147 8.41134C14.5147 13.0655 18.2782 16.836 22.9238 16.836Z" fill="#7C4BAC" fill-opacity="0.1"/>
<path d="M157.663 58.0228C162.301 58.0228 166.064 54.2523 166.064 49.6055C166.064 44.9586 162.301 41.1881 157.663 41.1881H122.328C117.69 41.1881 113.926 44.9586 113.926 49.6055C113.926 54.2523 117.69 58.0228 122.328 58.0228H157.663Z" fill="#7C4BAC" fill-opacity="0.1"/>
<path d="M27.2887 90.7952C27.2887 95.4421 31.0522 99.2126 35.6979 99.2126H198.78C203.418 99.2126 207.182 95.4421 207.182 90.7952C207.182 86.141 203.418 82.3705 198.78 82.3705H35.6979C31.0522 82.3705 27.2887 86.141 27.2887 90.7952Z" fill="#7C4BAC" fill-opacity="0.1"/>
<path d="M8.40918 140.388H126.123C130.761 140.388 134.517 136.618 134.517 131.971C134.517 127.324 130.761 123.554 126.123 123.554H8.40918C3.76355 123.554 0 127.324 0 131.971C0 136.618 3.76355 140.388 8.40918 140.388Z" fill="#7C4BAC" fill-opacity="0.1"/>
<path d="M110.415 453.046C105.769 453.046 102.005 456.816 102.005 461.463C102.005 466.11 105.769 469.88 110.415 469.88H198.77C203.401 469.88 207.164 466.11 207.164 461.463C207.164 456.816 203.401 453.046 198.77 453.046H110.415Z" fill="#7C4BAC" fill-opacity="0.1"/>
<path d="M27.2887 502.646C27.2887 507.293 31.0522 511.063 35.6979 511.063H261.459C266.098 511.063 269.861 507.293 269.861 502.646C269.861 497.992 266.098 494.221 261.459 494.221H35.6979C31.0522 494.221 27.2887 497.992 27.2887 502.646Z" fill="#7C4BAC" fill-opacity="0.1"/>
<path d="M334.151 511.06H356.615C392.435 511.06 428.232 501.627 460.142 483.783C493.742 464.953 522.145 437.536 542.278 404.463C544.704 400.501 543.447 395.316 539.492 392.901C535.523 390.486 530.348 391.73 527.937 395.699C509.303 426.298 483.024 451.675 451.938 469.084C422.536 485.536 389.575 494.226 356.615 494.226H334.151C329.513 494.226 325.749 497.996 325.749 502.643C325.749 507.29 329.513 511.06 334.151 511.06Z" fill="#7C4BAC" fill-opacity="0.1"/>
</svg>
