<svg width="49" height="49" viewBox="0 0 49 49" fill="none" xmlns="http://www.w3.org/2000/svg">
<g id="SVG 1" clip-path="url(#clip0_597_1345)">
<path id="Vector" d="M8.61476 19.2877L9.64916 17.0161L13.7456 29.1921L22.738 3.61734H3.73476L3.74036 44.5953H44.8112V27.5265H38.4136V34.7121L34.9508 34.6961V17.8649L38.4136 17.8809V24.2797H44.7816V17.8809L46.5268 16.1425L48.2736 17.9745L48.272 48.1357L0.28076 48.0553L0.27356 0.135742L27.8916 0.169342L15.3864 34.7229L12.0444 34.6537L6.27996 18.1413L8.61476 19.2877Z" fill="#7C4BAC"/>
<path id="Vector_2" d="M22.954 31.5286C23.9024 32.073 25.2884 32.5266 26.7472 32.5266C28.9108 32.5266 30.1752 31.4606 30.1752 29.9182C30.1752 28.4894 29.3 27.673 27.0876 26.8782C24.4128 25.9946 22.758 24.7018 22.758 22.5474C22.758 20.1658 24.8732 18.397 28.0584 18.397C29.736 18.397 30.9516 18.7598 31.6812 19.1454L31.0992 20.7558C30.1331 20.2732 29.0671 20.0245 27.9872 20.0298C25.75 20.0298 24.8992 21.2774 24.8992 22.3206C24.8992 23.7494 25.896 24.4526 28.1572 25.269C30.9288 26.267 32.3392 27.5142 32.3392 29.7598C32.3392 32.1198 30.4672 34.1598 26.6012 34.1598C25.0208 34.1598 23.2944 33.7286 22.4192 33.1842L22.954 31.5286Z" fill="#7C4BAC" stroke="#7C4BAC" stroke-width="2" stroke-miterlimit="10"/>
</g>
<defs>
<clipPath id="clip0_597_1345">
<rect width="48" height="48" fill="white" transform="translate(0.27356 0.135742)"/>
</clipPath>
</defs>
</svg>
